<?xml version="1.0" encoding="UTF-8" standalone="no"?>
<!DOCTYPE svg PUBLIC "-//W3C//DTD SVG 1.1//EN"
"http://www.w3.org/Graphics/SVG/1.1/DTD/svg11.dtd">
<svg viewBox="0 0 909 1286" version="1.1" xmlns="http://www.w3.org/2000/svg" xmlns:xlink="http://www.w3.org/1999/xlink">
<defs>
</defs>
<g fill="#000000" >
<use xlink:href="#f0_1s" transform="matrix(12,0,0,12,47.4,136)" />
<use xlink:href="#f0_u" transform="matrix(12,0,0,12,59.3,136)" />
<use xlink:href="#f0_5" transform="matrix(12,0,0,12,71.5,136)" />
<use xlink:href="#f0_d" transform="matrix(12,0,0,12,82,136)" />
<use xlink:href="#f0_1b" transform="matrix(12,0,0,12,99,136)" />
<use xlink:href="#f0_5" transform="matrix(12,0,0,12,110.1,136)" />
<use xlink:href="#f0_6" transform="matrix(12,0,0,12,120.5,136)" />
<use xlink:href="#f0_7" transform="matrix(12,0,0,12,130.1,136)" />
<use xlink:href="#f0_e" transform="matrix(12,0,0,12,136.5,136)" />
<use xlink:href="#f0_g" transform="matrix(12,0,0,12,144,136)" />
<use xlink:href="#f0_4" transform="matrix(12,0,0,12,159.3,136)" />
<use xlink:href="#f0_u" transform="matrix(12,0,0,12,166.7,136)" />
<use xlink:href="#f0_3" transform="matrix(12,0,0,12,179,136)" />
<use xlink:href="#f0_4" transform="matrix(12,0,0,12,189.9,136)" />
<use xlink:href="#f0_1a" transform="matrix(12,0,0,12,202.1,136)" />
<use xlink:href="#f1_3" transform="matrix(12,0,0,12,220.6,136)" />
<use xlink:href="#f0_16" transform="matrix(12,0,0,12,240.3,136)" />
<use xlink:href="#f0_i" transform="matrix(12,0,0,12,247.6,136)" />
<use xlink:href="#f0_1i" transform="matrix(12,0,0,12,264.7,136)" />
<use xlink:href="#f0_h" transform="matrix(12,0,0,12,278.6,136)" />
<use xlink:href="#f0_17" transform="matrix(12,0,0,12,290.8,136)" />
<use xlink:href="#f0_1g" transform="matrix(12,0,0,12,302.9,136)" />
<use xlink:href="#f0_16" transform="matrix(12,0,0,12,317.9,136)" />
<use xlink:href="#f0_1a" transform="matrix(12,0,0,12,325.2,136)" />
<use xlink:href="#f1_3" transform="matrix(12,0,0,12,343.8,136)" />
<use xlink:href="#f0_i" transform="matrix(12,0,0,12,363.4,136)" />
<use xlink:href="#f0_17" transform="matrix(12,0,0,12,375.7,136)" />
<use xlink:href="#f0_1i" transform="matrix(12,0,0,12,387.8,136)" />
<use xlink:href="#f0_16" transform="matrix(12,0,0,12,401.7,136)" />
<use xlink:href="#f0_1a" transform="matrix(12,0,0,12,409,136)" />
<use xlink:href="#f1_3" transform="matrix(12,0,0,12,427.6,136)" />
<use xlink:href="#f0_h" transform="matrix(12,0,0,12,447.2,136)" />
<use xlink:href="#f0_17" transform="matrix(12,0,0,12,459.5,136)" />
<use xlink:href="#f0_1a" transform="matrix(12,0,0,12,47.4,186.4)" />
<use xlink:href="#f0_d" transform="matrix(12,0,0,12,61.2,186.4)" />
<use xlink:href="#f0_s" transform="matrix(12,0,0,12,73.4,186.4)" />
<use xlink:href="#f0_n" transform="matrix(12,0,0,12,82.3,186.4)" />
<use xlink:href="#f2_11" transform="matrix(12,0,0,12,92.6,186.4)" />
<use xlink:href="#f2_w" transform="matrix(12,0,0,12,109.4,186.4)" />
<use xlink:href="#f2_1s" transform="matrix(12,0,0,12,123.3,186.4)" />
<use xlink:href="#f2_14" transform="matrix(12,0,0,12,139.3,186.4)" />
<use xlink:href="#f2_1p" transform="matrix(12,0,0,12,154.3,186.4)" />
<use xlink:href="#f2_6" transform="matrix(12,0,0,12,162.1,186.4)" />
<use xlink:href="#f2_1e" transform="matrix(12,0,0,12,171.9,186.4)" />
<use xlink:href="#f2_7" transform="matrix(12,0,0,12,181.2,186.4)" />
<use xlink:href="#f2_1q" transform="matrix(12,0,0,12,191.8,186.4)" />
<use xlink:href="#f2_z" transform="matrix(12,0,0,12,47.4,236.8)" />
<use xlink:href="#f3_3" transform="matrix(12,0,0,12,65,236.8)" />
<use xlink:href="#f2_16" transform="matrix(12,0,0,12,83.2,236.8)" />
<use xlink:href="#f2_11" transform="matrix(12,0,0,12,89.5,236.8)" />
<use xlink:href="#f2_w" transform="matrix(12,0,0,12,106.3,236.8)" />
<use xlink:href="#f2_1s" transform="matrix(12,0,0,12,120.2,236.8)" />
<use xlink:href="#f2_17" transform="matrix(12,0,0,12,131.4,236.8)" />
<use xlink:href="#f2_14" transform="matrix(12,0,0,12,142.5,236.8)" />
<use xlink:href="#f2_6" transform="matrix(12,0,0,12,157.5,236.8)" />
<use xlink:href="#f2_z" transform="matrix(12,0,0,12,47.4,287.2)" />
<use xlink:href="#f3_3" transform="matrix(12,0,0,12,65,287.2)" />
<use xlink:href="#f2_11" transform="matrix(12,0,0,12,83.2,287.2)" />
<use xlink:href="#f2_14" transform="matrix(12,0,0,12,99.9,287.2)" />
<use xlink:href="#f2_1p" transform="matrix(12,0,0,12,114.9,287.2)" />
<use xlink:href="#f2_6" transform="matrix(12,0,0,12,122.7,287.2)" />
<use xlink:href="#f2_1q" transform="matrix(12,0,0,12,132.6,287.2)" />
<use xlink:href="#f2_z" transform="matrix(12,0,0,12,47.4,337.6)" />
<use xlink:href="#f3_3" transform="matrix(12,0,0,12,65,337.6)" />
<use xlink:href="#f2_1s" transform="matrix(12,0,0,12,83.2,337.6)" />
<use xlink:href="#f2_14" transform="matrix(12,0,0,12,99.2,337.6)" />
<use xlink:href="#f2_1p" transform="matrix(12,0,0,12,114.2,337.6)" />
<use xlink:href="#f2_a" transform="matrix(12,0,0,12,122,337.6)" />
<use xlink:href="#f2_1q" transform="matrix(12,0,0,12,132.3,337.6)" />
<use xlink:href="#f2_16" transform="matrix(12,0,0,12,47.4,388.1)" />
<use xlink:href="#f2_z" transform="matrix(12,0,0,12,53.7,388.1)" />
<use xlink:href="#f3_3" transform="matrix(12,0,0,12,71.4,388.1)" />
<use xlink:href="#f2_11" transform="matrix(12,0,0,12,89.5,388.1)" />
<use xlink:href="#f2_17" transform="matrix(12,0,0,12,101.5,388.1)" />
<use xlink:href="#f2_w" transform="matrix(12,0,0,12,112.6,388.1)" />
<use xlink:href="#f2_16" transform="matrix(12,0,0,12,126.5,388.1)" />
<use xlink:href="#f2_z" transform="matrix(12,0,0,12,132.8,388.1)" />
<use xlink:href="#f3_3" transform="matrix(12,0,0,12,150.5,388.1)" />
<use xlink:href="#f2_1s" transform="matrix(12,0,0,12,168.7,388.1)" />
<use xlink:href="#f2_17" transform="matrix(12,0,0,12,179.9,388.1)" />
<use xlink:href="#f2_14" transform="matrix(12,0,0,12,191,388.1)" />
<use xlink:href="#f2_6" transform="matrix(12,0,0,12,206,388.1)" />
<use xlink:href="#f2_h" transform="matrix(12,0,0,12,47.4,438.5)" />
<use xlink:href="#f2_6" transform="matrix(12,0,0,12,61.9,438.5)" />
<use xlink:href="#f2_b" transform="matrix(12,0,0,12,71.7,438.5)" />
<use xlink:href="#f2_9" transform="matrix(12,0,0,12,83.5,438.5)" />
<use xlink:href="#f2_6" transform="matrix(12,0,0,12,92.5,438.5)" />
<use xlink:href="#f2_5" transform="matrix(12,0,0,12,107.1,438.5)" />
<use xlink:href="#f2_t" transform="matrix(12,0,0,12,118.4,438.5)" />
<use xlink:href="#f2_7" transform="matrix(12,0,0,12,127,438.5)" />
<use xlink:href="#f2_y" transform="matrix(12,0,0,12,137.5,438.5)" />
<use xlink:href="#f2_6" transform="matrix(12,0,0,12,148.1,438.5)" />
<use xlink:href="#f2_j" transform="matrix(12,0,0,12,158,438.5)" />
<use xlink:href="#f2_u" transform="matrix(12,0,0,12,169.2,438.5)" />
<use xlink:href="#f4_l" transform="matrix(12,0,0,12,835.7,1269.6)" />
<use xlink:href="#f4_t" transform="matrix(12,0,0,12,844.9,1269.6)" />
</g>
<defs>
<path d="M235,0V81h64c0,0,17,0,31,4c0,0,15,3,25,13c0,0,10,10,16,30c0,0,6,19,6,53V997H255c0,0,-35,0,-57,-7c0,0,-24,-8,-38,-21c0,0,-15,-15,-21,-34c0,0,-8,-20,-11,-46L118,794H19v297H979V794H880l-11,95c0,0,-4,26,-10,46c0,0,-8,19,-21,34c0,0,-15,13,-38,21c0,0,-24,7,-58,7H620V181c0,0,0,-34,6,-53c0,0,5,-20,17,-30c0,0,10,-10,25,-13c0,0,13,-4,30,-4h64V0Z" 
id="f0_1s"
transform="scale(0.001,-0.001)" />

<path d="M31,0V81h3c0,0,25,0,47,4c0,0,21,3,38,14c0,0,16,11,25,32c0,0,9,20,9,55V987c0,0,-1,30,-11,49c0,0,-11,18,-27,29c0,0,-17,8,-35,12c0,0,-20,3,-36,3H26v81H383V909c0,0,0,-30,0,-64c0,0,0,-35,-3,-63c0,0,-4,-35,-7,-67h13c0,0,24,43,50,68c0,0,25,24,54,37c0,0,29,12,62,16c0,0,32,2,68,2c0,0,59,0,106,-17c0,0,47,-17,80,-53c0,0,32,-36,49,-91c0,0,16,-56,17,-133V189c0,0,0,-35,7,-56c0,0,5,-22,18,-33c0,0,12,-12,33,-15c0,0,18,-4,45,-4h4V0H640V503c0,0,-1,48,-6,88c0,0,-7,38,-21,64c0,0,-15,25,-38,40c0,0,-24,14,-57,14c0,0,-38,-1,-64,-20c0,0,-26,-19,-40,-51c0,0,-16,-33,-22,-76c0,0,-7,-44,-7,-90V181c0,0,0,-33,8,-52c0,0,7,-20,22,-30c0,0,13,-11,35,-14c0,0,19,-4,45,-4h5V0Z" 
id="f0_u"
transform="scale(0.001,-0.001)" />

<path d="M574,490c0,0,0,58,-6,105c0,0,-8,45,-22,78c0,0,-15,32,-37,49c0,0,-24,17,-56,17c0,0,-65,0,-103,-63c0,0,-38,-64,-38,-186ZM468,-14c0,0,-98,0,-171,27c0,0,-75,28,-125,82c0,0,-50,54,-75,133c0,0,-26,76,-25,177c0,0,-1,107,25,189c0,0,25,80,74,136c0,0,48,53,119,82c0,0,70,26,161,26c0,0,82,0,149,-23c0,0,65,-24,112,-70c0,0,46,-47,71,-115c0,0,25,-69,25,-159V392H308c0,0,0,-77,15,-132c0,0,14,-55,40,-91c0,0,26,-36,63,-53c0,0,37,-17,85,-17c0,0,1,0,2,0c8,0,41,1,71,10c0,0,34,9,61,26c0,0,28,16,48,40c0,0,21,22,34,48c0,0,41,-22,41,-75c0,0,0,-32,-18,-61c0,0,-18,-31,-55,-53C695,34,658,12,602,0c0,0,-57,-14,-134,-14Z" 
id="f0_5"
transform="scale(0.001,-0.001)" />

<path d="M31,0V81h3c0,0,25,0,47,4c0,0,21,3,38,14c0,0,16,11,25,32c0,0,9,20,9,55V639c0,0,0,32,-8,51c0,0,-8,19,-22,31c0,0,-15,9,-35,14c0,0,-20,3,-45,3H38v81H359L379,710h7c0,0,24,43,50,69c0,0,25,25,54,39c0,0,29,13,62,17c0,0,32,3,68,3c0,0,59,0,106,-17c0,0,47,-17,80,-53c0,0,32,-36,49,-91c0,0,16,-56,17,-133V189c0,0,0,-35,7,-56c0,0,5,-22,18,-33c0,0,12,-12,33,-15c0,0,18,-4,45,-4h4V0H640V503c0,0,-1,48,-6,88c0,0,-7,38,-21,64c0,0,-15,25,-38,40c0,0,-24,14,-57,14c0,0,-38,-1,-64,-20c0,0,-26,-19,-40,-51c0,0,-16,-33,-22,-76c0,0,-7,-44,-7,-90V181c0,0,0,-33,8,-52c0,0,7,-20,22,-30c0,0,13,-11,35,-14c0,0,19,-4,45,-4h5V0Z" 
id="f0_d"
transform="scale(0.001,-0.001)" />

<path d="M373,0L122,665c0,0,-9,21,-18,35c0,0,-11,15,-26,23c0,0,-15,7,-33,12c0,0,-20,3,-45,3v81H474V738H410c0,0,-24,0,-37,-12c0,0,-15,-14,-14,-37c0,0,-1,-19,5,-36c0,0,5,-19,9,-31L475,333c0,0,18,-49,33,-98c0,0,13,-49,21,-88c0,0,3,18,10,42c0,0,7,23,14,47c0,0,6,21,12,41c0,0,6,18,8,26L677,609c0,0,6,21,12,43c0,0,5,20,5,42c0,0,0,24,-17,35c0,0,-18,9,-43,9H590v81H926V738H895c0,0,-15,-1,-27,-4c0,0,-13,-4,-24,-15c0,0,-13,-13,-23,-33c0,0,-12,-23,-25,-59L574,0Z" 
id="f0_1b"
transform="scale(0.001,-0.001)" />

<path d="M31,0V81h4c0,0,25,0,48,4c0,0,21,3,37,16c0,0,16,11,25,33c0,0,7,20,8,57V634c0,0,0,33,-8,55c0,0,-8,20,-22,31c0,0,-15,11,-35,15c0,0,-20,3,-45,3H38v81H347L377,700h8c0,0,14,34,33,60c0,0,17,26,43,43c0,0,24,16,59,26c0,0,34,7,81,8c0,0,90,0,132,-31c0,0,43,-33,43,-93c0,0,-1,-71,-51,-109c0,0,-50,-39,-141,-39c0,0,-1,0,-2,0c0,0,-1,32,-4,56c0,0,-4,23,-12,39c0,0,-9,16,-23,24c0,0,-15,8,-36,8c0,0,-28,0,-47,-13c0,0,-20,-14,-33,-34c0,0,-14,-22,-22,-49c0,0,-9,-27,-13,-54c0,0,-6,-28,-6,-52c0,0,0,-25,0,-42V184c0,0,0,-34,9,-54c0,0,7,-22,22,-32c0,0,13,-10,34,-13c0,0,18,-4,41,-4h49V0Z" 
id="f0_6"
transform="scale(0.001,-0.001)" />

<path d="M26,0V81H44c0,0,16,0,37,4c0,0,17,3,35,13c0,0,15,10,26,30c0,0,10,19,11,53V645c0,0,-1,29,-11,49c0,0,-11,18,-27,28c0,0,-17,9,-35,13c0,0,-20,3,-36,3H26v81H385V181c0,0,0,-34,11,-53c0,0,10,-20,27,-30c0,0,16,-10,35,-13c0,0,19,-4,36,-4h18V0ZM261,956c0,0,-28,0,-51,7c0,0,-24,7,-41,20c0,0,-18,13,-27,35c0,0,-11,20,-11,49c0,0,0,28,11,50c0,0,9,21,27,34c0,0,17,12,41,19c0,0,23,6,51,6c0,0,25,0,50,-6c0,0,23,-7,42,-19c0,0,18,-13,29,-34c0,0,10,-22,10,-50c0,0,0,-29,-10,-49c0,0,-11,-22,-29,-35c0,0,-19,-13,-42,-20c0,0,-25,-7,-50,-7Z" 
id="f0_7"
transform="scale(0.001,-0.001)" />

<path d="M29,0V81H63c0,0,16,0,35,4c0,0,18,3,36,13c0,0,15,10,26,30c0,0,10,19,11,53V715H35V819H171v57c0,0,-1,70,18,127c0,0,18,54,57,94c0,0,37,38,97,58c0,0,59,20,140,20c0,0,74,-1,123,-8c0,0,49,-10,78,-24c0,0,29,-16,42,-36c0,0,12,-21,12,-44c0,0,-1,-52,-46,-75c0,0,-47,-24,-142,-24c0,0,-1,18,-4,40c0,0,-4,21,-13,40c0,0,-9,19,-23,32c0,0,-15,12,-36,12c0,0,-20,0,-32,-10c0,0,-15,-11,-22,-32c0,0,-10,-23,-13,-58c0,0,-3,-35,-3,-85V819H614V715H404V181c0,0,0,-34,11,-53c0,0,9,-20,27,-30c0,0,15,-10,35,-13c0,0,18,-4,35,-4h71V0Z" 
id="f0_e"
transform="scale(0.001,-0.001)" />

<path d="M41,-366v89c0,0,79,0,136,19c0,0,55,19,95,55c0,0,38,35,64,86c0,0,24,50,43,111L104,665c0,0,-9,21,-20,34c0,0,-12,12,-24,19c0,0,-14,7,-28,9c0,0,-16,1,-32,2v90H436V738c0,0,-45,0,-70,-11c0,0,-27,-13,-27,-46c0,0,0,-13,6,-30c0,0,5,-18,9,-29c0,0,14,-33,29,-69c0,0,13,-39,28,-76c0,0,13,-38,26,-73c0,0,12,-35,23,-62c0,0,10,-29,18,-52c0,0,7,-24,13,-42c0,0,4,-20,7,-35c0,0,3,-18,5,-32c0,0,1,15,6,35c0,0,3,18,9,36c0,0,5,17,11,31c0,0,5,14,7,20L637,602c0,0,2,7,6,18c0,0,2,10,5,20c0,0,2,10,3,20c0,0,1,10,1,17c0,0,0,34,-29,48c0,0,-30,12,-82,13v81H885V738c0,0,-24,0,-41,-5c0,0,-17,-6,-32,-18c0,0,-15,-14,-26,-35c0,0,-12,-21,-24,-53c0,0,-26,-76,-56,-156c0,0,-29,-79,-58,-158c0,0,-30,-80,-59,-158C589,155,559,75,532,0c0,0,-28,-73,-51,-129c0,0,-24,-56,-50,-97c0,0,-27,-42,-59,-68c0,0,-33,-27,-74,-42c0,0,-43,-17,-99,-23c0,0,-57,-7,-132,-7Z" 
id="f0_g"
transform="scale(0.001,-0.001)" />

<path d="M371,-14c0,0,-52,0,-93,13c0,0,-42,11,-71,40c0,0,-29,27,-44,74c0,0,-16,46,-16,113V715H32v78c0,0,49,0,88,19c0,0,38,19,62,45c0,0,46,49,70,152H379V819H574V715H379V242c0,0,0,-70,24,-102c0,0,22,-32,75,-32c0,0,1,0,2,0c0,0,29,0,57,5c0,0,27,3,51,9V23c0,0,-13,-6,-32,-13C556,10,534,4,508,0c0,0,-28,-7,-62,-10c0,0,-35,-4,-75,-4Z" 
id="f0_4"
transform="scale(0.001,-0.001)" />

<path d="M392,96c0,0,32,0,60,14c0,0,25,13,46,38c0,0,18,26,29,62c0,0,9,35,9,79V403H468c0,0,-47,-1,-77,-13c0,0,-31,-13,-50,-34c0,0,-19,-22,-27,-53c0,0,-8,-33,-8,-74c0,0,-1,-67,21,-100c0,0,21,-33,65,-33ZM314,-14c-2,0,-3,0,-5,0c0,0,-51,0,-94,14c0,0,-44,15,-76,46c0,0,-33,32,-52,79c0,0,-19,47,-18,111c0,0,-1,125,85,185c0,0,85,61,257,61H536v86c0,0,0,38,-3,71c0,0,-3,32,-12,57c0,0,-11,23,-29,37c0,0,-19,11,-50,12c0,0,-30,0,-49,-12c0,0,-20,-13,-32,-34c0,0,-13,-22,-16,-52c0,0,-6,-31,-6,-67h-1c-11,0,-105,1,-153,24c0,0,-53,23,-52,79c0,0,-1,41,25,71c0,0,24,29,68,49c0,0,43,18,100,27c0,0,57,8,122,8c0,0,80,0,141,-13c0,0,59,-15,100,-45c0,0,38,-30,59,-80c0,0,20,-50,20,-121V189c0,0,0,-31,6,-52c0,0,4,-21,15,-33c0,0,9,-12,28,-17c0,0,15,-6,39,-6c1,0,3,0,4,0h6V0H582L550,105H536c0,0,-26,-30,-47,-53c0,0,-23,-24,-48,-38C441,14,415,0,384,-6c0,0,-30,-8,-70,-8Z" 
id="f0_3"
transform="scale(0.001,-0.001)" />

<path d="M674,452L593,703c0,0,-9,25,-16,55c0,0,-10,28,-18,58c0,0,-8,29,-16,60c0,0,-9,29,-14,56c0,0,-7,-24,-16,-51c0,0,-9,-28,-18,-57c0,0,-11,-29,-21,-58c0,0,-10,-29,-19,-56L365,452ZM6,0V81H25c0,0,20,0,37,5c0,0,16,4,31,17c0,0,14,12,28,34c0,0,12,20,26,55l331,899H688L1007,191c0,0,11,-33,24,-53c0,0,12,-22,27,-34c0,0,13,-12,30,-17c0,0,15,-6,32,-6c1,0,2,0,3,0h27V0H646V81h60c0,0,10,0,23,4c0,0,11,2,21,10c0,0,9,7,15,18c0,0,6,12,6,27c0,0,0,19,-4,36c0,0,-5,16,-9,30L704,359H333L289,228c0,0,-7,-20,-12,-44c0,0,-7,-26,-7,-44c0,0,0,-15,6,-26c0,0,5,-11,16,-18c0,0,9,-8,22,-11c0,0,12,-4,25,-4h65V0Z" 
id="f0_1a"
transform="scale(0.001,-0.001)" />

<path d="M231,0V414c0,0,0,251,82,355c0,0,92,115,307,116c0,0,207,-1,307,-116c0,0,83,-95,83,-355V0H803V414c0,0,0,150,-35,201c0,0,-42,59,-148,59c0,0,-102,0,-147,-59c0,0,-35,-47,-35,-201V0Z" 
id="f1_3"
transform="scale(0.001,-0.001)" />

<path d="M562,-212c0,0,-127,52,-217,121c0,0,-91,68,-147,155c0,0,-58,87,-84,193c0,0,-27,104,-27,229c0,0,0,123,27,228c0,0,26,104,84,191c0,0,56,86,147,155c0,0,90,68,217,119v-96c0,0,-70,-47,-115,-112c0,0,-45,-66,-70,-143c0,0,-26,-78,-35,-164c0,0,-10,-88,-9,-178c0,0,-1,-91,9,-179c0,0,9,-88,35,-165c0,0,25,-79,70,-143c0,0,45,-67,115,-113v-98Z" 
id="f0_16"
transform="scale(0.001,-0.001)" />

<path d="M527,93c0,0,50,0,87,11c0,0,36,11,58,37c0,0,23,25,33,65c0,0,10,40,10,98c0,0,0,56,-9,98c0,0,-10,41,-31,68c0,0,-22,27,-57,40c0,0,-35,14,-88,14H426V93ZM484,617c0,0,54,0,90,11c0,0,34,11,56,35c0,0,21,23,30,61c0,0,9,36,9,89c0,0,0,52,-10,87c0,0,-10,35,-32,57c0,0,-23,21,-59,31c0,0,-35,9,-87,9H426V617ZM538,0c-1,0,-2,0,-3,0H43V81h62c0,0,17,0,32,4c0,0,14,3,25,13c0,0,10,10,17,30c0,0,5,19,6,53V912c0,0,-1,30,-6,50c0,0,-7,19,-17,29c0,0,-11,10,-25,15c0,0,-15,3,-32,4H43v81H489c0,0,217,0,327,-68c0,0,110,-67,110,-210c0,0,0,-51,-14,-88c0,0,-15,-38,-39,-65c0,0,-26,-28,-61,-47c0,0,-35,-19,-79,-33v-7c0,0,53,-14,97,-37c0,0,43,-24,76,-57c0,0,31,-35,49,-79c0,0,16,-45,17,-101c0,0,0,-151,-110,-224C862,75,754,0,538,0Z" 
id="f0_i"
transform="scale(0.001,-0.001)" />

<path d="M-6,356V465H771V356Z" 
id="f0_1i"
transform="scale(0.001,-0.001)" />

<path d="M612,-14c0,0,-133,0,-232,39c0,0,-100,41,-164,115c0,0,-67,73,-99,177c0,0,-33,103,-33,230c0,0,0,124,34,227c0,0,33,103,100,176c0,0,65,73,165,115c0,0,98,41,228,41c0,0,87,0,154,-13c0,0,64,-15,108,-38c0,0,43,-24,65,-56c0,0,21,-34,21,-70c0,0,0,-29,-12,-52c0,0,-13,-25,-36,-43c0,0,-25,-18,-61,-28c0,0,-36,-10,-82,-10c0,0,0,38,-8,76c0,0,-9,37,-27,68c0,0,-21,30,-53,50c0,0,-32,19,-79,19c0,0,-74,-1,-123,-31c0,0,-51,-31,-80,-90c0,0,-30,-59,-44,-144c0,0,-13,-87,-13,-197c0,0,-1,-111,16,-193c0,0,16,-83,53,-138c0,0,36,-55,96,-82c0,0,56,-27,140,-27c1,0,2,0,3,0c0,0,56,0,100,13c0,0,42,12,78,34c0,0,34,21,60,47c0,0,25,25,45,51c0,0,11,-9,19,-27c0,0,7,-20,7,-39c0,0,-1,-32,-17,-67c0,0,-17,-35,-58,-65C883,54,842,23,777,4c0,0,-68,-18,-165,-18Z" 
id="f0_h"
transform="scale(0.001,-0.001)" />

<path d="M49,-212v98c0,0,70,46,116,113c0,0,44,64,70,143c0,0,24,77,34,165c0,0,9,88,9,179c0,0,0,90,-9,178c0,0,-10,86,-34,164c0,0,-26,77,-70,143c0,0,-46,65,-116,112v96c0,0,127,-51,218,-119c0,0,90,-69,148,-155c0,0,56,-87,83,-191c0,0,25,-105,26,-228c0,0,-1,-125,-26,-229c0,0,-27,-106,-83,-193c0,0,-58,-87,-148,-155c0,0,-91,-69,-218,-121Z" 
id="f0_17"
transform="scale(0.001,-0.001)" />

<path d="M96,344V451H758V344Zm0,296V747H758V640Z" 
id="f0_1g"
transform="scale(0.001,-0.001)" />

<path d="M357,-14c-1,0,-3,0,-4,0c0,0,-83,0,-141,14c0,0,-60,12,-96,36c0,0,-37,23,-53,57c0,0,-17,32,-17,70c0,0,0,37,14,61c0,0,15,22,37,35c0,0,21,12,46,17c0,0,25,3,45,4c0,0,-1,-49,12,-86c0,0,12,-39,33,-64c0,0,21,-27,53,-41c0,0,28,-14,64,-14c1,0,2,0,3,0c0,0,39,0,68,8c0,0,28,7,47,23c0,0,18,14,27,34c0,0,9,17,9,39c0,0,0,25,-9,46c0,0,-10,18,-31,37c0,0,-22,16,-57,34c0,0,-38,16,-91,35c0,0,-62,21,-109,46c0,0,-48,24,-79,56c0,0,-33,30,-50,71c0,0,-17,38,-17,91c0,0,0,60,24,106c0,0,22,46,66,76c0,0,44,30,104,45c0,0,61,14,134,15c0,0,73,0,123,-12c0,0,50,-13,83,-33c0,0,32,-20,47,-45c0,0,14,-26,15,-52c0,0,0,-51,-36,-78c0,0,-37,-27,-120,-27c0,0,0,76,-33,119c0,0,-35,41,-101,41c0,0,-25,0,-47,-6c0,0,-24,-5,-40,-17c0,0,-17,-13,-26,-30c0,0,-11,-18,-11,-41c0,0,-1,-26,10,-44c0,0,9,-20,33,-37c0,0,23,-18,63,-36c0,0,40,-18,103,-39c0,0,50,-18,94,-40c0,0,43,-24,74,-53c0,0,30,-30,48,-67c0,0,16,-39,17,-86c0,0,-1,-65,-22,-114c0,0,-22,-50,-65,-84C598,56,555,21,494,4c0,0,-60,-18,-137,-18Z" 
id="f0_s"
transform="scale(0.001,-0.001)" />

<path d="M232,-11c0,0,-26,0,-49,7c0,0,-24,4,-40,19c0,0,-17,13,-27,37c0,0,-10,23,-9,58c0,0,-1,34,9,59c0,0,10,22,27,37c0,0,16,14,40,20c0,0,23,5,49,6c0,0,25,-1,48,-6c0,0,23,-6,40,-20c0,0,16,-15,28,-37c0,0,9,-25,9,-59c0,0,0,-35,-9,-58c0,0,-12,-24,-28,-37C320,15,303,0,280,-4c0,0,-23,-7,-48,-7Z" 
id="f0_n"
transform="scale(0.001,-0.001)" />

<path d="M508,76c11,0,67,1,107,12c0,0,45,12,74,39c0,0,27,25,41,68c0,0,12,42,12,104c0,0,0,59,-11,104c0,0,-11,43,-38,73c0,0,-28,28,-72,43c0,0,-45,14,-112,14H357V76H508ZM465,609c12,0,70,1,110,12c0,0,45,12,72,38c0,0,26,24,39,64c0,0,11,39,11,95c0,0,-1,56,-13,94c0,0,-13,36,-41,60c0,0,-28,22,-73,33c0,0,-46,10,-110,10H357V609H463c0,0,1,0,2,0ZM58,0V64H78c0,0,25,0,49,4c0,0,22,3,39,16c0,0,17,11,27,32c0,0,10,21,10,58V923c0,0,0,33,-10,54c0,0,-11,20,-27,32c0,0,-18,11,-40,14c0,0,-24,3,-48,3H58v65H468c0,0,197,0,295,-66c0,0,97,-66,97,-207c0,0,0,-52,-14,-91c0,0,-15,-39,-40,-68c0,0,-26,-29,-60,-48c0,0,-35,-20,-75,-34v-6c0,0,51,-9,95,-30c0,0,43,-22,75,-56c0,0,30,-35,47,-82c0,0,17,-49,18,-108c0,0,0,-149,-97,-221C809,74,711,0,513,0Z" 
id="f2_11"
transform="scale(0.001,-0.001)" />

<path d="M-6,365v90H771V365Z" 
id="f2_w"
transform="scale(0.001,-0.001)" />

<path d="M557,-14c-2,0,-4,0,-6,0c0,0,-115,0,-200,39c0,0,-87,41,-145,115c0,0,-60,73,-89,177c0,0,-30,103,-30,230c0,0,0,124,32,227c0,0,31,103,93,176c0,0,61,73,153,115c0,0,92,41,212,41c0,0,79,0,137,-12c0,0,57,-14,96,-37c0,0,38,-24,58,-54c0,0,18,-32,18,-68c0,0,0,-26,-9,-44c0,0,-11,-20,-29,-34c0,0,-18,-15,-42,-21c0,0,-23,-8,-49,-8c-1,0,-2,0,-4,0c0,0,0,36,-9,71c0,0,-10,34,-30,63c0,0,-22,28,-55,46c0,0,-35,16,-85,17c0,0,-86,0,-147,-31c0,0,-60,-33,-98,-93c0,0,-39,-62,-55,-150c0,0,-17,-89,-17,-204c0,0,0,-102,18,-187c0,0,17,-85,56,-146c0,0,39,-62,99,-95c0,0,59,-33,144,-33c0,0,56,0,100,11c0,0,42,10,75,28c0,0,32,18,58,42c0,0,25,22,44,49c0,0,12,-9,21,-23c0,0,8,-15,8,-37c0,0,0,-29,-19,-59c0,0,-20,-31,-61,-55C800,42,759,17,698,1c0,0,-59,-15,-141,-15Z" 
id="f2_1s"
transform="scale(0.001,-0.001)" />

<path d="M99,350v90H755V350Zm0,300v91H755V650Z" 
id="f2_14"
transform="scale(0.001,-0.001)" />

<path d="M477,-194c0,0,-54,0,-95,15c0,0,-42,16,-69,44c0,0,-29,28,-42,70c0,0,-15,40,-14,90V291c0,0,0,47,-14,78c0,0,-15,29,-39,48c0,0,-25,18,-57,26c0,0,-33,8,-71,8v66c0,0,1,0,3,0c9,0,40,0,68,7c0,0,32,7,57,27c0,0,24,17,39,48c0,0,14,30,14,77V943c0,0,0,104,56,161c0,0,54,57,164,57H577v-66H532c0,0,-69,0,-96,-40c0,0,-29,-41,-29,-120V674c0,0,-1,-76,-42,-124c0,0,-43,-51,-129,-64v-2c0,0,88,-15,130,-64c0,0,41,-49,41,-125V31c0,0,0,-78,29,-119c0,0,27,-41,94,-41q1,0,2,0h45v-65Z" 
id="f2_1p"
transform="scale(0.001,-0.001)" />

<path d="M586,481c0,0,0,60,-9,111c0,0,-9,50,-29,85c0,0,-19,36,-51,56c0,0,-33,18,-79,19c0,0,-87,-1,-133,-69c0,0,-46,-69,-46,-202ZM439,-14c0,0,-83,0,-149,27c0,0,-66,28,-112,82c0,0,-46,53,-69,132c0,0,-25,77,-25,177c0,0,0,213,88,322c0,0,88,108,251,108c0,0,73,0,133,-23c0,0,58,-24,100,-69c0,0,41,-46,63,-114c0,0,21,-69,22,-159V399H233c0,0,0,-84,15,-143c0,0,15,-61,44,-99c0,0,28,-40,71,-57c0,0,40,-19,93,-19c1,0,2,0,4,0c0,0,38,0,73,9c0,0,33,9,62,24c0,0,26,14,48,34c0,0,21,18,35,40c0,0,10,-4,20,-19c0,0,9,-15,9,-33c0,0,0,-24,-16,-49c0,0,-17,-27,-50,-50C641,37,607,14,557,0c0,0,-50,-14,-118,-14Z" 
id="f2_6"
transform="scale(0.001,-0.001)" />

<path d="M46,-234v64c0,0,74,23,110,58c0,0,34,35,35,79c0,0,-1,15,-8,26c0,0,-9,8,-21,17c0,0,-13,6,-27,15c0,0,-15,7,-27,18c0,0,-13,9,-21,26c0,0,-8,14,-8,38c0,0,0,43,29,67c0,0,28,23,71,23c0,0,23,-1,45,-8c0,0,20,-9,37,-26c0,0,16,-17,26,-41c0,0,9,-27,9,-58c0,0,0,-48,-13,-93c0,0,-14,-46,-44,-84c0,0,-30,-40,-77,-70c0,0,-49,-31,-116,-51Z" 
id="f2_1e"
transform="scale(0.001,-0.001)" />

<path d="M442,64c0,0,56,0,97,23c0,0,38,22,64,66c0,0,24,43,36,108c0,0,9,65,10,150c0,0,0,85,-11,149c0,0,-11,64,-36,108c0,0,-25,42,-64,64c0,0,-41,21,-98,21c0,0,-58,0,-97,-21c0,0,-39,-22,-64,-64c0,0,-25,-44,-36,-108c0,0,-11,-64,-11,-149c0,0,0,-85,11,-150c0,0,11,-65,37,-108c0,0,24,-44,65,-66c0,0,38,-23,97,-23Zm-3,-78c0,0,-83,0,-149,25c0,0,-66,26,-111,79c0,0,-47,52,-70,134c0,0,-25,79,-25,187c0,0,0,213,91,319c0,0,90,103,268,104c0,0,82,0,149,-25c0,0,65,-26,111,-79c0,0,46,-53,71,-132c0,0,23,-80,23,-187c0,0,0,-216,-91,-321C706,90,614,-14,439,-14Z" 
id="f2_7"
transform="scale(0.001,-0.001)" />

<path d="M76,-194v65h47c4,0,68,1,96,41c0,0,28,41,29,119V295c0,0,-1,76,41,125c0,0,39,49,128,64v2c0,0,-86,13,-127,64c0,0,-42,48,-42,124V935c0,0,-1,79,-29,120c0,0,-29,40,-97,40H76v66H178c0,0,108,0,164,-57c0,0,54,-57,55,-161V676c0,0,-1,-47,14,-77c0,0,14,-31,39,-48c0,0,23,-20,57,-27c0,0,29,-7,65,-7c2,0,4,0,5,0V451c0,0,-38,0,-70,-8c0,0,-34,-8,-57,-26c0,0,-25,-19,-39,-48c0,0,-15,-31,-14,-78V25c0,0,0,-50,-14,-90c0,0,-15,-42,-42,-70c0,0,-28,-28,-69,-44c0,0,-41,-15,-94,-15Z" 
id="f2_1q"
transform="scale(0.001,-0.001)" />

<path d="M683,442L588,709c0,0,-25,68,-43,127c0,0,-21,59,-33,114c0,0,-6,-28,-12,-53c0,0,-8,-26,-16,-53c0,0,-9,-26,-19,-55c0,0,-10,-31,-23,-66L338,442ZM0,0V64H29c0,0,1,0,3,0c6,0,23,1,35,5c0,0,16,5,28,18c0,0,12,13,25,37c0,0,11,22,25,60l339,907H604L949,145c0,0,8,-23,19,-39c0,0,8,-16,21,-25c0,0,12,-10,29,-13c0,0,17,-4,39,-4h20V0H657V64h35c0,0,92,0,92,73c0,0,0,12,-3,26c0,0,-4,14,-10,31L710,365H309L251,204c0,0,-8,-18,-11,-35c0,0,-4,-18,-4,-30c0,0,0,-40,26,-57c0,0,24,-18,76,-18h35V0Z" 
id="f2_z"
transform="scale(0.001,-0.001)" />

<path d="M197,0V442c0,0,0,220,92,332c0,0,90,110,270,111c0,0,180,-1,271,-111c0,0,91,-112,91,-332V0H793V423c0,0,-1,181,-55,261c0,0,-55,78,-179,78c0,0,-124,0,-179,-78c0,0,-55,-80,-55,-261V0Z" 
id="f3_3"
transform="scale(0.001,-0.001)" />

<path d="M480,-194c0,0,-106,41,-180,101c0,0,-75,59,-122,141c0,0,-48,82,-69,191c0,0,-22,107,-22,245c0,0,0,137,22,246c0,0,21,106,69,188c0,0,47,82,122,142c0,0,74,59,180,101v-69c0,0,-79,-48,-125,-114c0,0,-48,-67,-71,-146c0,0,-24,-80,-30,-168c0,0,-9,-90,-8,-180c0,0,-1,-92,8,-180c0,0,6,-88,30,-167c0,0,23,-80,71,-146c0,0,46,-68,125,-115v-70Z" 
id="f2_16"
transform="scale(0.001,-0.001)" />

<path d="M49,-194v70c0,0,79,47,125,115c0,0,45,66,71,146c0,0,23,79,31,167c0,0,7,88,7,180c0,0,0,90,-7,180c0,0,-8,88,-31,168c0,0,-26,79,-71,146c0,0,-46,66,-125,114v69c0,0,105,-42,180,-101c0,0,75,-60,122,-142c0,0,47,-82,69,-188c0,0,21,-109,22,-246c0,0,-1,-138,-22,-245c0,0,-22,-109,-69,-191c0,0,-47,-82,-122,-141c0,0,-75,-60,-180,-101Z" 
id="f2_17"
transform="scale(0.001,-0.001)" />

<path d="M348,79c0,0,46,0,85,15c0,0,36,14,64,42c0,0,25,27,40,66c0,0,14,39,14,87V412H454c0,0,-65,0,-109,-14c0,0,-44,-13,-70,-36c0,0,-27,-25,-39,-59c0,0,-12,-35,-11,-80c0,0,0,-73,30,-108c0,0,29,-36,93,-36ZM313,-14c0,0,-50,0,-94,14c0,0,-44,14,-75,45c0,0,-33,30,-50,77c0,0,-18,47,-18,109c0,0,0,123,87,182c0,0,85,59,261,60H551v93c0,0,0,42,-4,78c0,0,-5,34,-20,60c0,0,-15,26,-42,40c0,0,-28,14,-75,14c0,0,-44,0,-71,-12c0,0,-29,-13,-43,-35c0,0,-16,-23,-21,-53c0,0,-6,-31,-5,-66c0,0,-64,0,-96,21c0,0,-34,21,-34,75c0,0,0,39,22,67c0,0,21,28,60,45c0,0,36,17,87,26c0,0,49,7,107,8c0,0,69,0,122,-13c0,0,52,-15,87,-46c0,0,34,-31,53,-81c0,0,17,-52,17,-124V174c0,0,0,-33,5,-53c0,0,6,-22,17,-34c0,0,10,-12,30,-18c0,0,15,-5,38,-5c2,0,3,0,5,0h4V0H588L564,131H551c0,0,-24,-33,-46,-59c0,0,-22,-27,-49,-46C456,26,429,6,395,-3c0,0,-35,-11,-82,-11Z" 
id="f2_a"
transform="scale(0.001,-0.001)" />

<path d="M58,0V64H78c0,0,25,0,49,4c0,0,22,3,39,16c0,0,17,11,27,32c0,0,10,21,10,58V923c0,0,0,33,-10,54c0,0,-11,20,-27,32c0,0,-18,11,-40,14c0,0,-24,3,-48,3H58v65H503v-65H483c0,0,-26,0,-49,-3c0,0,-24,-4,-39,-15c0,0,-18,-13,-27,-34c0,0,-11,-21,-11,-57V608H854V917c0,0,0,36,-10,57c0,0,-10,21,-26,34c0,0,-18,11,-40,15c0,0,-24,3,-49,3H709v65h444v-65h-19c0,0,-26,0,-49,-3c0,0,-23,-4,-40,-15c0,0,-17,-13,-27,-34c0,0,-10,-21,-9,-57V166c0,0,0,-33,10,-53c0,0,10,-22,27,-32c0,0,16,-10,40,-13c0,0,22,-4,48,-4h19V0H709V64h20c0,0,25,0,49,4c0,0,22,3,40,16c0,0,16,11,26,32c0,0,10,21,10,58V532H357V174c0,0,0,-37,11,-58c0,0,9,-21,27,-32c0,0,15,-13,39,-16c0,0,23,-4,49,-4h20V0Z" 
id="f2_h"
transform="scale(0.001,-0.001)" />

<path d="M43,0V64H55c0,0,26,0,49,4c0,0,23,3,40,16c0,0,16,11,27,32c0,0,10,21,10,58V650c0,0,0,33,-10,55c0,0,-11,20,-28,31c0,0,-17,11,-39,15c0,0,-24,3,-49,4H51v64H298L318,695h7c0,0,23,42,51,70c0,0,25,27,56,43c0,0,29,14,63,21c0,0,32,5,69,5c0,0,60,-1,108,-17c0,0,47,-18,81,-54c0,0,32,-37,50,-93c0,0,17,-58,18,-135V174c0,0,0,-37,9,-58c0,0,7,-21,23,-32c0,0,16,-13,38,-16c0,0,21,-4,47,-4h5V0H677V527c0,0,0,50,-9,89c0,0,-10,39,-29,66c0,0,-20,26,-52,41c0,0,-33,13,-78,13c0,0,-53,0,-88,-20c0,0,-36,-20,-57,-54c0,0,-22,-35,-31,-79c0,0,-10,-45,-9,-94V166c0,0,0,-33,10,-53c0,0,10,-22,27,-32c0,0,16,-10,40,-13c0,0,22,-4,48,-4h5V0Z" 
id="f2_b"
transform="scale(0.001,-0.001)" />

<path d="M433,-14c0,0,-77,0,-141,23c0,0,-64,23,-110,74c0,0,-46,50,-72,130c0,0,-26,79,-26,192c0,0,0,122,26,205c0,0,26,82,72,132c0,0,46,49,108,71c0,0,61,21,134,21c0,0,47,0,96,-9c0,0,47,-10,85,-29c0,0,38,-19,62,-49c0,0,23,-30,24,-69c0,0,0,-54,-35,-74c0,0,-35,-22,-102,-22c0,0,0,35,-6,68c0,0,-6,32,-20,56c0,0,-15,24,-39,38c0,0,-26,14,-65,14c0,0,-44,0,-79,-16c0,0,-35,-18,-61,-57c0,0,-26,-40,-39,-108c0,0,-13,-69,-13,-170c0,0,-1,-164,54,-243c0,0,54,-80,177,-80h1c6,0,72,1,123,30c0,0,52,30,79,77c0,0,11,-10,19,-24c0,0,7,-15,7,-36c0,0,0,-27,-16,-52c0,0,-17,-26,-49,-47C627,32,594,10,546,0c0,0,-48,-14,-113,-14Z" 
id="f2_9"
transform="scale(0.001,-0.001)" />

<path d="M518,83c0,0,50,0,86,21c0,0,35,21,58,63c0,0,23,41,33,104c0,0,10,61,11,142c0,0,-1,80,-11,142c0,0,-10,60,-33,101c0,0,-23,40,-58,60c0,0,-38,20,-88,20c0,0,-60,0,-99,-19c0,0,-41,-20,-64,-61c0,0,-24,-40,-34,-101c0,0,-10,-62,-10,-144c0,0,0,-80,10,-141c0,0,10,-62,35,-103c0,0,23,-42,64,-63c0,0,39,-21,100,-21ZM28,-366v64H40c0,0,25,0,49,4c0,0,22,3,39,16c0,0,17,11,27,33c0,0,10,21,10,58V650c0,0,0,33,-10,55c0,0,-11,20,-27,31c0,0,-18,11,-40,15c0,0,-24,3,-48,4H20v64H287L303,681h6c0,0,16,34,39,63c0,0,21,28,50,49c0,0,27,19,64,31c0,0,36,9,80,10c0,0,75,0,134,-25c0,0,58,-26,98,-76c0,0,38,-53,60,-132c0,0,20,-80,20,-190c0,0,0,-111,-20,-191c0,0,-22,-80,-60,-133c0,0,-40,-53,-98,-77c0,0,-57,-24,-131,-24c-1,0,-2,0,-3,0h-2c-8,0,-46,1,-77,10c0,0,-37,8,-65,26c0,0,-29,18,-50,43c0,0,-23,24,-39,54h-3c0,0,0,-39,0,-73c0,0,0,-15,0,-30c0,0,0,-15,0,-28c0,0,0,-14,0,-24c0,0,0,-11,0,-17V-199c0,0,0,-33,10,-54c0,0,10,-21,28,-31c0,0,17,-11,41,-14c0,0,23,-4,49,-4h5v-64Z" 
id="f2_5"
transform="scale(0.001,-0.001)" />

<path d="M51,0V64h4c0,0,26,0,49,4c0,0,23,3,40,16c0,0,16,11,27,32c0,0,10,21,10,58V650c0,0,0,33,-10,55c0,0,-11,20,-28,31c0,0,-17,11,-39,15c0,0,-24,3,-49,4H51v64H286L315,668h7c0,0,14,34,31,65c0,0,15,29,39,53c0,0,22,22,56,35c0,0,33,12,84,13c0,0,83,0,124,-29c0,0,41,-30,41,-82c0,0,0,-24,-8,-44c0,0,-9,-20,-25,-34c0,0,-17,-15,-44,-23c0,0,-27,-8,-66,-8c0,0,0,63,-18,92c0,0,-18,27,-62,27c0,0,-29,0,-51,-15c0,0,-22,-18,-39,-43c0,0,-17,-27,-28,-61c0,0,-13,-35,-19,-70c0,0,-8,-37,-10,-73c0,0,-4,-35,-3,-64V166c0,0,0,-33,10,-53c0,0,10,-22,27,-32c0,0,16,-10,40,-13c0,0,22,-4,48,-4h43V0Z" 
id="f2_t"
transform="scale(0.001,-0.001)" />

<path d="M365,0L119,674c0,0,-9,23,-18,39c0,0,-11,15,-23,26c0,0,-12,8,-29,12c0,0,-17,3,-39,4H6v64H388V755H369c0,0,-47,0,-69,-18c0,0,-24,-18,-23,-56c0,0,-1,-13,3,-25c0,0,3,-14,9,-31L392,336c0,0,10,-26,21,-58c0,0,9,-33,20,-65c0,0,8,-31,16,-59c0,0,7,-29,11,-47h5c0,0,3,16,12,41c0,0,8,23,20,53c0,0,10,27,22,58c0,0,11,29,22,57L650,614c0,0,8,19,12,36c0,0,3,16,3,30c0,0,0,38,-25,57c0,0,-26,18,-76,18H553v64H880V755H862c0,0,-23,0,-38,-5c0,0,-17,-6,-29,-18c0,0,-12,-14,-24,-37c0,0,-12,-24,-26,-59L504,0Z" 
id="f2_y"
transform="scale(0.001,-0.001)" />

<path d="M421,83c0,0,59,0,100,20c0,0,39,19,65,60c0,0,23,39,34,101c0,0,10,61,10,144c0,0,0,79,-10,141c0,0,-11,61,-34,103c0,0,-25,41,-65,63c0,0,-41,21,-101,21c0,0,-51,0,-86,-21c0,0,-36,-23,-58,-64c0,0,-24,-42,-34,-103c0,0,-10,-62,-10,-141c0,0,0,-163,44,-244c0,0,43,-80,145,-80ZM395,-14c-8,0,-78,1,-133,24c0,0,-59,24,-98,77c0,0,-39,52,-60,132c0,0,-20,79,-20,189c0,0,0,110,20,191c0,0,21,80,60,133c0,0,39,51,98,77c0,0,58,25,133,25c0,0,44,0,80,-10c0,0,36,-10,65,-27c0,0,28,-18,51,-43c0,0,21,-24,39,-54h4c0,0,0,36,0,70c0,0,0,27,0,57c0,0,0,27,0,41V993c0,0,-1,33,-10,54c0,0,-11,21,-29,32c0,0,-18,11,-41,15c0,0,-24,3,-49,3H492v64H773V168c0,0,0,-34,10,-54c0,0,10,-21,27,-32c0,0,17,-11,40,-14c0,0,22,-4,48,-4h13V0H652L636,137h-6c0,0,-18,-35,-39,-62c0,0,-23,-29,-51,-48C540,27,512,6,476,-3c0,0,-36,-11,-81,-11Z" 
id="f2_j"
transform="scale(0.001,-0.001)" />

<path d="M222,-9c-1,0,-2,0,-3,0c0,0,-1,0,-3,0c-6,0,-22,0,-35,5c0,0,-18,4,-30,16c0,0,-14,12,-21,32c0,0,-8,20,-8,49c0,0,0,30,8,50c0,0,7,19,21,32c0,0,12,11,30,17c0,0,17,5,38,5c0,0,18,0,37,-5c0,0,16,-6,30,-17c0,0,12,-13,21,-32c0,0,8,-20,8,-50c0,0,0,-29,-8,-49c0,0,-9,-20,-21,-32C286,12,272,0,256,-4c0,0,-17,-5,-34,-5Z" 
id="f2_u"
transform="scale(0.001,-0.001)" />

<path d="M197,0V27c0,0,71,2,92,13c0,0,21,10,29,29c0,0,9,18,9,109V725c0,0,0,110,-8,141c0,0,-5,24,-19,35c0,0,-14,11,-33,11c0,0,-28,0,-77,-23l-11,23l246,121h25V178c0,0,0,-85,7,-106c0,0,7,-21,29,-32c0,0,23,-11,91,-13V0Z" 
id="f4_l"
transform="scale(0.001,-0.001)" />

<path d="M379,437c0,0,34,0,81,16c0,0,47,17,83,47c0,0,14,97,14,155c0,0,0,72,-25,156c0,0,-25,83,-70,128c0,0,-45,45,-103,45c0,0,-66,0,-116,-60c0,0,-50,-59,-50,-177c0,0,0,-157,66,-246c0,0,49,-64,120,-64ZM80,-20V7c0,0,97,1,181,45c0,0,83,44,161,153c0,0,78,109,109,240c0,0,-117,-75,-212,-75c0,0,-107,0,-183,82c0,0,-76,82,-76,219c0,0,0,132,76,236c0,0,92,126,240,126c0,0,124,0,213,-103c0,0,109,-128,109,-315c0,0,0,-169,-82,-314C616,301,533,155,385,59c0,0,-120,-79,-262,-79Z" 
id="f4_t"
transform="scale(0.001,-0.001)" />


</defs>
</svg>