<?xml version="1.0" encoding="UTF-8" standalone="no"?>
<!DOCTYPE svg PUBLIC "-//W3C//DTD SVG 1.1//EN"
"http://www.w3.org/Graphics/SVG/1.1/DTD/svg11.dtd">
<svg viewBox="0 0 909 1286" version="1.1" xmlns="http://www.w3.org/2000/svg" xmlns:xlink="http://www.w3.org/1999/xlink">
<defs>
<clipPath id="c0_161"><path d="M35.1,1194.7V113.1H873.9V1194.7Z" /></clipPath>
</defs>
<image preserveAspectRatio="none" x="47" y="113" width="294" height="92" xlink:href="img/1.png" />
<image preserveAspectRatio="none" x="47" y="223" width="116" height="98" xlink:href="img/2.png" />
<g clip-path="url(#c0_161)">
<g fill="#000000" >
<use xlink:href="#f0_3" transform="matrix(12,0,0,12,47.4,368.2)" />
<use xlink:href="#f0_j" transform="matrix(10,0,0,10,57.7,360.6)" />
<use xlink:href="#f0_k" transform="matrix(12,0,0,12,70.9,368.2)" />
<use xlink:href="#f0_e" transform="matrix(12,0,0,12,85.9,368.2)" />
<use xlink:href="#f0_j" transform="matrix(10,0,0,10,97.2,360.6)" />
<use xlink:href="#f0_m" transform="matrix(12,0,0,12,110.5,368.2)" />
<use xlink:href="#f0_n" transform="matrix(12,0,0,12,125.4,368.2)" />
</g>
</g>
<image preserveAspectRatio="none" x="47" y="396" width="104" height="62" xlink:href="img/3.png" />
<image preserveAspectRatio="none" x="47" y="477" width="109" height="125" xlink:href="img/4.png" />
<g clip-path="url(#c0_161)">
<g fill="#000000" >
<use xlink:href="#f1_1g" transform="matrix(12,0,0,12,47.4,684.4)" />
<use xlink:href="#f1_n" transform="matrix(12,0,0,12,57.6,684.4)" />
<use xlink:href="#f1_v" transform="matrix(12,0,0,12,63.2,684.4)" />
<use xlink:href="#f1_e" transform="matrix(12,0,0,12,70.5,684.4)" />
<use xlink:href="#f1_1h" transform="matrix(12,0,0,12,82.7,684.4)" />
<use xlink:href="#f1_p" transform="matrix(10,0,0,10,92.4,689)" />
<use xlink:href="#f1_16" transform="matrix(12,0,0,12,105.7,684.4)" />
<use xlink:href="#f1_t" transform="matrix(12,0,0,12,120.6,684.4)" />
<use xlink:href="#f1_1i" transform="matrix(12,0,0,12,130.9,684.4)" />
<use xlink:href="#f1_7" transform="matrix(12,0,0,12,136.6,684.4)" />
<use xlink:href="#f1_3" transform="matrix(12,0,0,12,147.8,684.4)" />
<use xlink:href="#f1_d" transform="matrix(12,0,0,12,158.7,684.4)" />
<use xlink:href="#f1_a" transform="matrix(12,0,0,12,171,684.4)" />
<use xlink:href="#f1_1j" transform="matrix(12,0,0,12,187.6,684.4)" />
<use xlink:href="#f1_t" transform="matrix(10,0,0,10,199.8,689)" />
<use xlink:href="#f1_16" transform="matrix(12,0,0,12,213.1,684.4)" />
<use xlink:href="#f1_p" transform="matrix(12,0,0,12,228.1,684.4)" />
<use xlink:href="#f1_14" transform="matrix(12,0,0,12,238.3,684.4)" />
<use xlink:href="#f1_7" transform="matrix(12,0,0,12,248.5,684.4)" />
<use xlink:href="#f1_1a" transform="matrix(12,0,0,12,259.7,684.4)" />
<use xlink:href="#f1_7" transform="matrix(12,0,0,12,271.1,684.4)" />
<use xlink:href="#f1_d" transform="matrix(12,0,0,12,277.6,684.4)" />
<use xlink:href="#f1_a" transform="matrix(12,0,0,12,289.8,684.4)" />
</g>
</g>
<image preserveAspectRatio="none" x="307" y="640" width="110" height="78" xlink:href="img/5.png" />
<g clip-path="url(#c0_161)">
<g fill="#000000" >
<use xlink:href="#f1_19" transform="matrix(12,0,0,12,47.4,759.3)" />
<use xlink:href="#f1_d" transform="matrix(12,0,0,12,61.2,759.3)" />
<use xlink:href="#f1_s" transform="matrix(12,0,0,12,73.4,759.3)" />
<use xlink:href="#f1_n" transform="matrix(12,0,0,12,82.3,759.3)" />
<use xlink:href="#f0_x" transform="matrix(12,0,0,12,87.9,759.3)" />
<use xlink:href="#f0_n" transform="matrix(10,0,0,10,97.2,763.9)" />
<use xlink:href="#f0_k" transform="matrix(12,0,0,12,110.5,759.3)" />
<use xlink:href="#f0_x" transform="matrix(12,0,0,12,125.5,759.3)" />
<use xlink:href="#f0_j" transform="matrix(10,0,0,10,134.9,763.9)" />
<use xlink:href="#f0_k" transform="matrix(12,0,0,12,148.1,759.3)" />
<use xlink:href="#f0_n" transform="matrix(12,0,0,12,163.1,759.3)" />
<use xlink:href="#f0_m" transform="matrix(12,0,0,12,178.1,759.3)" />
<use xlink:href="#f0_j" transform="matrix(12,0,0,12,193.1,759.3)" />
<use xlink:href="#f0_11" transform="matrix(12,0,0,12,208.1,759.3)" />
<use xlink:href="#f0_5" transform="matrix(12,0,0,12,222,759.3)" />
<use xlink:href="#f0_k" transform="matrix(12,0,0,12,232.6,759.3)" />
<use xlink:href="#f0_n" transform="matrix(12,0,0,12,247.6,759.3)" />
<use xlink:href="#f0_k" transform="matrix(12,0,0,12,257.8,759.3)" />
<use xlink:href="#f0_5" transform="matrix(12,0,0,12,272.8,759.3)" />
<use xlink:href="#f0_k" transform="matrix(12,0,0,12,283.4,759.3)" />
<use xlink:href="#f0_n" transform="matrix(12,0,0,12,298.4,759.3)" />
<use xlink:href="#f0_m" transform="matrix(12,0,0,12,313.4,759.3)" />
<use xlink:href="#f0_12" transform="matrix(12,0,0,12,328.4,759.3)" />
</g>
</g>
<image preserveAspectRatio="none" x="47" y="793" width="307" height="115" xlink:href="img/6.png" />
<image preserveAspectRatio="none" x="47" y="926" width="139" height="154" xlink:href="img/7.png" />
<image preserveAspectRatio="none" x="47" y="1098" width="60" height="68" xlink:href="img/8.png" />
<g fill="#000000" >
<use xlink:href="#f2_l" transform="matrix(12,0,0,12,835.7,1269.6)" />
<use xlink:href="#f2_q" transform="matrix(12,0,0,12,844.9,1269.6)" />
</g>
<defs>
<path d="M348,79c0,0,46,0,85,15c0,0,36,14,64,42c0,0,25,27,40,66c0,0,14,39,14,87V412H454c0,0,-65,0,-109,-14c0,0,-44,-13,-70,-36c0,0,-27,-25,-39,-59c0,0,-12,-35,-11,-80c0,0,0,-73,30,-108c0,0,29,-36,93,-36ZM313,-14c0,0,-50,0,-94,14c0,0,-44,14,-75,45c0,0,-33,30,-50,77c0,0,-18,47,-18,109c0,0,0,123,87,182c0,0,85,59,261,60H551v93c0,0,0,42,-4,78c0,0,-5,34,-20,60c0,0,-15,26,-42,40c0,0,-28,14,-75,14c0,0,-44,0,-71,-12c0,0,-29,-13,-43,-35c0,0,-16,-23,-21,-53c0,0,-6,-31,-5,-66c0,0,-64,0,-96,21c0,0,-34,21,-34,75c0,0,0,39,22,67c0,0,21,28,60,45c0,0,36,17,87,26c0,0,49,7,107,8c0,0,69,0,122,-13c0,0,52,-15,87,-46c0,0,34,-31,53,-81c0,0,17,-52,17,-124V174c0,0,0,-33,5,-53c0,0,6,-22,17,-34c0,0,10,-12,30,-18c0,0,15,-5,38,-5c2,0,3,0,5,0h4V0H588L564,131H551c0,0,-24,-33,-46,-59c0,0,-22,-27,-49,-46C456,26,429,6,395,-3c0,0,-35,-11,-82,-11Z" 
id="f0_3"
transform="scale(0.001,-0.001)" />

<path d="M78,0V112L333,407c0,0,61,70,103,126c0,0,40,56,66,106c0,0,25,49,37,97c0,0,11,47,11,100c0,0,0,43,-9,79c0,0,-11,35,-29,61c0,0,-19,25,-48,40c0,0,-31,13,-70,13c0,0,-53,0,-84,-18c0,0,-33,-20,-52,-50c0,0,-19,-31,-25,-73c0,0,-7,-41,-7,-86c0,0,-28,0,-51,4c0,0,-24,4,-42,17c0,0,-18,11,-28,30c0,0,-10,19,-10,48c0,0,0,43,19,82c0,0,19,37,57,65c0,0,36,28,93,43c0,0,56,15,130,15c0,0,72,0,130,-18c0,0,56,-19,97,-51c0,0,41,-34,62,-81c0,0,21,-47,21,-105c0,0,-1,-54,-17,-104c0,0,-18,-52,-50,-104c0,0,-33,-54,-80,-111c0,0,-48,-58,-108,-124L191,122H545c7,0,36,1,56,10c0,0,21,10,36,25c0,0,14,15,22,37c0,0,7,20,13,42l6,28h61V0Z" 
id="f0_j"
transform="scale(0.001,-0.001)" />

<path d="M380,219V501H99v91H380V874h92V592H755V501H472V219Z" 
id="f0_k"
transform="scale(0.001,-0.001)" />

<path d="M518,83c0,0,50,0,86,21c0,0,35,21,58,63c0,0,23,41,33,104c0,0,10,61,11,142c0,0,-1,80,-11,142c0,0,-10,60,-33,101c0,0,-23,40,-58,60c0,0,-38,20,-88,20c0,0,-60,0,-99,-19c0,0,-41,-20,-64,-61c0,0,-24,-40,-34,-101c0,0,-10,-62,-10,-144c0,0,0,-80,10,-141c0,0,10,-62,35,-103c0,0,23,-42,64,-63c0,0,39,-21,100,-21Zm27,-97c-1,0,-2,0,-3,0h-2c-8,0,-46,1,-77,10c0,0,-37,8,-65,26c0,0,-29,18,-50,43c0,0,-23,24,-39,54H299L272,0H28V64H40c0,0,25,0,49,4c0,0,22,3,39,16c0,0,17,11,27,32c0,0,10,21,10,58V993c0,0,0,33,-10,54c0,0,-11,21,-27,32c0,0,-18,11,-40,15c0,0,-24,3,-48,3H28v64H306V880c0,0,0,-26,0,-59c0,0,0,-35,0,-66c0,0,0,-36,0,-74h3c0,0,16,34,39,63c0,0,21,28,50,49c0,0,27,19,64,31c0,0,36,9,80,10c0,0,75,0,134,-25c0,0,58,-26,98,-76c0,0,38,-53,60,-132c0,0,20,-80,20,-190c0,0,0,-111,-20,-191c0,0,-22,-80,-60,-133c0,0,-40,-53,-98,-77c0,0,-57,-24,-131,-24Z" 
id="f0_e"
transform="scale(0.001,-0.001)" />

<path d="M99,350v90H755V350Zm0,300v91H755V650Z" 
id="f0_m"
transform="scale(0.001,-0.001)" />

<path d="M147,0V64H249c0,0,26,0,49,4c0,0,23,3,40,16c0,0,16,11,27,32c0,0,9,21,9,58V976c0,0,-29,-35,-55,-64c0,0,-27,-29,-50,-50c0,0,-24,-22,-46,-32c0,0,-22,-12,-44,-12c0,0,-1,0,-1,0c0,0,-1,0,-1,0c-3,0,-35,0,-55,23c0,0,-21,21,-21,59c0,0,23,5,47,15c0,0,23,7,50,22c0,0,25,13,57,34c0,0,30,18,69,47l107,79h98V174c0,0,-1,-37,10,-58c0,0,9,-21,26,-32c0,0,17,-13,41,-16c0,0,22,-4,48,-4h75V0Z" 
id="f0_n"
transform="scale(0.001,-0.001)" />

<path d="M252,0L659,924H257c0,0,-42,0,-63,-19c0,0,-22,-20,-26,-58l-9,-77H71v321H803v-75L382,0Z" 
id="f1_1g"
transform="scale(0.001,-0.001)" />

<path d="M232,-11c0,0,-26,0,-49,7c0,0,-24,4,-40,19c0,0,-17,13,-27,37c0,0,-10,23,-9,58c0,0,-1,34,9,59c0,0,10,22,27,37c0,0,16,14,40,20c0,0,23,5,49,6c0,0,25,-1,48,-6c0,0,23,-6,40,-20c0,0,16,-15,28,-37c0,0,9,-25,9,-59c0,0,0,-35,-9,-58c0,0,-12,-24,-28,-37C320,15,303,0,280,-4c0,0,-23,-7,-48,-7Z" 
id="f1_n"
transform="scale(0.001,-0.001)" />

<path d="M43,0V81h64c0,0,16,0,31,4c0,0,14,3,25,13c0,0,9,10,16,30c0,0,5,19,6,53V910c0,0,-1,32,-6,52c0,0,-7,19,-16,30c0,0,-11,10,-25,14c0,0,-15,3,-31,3H43v82H570v-82H506c0,0,-17,0,-31,-3c0,0,-15,-4,-25,-14c0,0,-11,-11,-17,-30c0,0,-6,-20,-6,-52V181c0,0,0,-34,6,-53c0,0,6,-20,17,-30c0,0,10,-10,25,-13c0,0,14,-4,31,-4h64V0Z" 
id="f1_v"
transform="scale(0.001,-0.001)" />

<path d="M29,0V81H63c0,0,16,0,35,4c0,0,18,3,36,13c0,0,15,10,26,30c0,0,10,19,11,53V715H35V819H171v57c0,0,-1,70,18,127c0,0,18,54,57,94c0,0,37,38,97,58c0,0,59,20,140,20c0,0,74,-1,123,-8c0,0,49,-10,78,-24c0,0,29,-16,42,-36c0,0,12,-21,12,-44c0,0,-1,-52,-46,-75c0,0,-47,-24,-142,-24c0,0,-1,18,-4,40c0,0,-4,21,-13,40c0,0,-9,19,-23,32c0,0,-15,12,-36,12c0,0,-20,0,-32,-10c0,0,-15,-11,-22,-32c0,0,-10,-23,-13,-58c0,0,-3,-35,-3,-85V819H614V715H404V181c0,0,0,-34,11,-53c0,0,9,-20,27,-30c0,0,15,-10,35,-13c0,0,18,-4,35,-4h71V0Z" 
id="f1_e"
transform="scale(0.001,-0.001)" />

<path d="M28,0V63L478,715H255c0,0,-18,0,-30,-5c0,0,-12,-6,-22,-17c0,0,-11,-13,-19,-33c0,0,-9,-21,-16,-52l-9,-37H67L86,819H745V753L293,104H562c0,0,23,0,40,6c0,0,15,7,28,22c0,0,11,14,19,39c0,0,7,23,14,57l9,49h87V0Z" 
id="f1_1h"
transform="scale(0.001,-0.001)" />

<path d="M148,0V81H274c0,0,1,0,2,0c5,0,19,1,31,6c0,0,14,4,24,15c0,0,10,11,14,31c0,0,5,18,5,48V946c0,0,-29,-36,-55,-65c0,0,-26,-29,-50,-50c0,0,-23,-22,-46,-32c0,0,-22,-12,-44,-12q-1,0,-2,0c0,0,-19,0,-34,8c0,0,-18,8,-29,23c0,0,-12,14,-18,35c0,0,-9,21,-8,47c0,0,23,5,49,15c0,0,25,7,54,22c0,0,28,13,61,34c0,0,32,18,71,47l108,79H577V181c0,0,0,-24,4,-43c0,0,3,-19,12,-31c0,0,8,-14,24,-19c0,0,14,-7,39,-7H779V0Z" 
id="f1_p"
transform="scale(0.001,-0.001)" />

<path d="M96,344V451H758V344Zm0,296V747H758V640Z" 
id="f1_16"
transform="scale(0.001,-0.001)" />

<path d="M54,0V157L280,388c0,0,70,72,116,130c0,0,46,59,72,112c0,0,25,52,36,105c0,0,10,51,11,110c0,0,0,87,-32,128c0,0,-32,40,-88,40c0,0,-77,-1,-109,-66c0,0,-31,-67,-31,-198c0,0,-44,0,-79,8c0,0,-37,8,-62,26c0,0,-26,18,-40,47c0,0,-15,28,-14,70c0,0,0,41,21,79c0,0,21,36,63,65c0,0,41,28,105,46c0,0,62,16,146,16c0,0,85,0,152,-17c0,0,65,-19,109,-51c0,0,44,-32,67,-79c0,0,22,-47,22,-106c0,0,0,-36,-7,-70c0,0,-8,-33,-26,-69c0,0,-20,-37,-49,-75c0,0,-30,-41,-74,-88c0,0,-44,-49,-102,-107c0,0,-60,-58,-136,-131L198,168H555c4,0,48,1,80,27c0,0,32,27,46,79l13,47h86V0Z" 
id="f1_t"
transform="scale(0.001,-0.001)" />

<path d="M38,336V497H436V336Z" 
id="f1_1i"
transform="scale(0.001,-0.001)" />

<path d="M26,0V81H44c0,0,16,0,37,4c0,0,17,3,35,13c0,0,15,10,26,30c0,0,10,19,11,53V645c0,0,-1,29,-11,49c0,0,-11,18,-27,28c0,0,-17,9,-35,13c0,0,-20,3,-36,3H26v81H385V181c0,0,0,-34,11,-53c0,0,10,-20,27,-30c0,0,16,-10,35,-13c0,0,19,-4,36,-4h18V0ZM261,956c0,0,-28,0,-51,7c0,0,-24,7,-41,20c0,0,-18,13,-27,35c0,0,-11,20,-11,49c0,0,0,28,11,50c0,0,9,21,27,34c0,0,17,12,41,19c0,0,23,6,51,6c0,0,25,0,50,-6c0,0,23,-7,42,-19c0,0,18,-13,29,-34c0,0,10,-22,10,-50c0,0,0,-29,-10,-49c0,0,-11,-22,-29,-35c0,0,-19,-13,-42,-20c0,0,-25,-7,-50,-7Z" 
id="f1_7"
transform="scale(0.001,-0.001)" />

<path d="M392,96c0,0,32,0,60,14c0,0,25,13,46,38c0,0,18,26,29,62c0,0,9,35,9,79V403H468c0,0,-47,-1,-77,-13c0,0,-31,-13,-50,-34c0,0,-19,-22,-27,-53c0,0,-8,-33,-8,-74c0,0,-1,-67,21,-100c0,0,21,-33,65,-33ZM314,-14c-2,0,-3,0,-5,0c0,0,-51,0,-94,14c0,0,-44,15,-76,46c0,0,-33,32,-52,79c0,0,-19,47,-18,111c0,0,-1,125,85,185c0,0,85,61,257,61H536v86c0,0,0,38,-3,71c0,0,-3,32,-12,57c0,0,-11,23,-29,37c0,0,-19,11,-50,12c0,0,-30,0,-49,-12c0,0,-20,-13,-32,-34c0,0,-13,-22,-16,-52c0,0,-6,-31,-6,-67h-1c-11,0,-105,1,-153,24c0,0,-53,23,-52,79c0,0,-1,41,25,71c0,0,24,29,68,49c0,0,43,18,100,27c0,0,57,8,122,8c0,0,80,0,141,-13c0,0,59,-15,100,-45c0,0,38,-30,59,-80c0,0,20,-50,20,-121V189c0,0,0,-31,6,-52c0,0,4,-21,15,-33c0,0,9,-12,28,-17c0,0,15,-6,39,-6c1,0,3,0,4,0h6V0H582L550,105H536c0,0,-26,-30,-47,-53c0,0,-23,-24,-48,-38C441,14,415,0,384,-6c0,0,-30,-8,-70,-8Z" 
id="f1_3"
transform="scale(0.001,-0.001)" />

<path d="M31,0V81h3c0,0,25,0,47,4c0,0,21,3,38,14c0,0,16,11,25,32c0,0,9,20,9,55V639c0,0,0,32,-8,51c0,0,-8,19,-22,31c0,0,-15,9,-35,14c0,0,-20,3,-45,3H38v81H359L379,710h7c0,0,24,43,50,69c0,0,25,25,54,39c0,0,29,13,62,17c0,0,32,3,68,3c0,0,59,0,106,-17c0,0,47,-17,80,-53c0,0,32,-36,49,-91c0,0,16,-56,17,-133V189c0,0,0,-35,7,-56c0,0,5,-22,18,-33c0,0,12,-12,33,-15c0,0,18,-4,45,-4h4V0H640V503c0,0,-1,48,-6,88c0,0,-7,38,-21,64c0,0,-15,25,-38,40c0,0,-24,14,-57,14c0,0,-38,-1,-64,-20c0,0,-26,-19,-40,-51c0,0,-16,-33,-22,-76c0,0,-7,-44,-7,-90V181c0,0,0,-33,8,-52c0,0,7,-20,22,-30c0,0,13,-11,35,-14c0,0,19,-4,45,-4h5V0Z" 
id="f1_d"
transform="scale(0.001,-0.001)" />

<path d="M448,99c0,0,45,0,76,20c0,0,29,18,48,57c0,0,17,38,26,98c0,0,7,57,7,137c0,0,0,75,-7,134c0,0,-9,59,-26,99c0,0,-19,39,-48,60c0,0,-31,20,-76,20c0,0,-38,0,-65,-20c0,0,-29,-21,-44,-61c0,0,-17,-40,-25,-98c0,0,-8,-60,-8,-135c0,0,0,-156,33,-233c0,0,31,-78,109,-78ZM386,-14c-1,0,-3,0,-4,0h-1c-7,0,-77,1,-132,24c0,0,-59,24,-98,77c0,0,-40,52,-60,132c0,0,-22,79,-21,189c0,0,-1,110,21,192c0,0,20,80,60,133c0,0,38,53,97,79c0,0,56,25,131,25c0,0,43,0,78,-9c0,0,35,-10,63,-25c0,0,28,-17,49,-39c0,0,21,-22,37,-49h9c0,0,0,42,-6,79c0,0,0,15,0,33c0,0,0,16,-2,31c0,0,-2,14,-2,25c0,0,0,11,0,18v84c0,0,0,32,-10,51c0,0,-10,18,-27,29c0,0,-17,8,-39,12c0,0,-22,3,-48,3H469v81H837V188c0,0,0,-35,10,-56c0,0,10,-22,29,-32c0,0,16,-12,40,-15c0,0,22,-4,48,-4h6V0H674L631,119H617c0,0,-18,-31,-39,-56c0,0,-23,-25,-51,-41C527,22,498,4,463,-4c0,0,-34,-10,-77,-10Z" 
id="f1_a"
transform="scale(0.001,-0.001)" />

<path d="M64,0V76L637,997H336c0,0,-35,0,-58,-9c0,0,-24,-11,-37,-28c0,0,-15,-19,-20,-44c0,0,-7,-26,-10,-57l-8,-83H97v315H917v-78L342,93H672c0,0,46,0,77,14c0,0,30,12,48,34c0,0,16,21,25,49c0,0,7,27,11,56l7,69H947V0Z" 
id="f1_1j"
transform="scale(0.001,-0.001)" />

<path d="M371,219V492H99V601H371V874H481V601H755V492H481V219Z" 
id="f1_14"
transform="scale(0.001,-0.001)" />

<path d="M43,0V81h64c0,0,1,0,3,0c6,0,17,1,27,3c0,0,14,3,26,13c0,0,9,8,16,28c0,0,5,17,6,47V917c0,0,-1,30,-6,49c0,0,-7,17,-16,28c0,0,-12,9,-26,13c0,0,-15,3,-30,3H43v81H893V809H790l-7,74c0,0,-9,61,-37,88c0,0,-31,26,-77,26H426V580H789V490H426V181c0,0,0,-34,7,-53c0,0,5,-20,16,-30c0,0,10,-10,25,-13c0,0,15,-4,32,-4h95V0Z" 
id="f1_1a"
transform="scale(0.001,-0.001)" />

<path d="M674,452L593,703c0,0,-9,25,-16,55c0,0,-10,28,-18,58c0,0,-8,29,-16,60c0,0,-9,29,-14,56c0,0,-7,-24,-16,-51c0,0,-9,-28,-18,-57c0,0,-11,-29,-21,-58c0,0,-10,-29,-19,-56L365,452ZM6,0V81H25c0,0,20,0,37,5c0,0,16,4,31,17c0,0,14,12,28,34c0,0,12,20,26,55l331,899H688L1007,191c0,0,11,-33,24,-53c0,0,12,-22,27,-34c0,0,13,-12,30,-17c0,0,15,-6,32,-6c1,0,2,0,3,0h27V0H646V81h60c0,0,10,0,23,4c0,0,11,2,21,10c0,0,9,7,15,18c0,0,6,12,6,27c0,0,0,19,-4,36c0,0,-5,16,-9,30L704,359H333L289,228c0,0,-7,-20,-12,-44c0,0,-7,-26,-7,-44c0,0,0,-15,6,-26c0,0,5,-11,16,-18c0,0,9,-8,22,-11c0,0,12,-4,25,-4h65V0Z" 
id="f1_19"
transform="scale(0.001,-0.001)" />

<path d="M357,-14c-1,0,-3,0,-4,0c0,0,-83,0,-141,14c0,0,-60,12,-96,36c0,0,-37,23,-53,57c0,0,-17,32,-17,70c0,0,0,37,14,61c0,0,15,22,37,35c0,0,21,12,46,17c0,0,25,3,45,4c0,0,-1,-49,12,-86c0,0,12,-39,33,-64c0,0,21,-27,53,-41c0,0,28,-14,64,-14c1,0,2,0,3,0c0,0,39,0,68,8c0,0,28,7,47,23c0,0,18,14,27,34c0,0,9,17,9,39c0,0,0,25,-9,46c0,0,-10,18,-31,37c0,0,-22,16,-57,34c0,0,-38,16,-91,35c0,0,-62,21,-109,46c0,0,-48,24,-79,56c0,0,-33,30,-50,71c0,0,-17,38,-17,91c0,0,0,60,24,106c0,0,22,46,66,76c0,0,44,30,104,45c0,0,61,14,134,15c0,0,73,0,123,-12c0,0,50,-13,83,-33c0,0,32,-20,47,-45c0,0,14,-26,15,-52c0,0,0,-51,-36,-78c0,0,-37,-27,-120,-27c0,0,0,76,-33,119c0,0,-35,41,-101,41c0,0,-25,0,-47,-6c0,0,-24,-5,-40,-17c0,0,-17,-13,-26,-30c0,0,-11,-18,-11,-41c0,0,-1,-26,10,-44c0,0,9,-20,33,-37c0,0,23,-18,63,-36c0,0,40,-18,103,-39c0,0,50,-18,94,-40c0,0,43,-24,74,-53c0,0,30,-30,48,-67c0,0,16,-39,17,-86c0,0,-1,-65,-22,-114c0,0,-22,-50,-65,-84C598,56,555,21,494,4c0,0,-60,-18,-137,-18Z" 
id="f1_s"
transform="scale(0.001,-0.001)" />

<path d="M64,0V61L507,732H269c0,0,-31,0,-50,-8c0,0,-19,-8,-31,-24c0,0,-13,-15,-20,-38c0,0,-9,-24,-17,-54l-1,-6H93V819H686V756L242,87H519c0,0,27,0,45,11c0,0,16,9,29,27c0,0,11,17,19,41c0,0,6,22,12,47l7,35h61V0Z" 
id="f0_x"
transform="scale(0.001,-0.001)" />

<path d="M-6,365v90H771V365Z" 
id="f0_11"
transform="scale(0.001,-0.001)" />

<path d="M35,0V64H55c0,0,25,0,49,4c0,0,22,3,39,13c0,0,17,10,28,32c0,0,10,20,10,53V650c0,0,0,33,-10,55c0,0,-11,20,-28,31c0,0,-17,11,-39,15c0,0,-24,3,-49,4H51v64H324V174c0,0,0,-37,10,-58c0,0,10,-21,27,-32c0,0,16,-13,40,-16c0,0,22,-4,48,-4h20V0ZM249,972c-1,0,-2,0,-3,0c0,0,-1,0,-2,0c-5,0,-20,0,-32,5c0,0,-16,5,-28,16c0,0,-12,11,-18,29c0,0,-7,18,-7,45c0,0,0,27,7,45c0,0,6,17,18,29c0,0,12,11,28,15c0,0,15,5,34,5c0,0,18,0,34,-5c0,0,15,-4,27,-15c0,0,11,-12,19,-29c0,0,7,-18,7,-45c0,0,0,-27,-7,-45c0,0,-8,-18,-19,-29c0,0,-12,-11,-27,-16c0,0,-14,-5,-31,-5Z" 
id="f0_5"
transform="scale(0.001,-0.001)" />

<path d="M501,385V668c0,0,0,33,0,74c0,0,0,40,0,82c0,0,0,41,0,83c0,0,0,41,6,77c0,0,-6,-11,-15,-28c0,0,-10,-18,-21,-39c0,0,-13,-23,-26,-46c0,0,-15,-24,-28,-46c0,0,-15,-24,-26,-42c0,0,-13,-21,-21,-34L136,385ZM328,0V64h43c0,0,26,0,50,4c0,0,22,3,39,16c0,0,17,11,27,32c0,0,10,21,10,58V299H26v63l472,729H643V385H833V299H643V174c0,0,0,-37,10,-58c0,0,10,-21,27,-32c0,0,16,-13,40,-16c0,0,22,-4,48,-4h21V0Z" 
id="f0_12"
transform="scale(0.001,-0.001)" />

<path d="M197,0V27c0,0,71,2,92,13c0,0,21,10,29,29c0,0,9,18,9,109V725c0,0,0,110,-8,141c0,0,-5,24,-19,35c0,0,-14,11,-33,11c0,0,-28,0,-77,-23l-11,23l246,121h25V178c0,0,0,-85,7,-106c0,0,7,-21,29,-32c0,0,23,-11,91,-13V0Z" 
id="f2_l"
transform="scale(0.001,-0.001)" />

<path d="M405,24c0,0,65,0,116,62c0,0,51,61,51,174c0,0,0,128,-50,221c0,0,-51,93,-144,93c0,0,-29,0,-61,-12c0,0,-33,-12,-96,-51c0,0,-14,-101,-14,-163c0,0,0,-72,27,-155c0,0,26,-84,79,-134c0,0,38,-35,92,-35ZM384,-17c0,0,-104,0,-177,68C207,51,66,185,66,397c0,0,0,136,54,258c0,0,54,122,156,217c0,0,101,95,193,128c0,0,93,33,172,33h44v-28c0,0,-99,-10,-161,-39c0,0,-62,-29,-123,-90c0,0,-61,-60,-101,-135c0,0,-39,-74,-66,-176c0,0,107,73,215,73c0,0,104,0,180,-83c0,0,76,-84,76,-215c0,0,0,-126,-77,-231c0,0,-92,-126,-244,-126Z" 
id="f2_q"
transform="scale(0.001,-0.001)" />


</defs>
</svg>