<?xml version="1.0" encoding="UTF-8" standalone="no"?>
<!DOCTYPE svg PUBLIC "-//W3C//DTD SVG 1.1//EN"
"http://www.w3.org/Graphics/SVG/1.1/DTD/svg11.dtd">
<svg viewBox="0 0 909 1286" version="1.1" xmlns="http://www.w3.org/2000/svg" xmlns:xlink="http://www.w3.org/1999/xlink">
<defs>
<clipPath id="c0_194"><path d="M35.1,1194.7V113.1H873.9V1194.7Z" /></clipPath>
<style type="text/css"><![CDATA[
.g0_194{
fill: #F2F2F2;
}
.g1_194{
fill: #808080;
}
]]></style>
</defs>
<path d="M47.4,592.8h74.8v33.6H47.4V592.8Z" class="g0_194" />
<path d="M122.2,592.8h82.5v33.6H122.2V592.8Z" class="g0_194" />
<path d="M204.7,592.8h84.1v33.6H204.7V592.8Z" class="g0_194" />
<path d="M204.7,592.8h85.6v1.5H204.7v-1.5Z" class="g1_194" />
<path d="M204.7,626.4h85.6v1.5H204.7v-1.5Z" class="g1_194" />
<path d="M204.7,592.8h1.6v35.1h-1.6V592.8Z" class="g1_194" />
<path d="M288.8,592.8h1.5v35.1h-1.5V592.8Z" class="g1_194" />
<path d="M122.2,592.8h84.1v1.5H122.2v-1.5Z" class="g1_194" />
<path d="M122.2,626.4h84.1v1.5H122.2v-1.5Z" class="g1_194" />
<path d="M122.2,592.8h1.6v35.1h-1.6V592.8Z" class="g1_194" />
<path d="M204.7,592.8h1.6v35.1h-1.6V592.8Z" class="g1_194" />
<path d="M47.4,592.8h76.4v1.5H47.4v-1.5Z" class="g1_194" />
<path d="M47.4,626.4h76.4v1.5H47.4v-1.5Z" class="g1_194" />
<path d="M47.4,592.8h1.5v35.1H47.4V592.8Z" class="g1_194" />
<path d="M122.2,592.8h1.6v35.1h-1.6V592.8Z" class="g1_194" />
<path d="M204.7,559.2h85.6v1.5H204.7v-1.5Z" class="g1_194" />
<path d="M204.7,592.8h85.6v1.5H204.7v-1.5Z" class="g1_194" />
<path d="M204.7,559.2h1.6v35.1h-1.6V559.2Z" class="g1_194" />
<path d="M288.8,559.2h1.5v35.1h-1.5V559.2Z" class="g1_194" />
<path d="M122.2,559.2h84.1v1.5H122.2v-1.5Z" class="g1_194" />
<path d="M122.2,592.8h84.1v1.5H122.2v-1.5Z" class="g1_194" />
<path d="M122.2,559.2h1.6v35.1h-1.6V559.2Z" class="g1_194" />
<path d="M204.7,559.2h1.6v35.1h-1.6V559.2Z" class="g1_194" />
<path d="M47.4,559.2h76.4v1.5H47.4v-1.5Z" class="g1_194" />
<path d="M47.4,592.8h76.4v1.5H47.4v-1.5Z" class="g1_194" />
<path d="M47.4,559.2h1.5v35.1H47.4V559.2Z" class="g1_194" />
<path d="M122.2,559.2h1.6v35.1h-1.6V559.2Z" class="g1_194" />
<image preserveAspectRatio="none" x="47" y="113" width="503" height="428" xlink:href="img/1.png" />
<image preserveAspectRatio="none" x="57" y="568" width="21" height="22" xlink:href="img/2.png" />
<g clip-path="url(#c0_194)">
<g fill="#000000" >
<use xlink:href="#f0_17" transform="matrix(12,0,0,12,131.4,583.6)" />
<use xlink:href="#f0_16" transform="matrix(12,0,0,12,213.9,583.6)" />
<use xlink:href="#f0_17" transform="matrix(12,0,0,12,224.1,583.6)" />
</g>
</g>
<image preserveAspectRatio="none" x="57" y="599" width="21" height="26" xlink:href="img/3.png" />
<g clip-path="url(#c0_194)">
<g fill="#000000" >
<use xlink:href="#f1_e" transform="matrix(12,0,0,12,131.4,617.2)" />
<use xlink:href="#f1_f" transform="matrix(12,0,0,12,141.6,617.2)" />
<use xlink:href="#f1_f" transform="matrix(12,0,0,12,213.9,617.2)" />
</g>
</g>
<g fill="#000000" >
<use xlink:href="#f2_l" transform="matrix(12,0,0,12,835.7,1269.6)" />
<use xlink:href="#f2_s" transform="matrix(12,0,0,12,844.9,1269.6)" />
</g>
<defs>
<path d="M427,84c0,0,44,0,73,32c0,0,27,31,44,91c0,0,15,58,15,144c0,0,0,86,0,196c0,0,0,109,0,195c0,0,0,85,-15,144c0,0,-16,59,-43,90c0,0,-29,30,-72,31c0,0,-46,-1,-73,-31c0,0,-29,-31,-45,-90c0,0,-17,-59,-16,-144c0,0,0,-86,0,-195c0,0,0,-110,0,-196c0,0,0,-86,15,-144c0,0,16,-60,44,-91c0,0,28,-32,73,-32Zm0,-98c0,0,-104,0,-176,39c0,0,-72,41,-115,115c0,0,-46,73,-64,178c0,0,-20,103,-20,230c0,0,0,126,20,230c0,0,18,103,64,176c0,0,43,72,116,113c0,0,72,39,177,39c0,0,99,0,170,-39c0,0,70,-41,116,-113c0,0,44,-73,66,-176c0,0,21,-104,21,-231c0,0,0,-127,-21,-230c0,0,-22,-104,-66,-177C715,140,668,66,598,25c0,0,-71,-39,-171,-39Z" 
id="f0_17"
transform="scale(0.001,-0.001)" />

<path d="M425,72c6,0,41,0,71,14c0,0,31,13,54,39c0,0,21,26,34,61c0,0,12,34,12,77c0,0,-1,36,-13,67c0,0,-12,30,-39,57c0,0,-29,26,-70,52c0,0,-42,24,-101,51c0,0,-26,-17,-48,-37c0,0,-22,-23,-38,-48c0,0,-17,-28,-25,-60c0,0,-11,-32,-10,-73c0,0,0,-44,13,-81c0,0,11,-38,35,-63c0,0,22,-27,54,-41c0,0,31,-15,70,-15c0,0,1,0,1,0Zm36,571c0,0,28,16,49,35c0,0,20,19,33,43c0,0,12,23,19,53c0,0,6,29,6,67c0,0,0,33,-9,65c0,0,-10,32,-27,56c0,0,-19,25,-44,41c0,0,-28,14,-62,15c0,0,-32,-1,-55,-13c0,0,-25,-14,-41,-36c0,0,-17,-24,-25,-54c0,0,-9,-32,-9,-68c0,0,0,-40,11,-70c0,0,10,-30,32,-53c0,0,21,-24,51,-43c0,0,30,-19,71,-38ZM422,-14c-2,0,-3,0,-5,0h-1c-10,0,-99,1,-165,22c0,0,-70,23,-115,63c0,0,-47,39,-68,93c0,0,-22,54,-22,114c0,0,-1,49,16,89c0,0,15,39,45,72c0,0,30,32,72,60c0,0,40,26,91,52c0,0,-92,53,-139,120c0,0,-50,68,-50,157c0,0,0,52,19,104c0,0,18,49,60,89c0,0,41,38,109,62c0,0,68,23,167,23c0,0,79,0,141,-20c0,0,60,-20,102,-56c0,0,40,-36,62,-84c0,0,20,-49,20,-108c0,0,0,-46,-14,-80c0,0,-15,-36,-42,-63c0,0,-27,-30,-65,-54c0,0,-38,-25,-86,-49c0,0,68,-34,117,-68c0,0,48,-35,79,-70c0,0,30,-38,44,-78c0,0,14,-42,14,-87c0,0,-1,-73,-26,-129c0,0,-27,-57,-77,-95C705,65,654,25,582,6c0,0,-71,-20,-160,-20Z" 
id="f0_16"
transform="scale(0.001,-0.001)" />

<path d="M78,0V112L333,407c0,0,61,70,103,126c0,0,40,56,66,106c0,0,25,49,37,97c0,0,11,47,11,100c0,0,0,43,-9,79c0,0,-11,35,-29,61c0,0,-19,25,-48,40c0,0,-31,13,-70,13c0,0,-53,0,-84,-18c0,0,-33,-20,-52,-50c0,0,-19,-31,-25,-73c0,0,-7,-41,-7,-86c0,0,-28,0,-51,4c0,0,-24,4,-42,17c0,0,-18,11,-28,30c0,0,-10,19,-10,48c0,0,0,43,19,82c0,0,19,37,57,65c0,0,36,28,93,43c0,0,56,15,130,15c0,0,72,0,130,-18c0,0,56,-19,97,-51c0,0,41,-34,62,-81c0,0,21,-47,21,-105c0,0,-1,-54,-17,-104c0,0,-18,-52,-50,-104c0,0,-33,-54,-80,-111c0,0,-48,-58,-108,-124L191,122H545c7,0,36,1,56,10c0,0,21,10,36,25c0,0,14,15,22,37c0,0,7,20,13,42l6,28h61V0Z" 
id="f1_e"
transform="scale(0.001,-0.001)" />

<path d="M427,67c0,0,56,0,94,33c0,0,38,32,62,94c0,0,23,61,34,151c0,0,10,88,10,202c0,0,0,112,-10,202c0,0,-11,88,-34,150c0,0,-24,60,-61,93c0,0,-39,31,-93,31c0,0,-56,0,-94,-31c0,0,-40,-33,-63,-93c0,0,-24,-62,-34,-150c0,0,-10,-90,-10,-202c0,0,0,-114,10,-202c0,0,10,-90,34,-151c0,0,23,-62,62,-94c0,0,38,-33,93,-33Zm0,-81c0,0,-94,0,-161,39c0,0,-69,41,-112,115c0,0,-44,73,-64,178c0,0,-22,103,-21,230c0,0,-1,126,21,230c0,0,20,103,64,176c0,0,44,72,112,113c0,0,67,39,163,39c0,0,89,0,157,-39c0,0,65,-41,111,-113c0,0,45,-73,67,-176c0,0,21,-104,22,-231c0,0,-1,-127,-22,-230c0,0,-22,-104,-67,-177C697,140,652,66,585,25c0,0,-67,-39,-158,-39Z" 
id="f1_f"
transform="scale(0.001,-0.001)" />

<path d="M197,0V27c0,0,71,2,92,13c0,0,21,10,29,29c0,0,9,18,9,109V725c0,0,0,110,-8,141c0,0,-5,24,-19,35c0,0,-14,11,-33,11c0,0,-28,0,-77,-23l-11,23l246,121h25V178c0,0,0,-85,7,-106c0,0,7,-21,29,-32c0,0,23,-11,91,-13V0Z" 
id="f2_l"
transform="scale(0.001,-0.001)" />

<path d="M394,23c0,0,80,0,129,45c0,0,48,45,48,110c0,0,0,54,-28,97c0,0,-53,79,-214,206c0,0,-62,-52,-92,-114c0,0,-30,-61,-30,-133c0,0,0,-96,53,-154c0,0,52,-57,134,-57Zm17,566c0,0,90,81,114,128c0,0,24,46,24,105c0,0,0,79,-44,123c0,0,-44,45,-121,45c0,0,-76,0,-124,-45c0,0,-48,-44,-48,-103c0,0,0,-38,20,-77c0,0,20,-39,56,-74L411,589ZM382,-17c0,0,-144,0,-225,90c0,0,-64,72,-64,158c0,0,0,67,45,133c0,0,45,66,156,146c0,0,-121,98,-156,158c0,0,-34,59,-34,124c0,0,0,98,76,169c0,0,76,72,202,72c0,0,123,0,198,-67c0,0,74,-66,74,-151c0,0,0,-57,-40,-116c0,0,-40,-59,-168,-139c0,0,132,-101,174,-159c0,0,57,-76,57,-161c0,0,0,-106,-82,-182c0,0,-81,-75,-213,-75Z" 
id="f2_s"
transform="scale(0.001,-0.001)" />


</defs>
</svg>