<?xml version="1.0" encoding="UTF-8" standalone="no"?>
<!DOCTYPE svg PUBLIC "-//W3C//DTD SVG 1.1//EN"
"http://www.w3.org/Graphics/SVG/1.1/DTD/svg11.dtd">
<svg viewBox="0 0 909 1286" version="1.1" xmlns="http://www.w3.org/2000/svg" xmlns:xlink="http://www.w3.org/1999/xlink">
<defs>
<clipPath id="c0_110"><path d="M35.1,1194.7V113.1H873.9V1194.7Z" /></clipPath>
</defs>
<image preserveAspectRatio="none" x="47" y="113" width="459" height="105" xlink:href="img/1.png" />
<image preserveAspectRatio="none" x="47" y="237" width="427" height="105" xlink:href="img/2.png" />
<image preserveAspectRatio="none" x="47" y="361" width="434" height="142" xlink:href="img/3.png" />
<image preserveAspectRatio="none" x="47" y="521" width="193" height="70" xlink:href="img/4.png" />
<image preserveAspectRatio="none" x="47" y="611" width="81" height="32" xlink:href="img/5.png" />
<image preserveAspectRatio="none" x="47" y="662" width="298" height="68" xlink:href="img/6.png" />
<g clip-path="url(#c0_110)">
<g fill="#000000" >
<use xlink:href="#f0_16" transform="matrix(12,0,0,12,47.4,806.7)" />
<use xlink:href="#f0_n" transform="matrix(12,0,0,12,57.6,806.7)" />
<use xlink:href="#f0_10" transform="matrix(12,0,0,12,67.9,806.7)" />
<use xlink:href="#f0_6" transform="matrix(12,0,0,12,79.6,806.7)" />
<use xlink:href="#f0_b" transform="matrix(12,0,0,12,89.2,806.7)" />
<use xlink:href="#f0_13" transform="matrix(12,0,0,12,100.4,806.7)" />
<use xlink:href="#f0_5" transform="matrix(12,0,0,12,111.5,806.7)" />
<use xlink:href="#f0_p" transform="matrix(12,0,0,12,126.7,806.7)" />
<use xlink:href="#f0_n" transform="matrix(12,0,0,12,137,806.7)" />
<use xlink:href="#f0_u" transform="matrix(12,0,0,12,142.5,806.7)" />
<use xlink:href="#f0_17" transform="matrix(12,0,0,12,152.8,806.7)" />
<use xlink:href="#f0_u" transform="matrix(12,0,0,12,163,806.7)" />
<use xlink:href="#f0_n" transform="matrix(12,0,0,12,173.2,806.7)" />
<use xlink:href="#f0_r" transform="matrix(12,0,0,12,178.8,806.7)" />
<use xlink:href="#f0_17" transform="matrix(12,0,0,12,189,806.7)" />
<use xlink:href="#f0_r" transform="matrix(12,0,0,12,199.3,806.7)" />
<use xlink:href="#f0_n" transform="matrix(12,0,0,12,209.5,806.7)" />
<use xlink:href="#f0_z" transform="matrix(12,0,0,12,215.1,806.7)" />
<use xlink:href="#f0_17" transform="matrix(12,0,0,12,225.3,806.7)" />
<use xlink:href="#f0_18" transform="matrix(12,0,0,12,235.6,806.7)" />
<use xlink:href="#f0_18" transform="matrix(12,0,0,12,241.2,806.7)" />
<use xlink:href="#f0_17" transform="matrix(12,0,0,12,246.9,806.7)" />
<use xlink:href="#f0_d" transform="matrix(12,0,0,12,257.2,806.7)" />
</g>
</g>
<image preserveAspectRatio="none" x="269" y="768" width="241" height="68" xlink:href="img/7.png" />
<g clip-path="url(#c0_110)">
<g fill="#000000" >
<use xlink:href="#f0_15" transform="matrix(12,0,0,12,47.4,892.2)" />
<use xlink:href="#f0_d" transform="matrix(12,0,0,12,61.2,892.2)" />
<use xlink:href="#f0_t" transform="matrix(12,0,0,12,73.4,892.2)" />
<use xlink:href="#f0_n" transform="matrix(12,0,0,12,82.3,892.2)" />
</g>
</g>
<image preserveAspectRatio="none" x="93" y="854" width="459" height="67" xlink:href="img/8.png" />
<image preserveAspectRatio="none" x="47" y="940" width="292" height="102" xlink:href="img/9.png" />
<image preserveAspectRatio="none" x="47" y="1060" width="127" height="42" xlink:href="img/10.png" />
<g fill="#000000" >
<use xlink:href="#f1_o" transform="matrix(12,0,0,12,844.9,1269.6)" />
</g>
<defs>
<path d="M374,-14c0,0,-86,0,-145,15c0,0,-60,14,-97,41c0,0,-37,25,-54,59c0,0,-17,32,-17,68c0,0,0,54,34,80c0,0,32,26,89,26c0,0,0,-33,8,-65c0,0,8,-34,29,-59c0,0,18,-26,51,-43c0,0,31,-16,76,-16c1,0,2,0,3,0c0,0,1,0,2,0c6,0,39,0,71,12c0,0,33,12,59,40c0,0,26,27,41,75c0,0,15,47,15,117c0,0,0,115,-54,171c0,0,-55,55,-154,55c0,0,-29,0,-52,-2c0,0,-24,-3,-44,-6c0,0,-20,-4,-38,-9c0,0,-19,-6,-35,-10L92,562l48,529H722V813H639l-12,52c0,0,-4,13,-9,24c0,0,-4,10,-12,18c0,0,-8,8,-20,12c0,0,-12,3,-30,4H238c0,0,0,-2,-1,-13c0,0,-2,-13,-3,-33c0,0,-1,-20,-3,-45c0,0,-3,-26,-5,-52L214,640c0,0,12,5,31,9c0,0,19,3,41,7c0,0,22,3,48,6c0,0,24,0,48,1c0,0,88,0,161,-20c0,0,72,-22,123,-61c0,0,50,-42,79,-102c0,0,28,-62,28,-144c0,0,0,-100,-36,-166c0,0,-37,-69,-94,-109C643,61,585,19,515,3c0,0,-71,-17,-141,-17Z" 
id="f0_16"
transform="scale(0.001,-0.001)" />

<path d="M232,-11c0,0,-26,0,-49,7c0,0,-24,4,-40,19c0,0,-17,13,-27,37c0,0,-10,23,-9,58c0,0,-1,34,9,59c0,0,10,22,27,37c0,0,16,14,40,20c0,0,23,5,49,6c0,0,25,-1,48,-6c0,0,23,-6,40,-20c0,0,16,-15,28,-37c0,0,9,-25,9,-59c0,0,0,-35,-9,-58c0,0,-12,-24,-28,-37C320,15,303,0,280,-4c0,0,-23,-7,-48,-7Z" 
id="f0_n"
transform="scale(0.001,-0.001)" />

<path d="M465,506c8,0,58,0,94,14c0,0,39,14,65,45c0,0,24,30,37,79c0,0,11,48,11,117c0,0,0,60,-10,107c0,0,-11,44,-32,74c0,0,-23,29,-57,44c0,0,-36,14,-87,14H426V506h37c0,0,1,0,2,0ZM43,0V81h64c0,0,16,0,31,4c0,0,14,3,25,13c0,0,9,10,16,30c0,0,5,19,6,53V917c0,0,-1,30,-6,49c0,0,-7,17,-16,28c0,0,-12,9,-26,13c0,0,-15,3,-30,3H43v81H512c0,0,106,0,184,-23c0,0,78,-23,131,-64c0,0,50,-43,76,-102c0,0,26,-61,26,-135c0,0,-1,-69,-24,-132c0,0,-24,-64,-78,-112c0,0,-53,-49,-139,-77c0,0,-87,-29,-210,-29H426V172c0,0,0,-30,7,-47c0,0,6,-20,18,-28c0,0,11,-10,26,-13c0,0,11,-3,26,-3c1,0,3,0,4,0h94V0Z" 
id="f0_10"
transform="scale(0.001,-0.001)" />

<path d="M31,0V81h4c0,0,25,0,48,4c0,0,21,3,37,16c0,0,16,11,25,33c0,0,7,20,8,57V634c0,0,0,33,-8,55c0,0,-8,20,-22,31c0,0,-15,11,-35,15c0,0,-20,3,-45,3H38v81H347L377,700h8c0,0,14,34,33,60c0,0,17,26,43,43c0,0,24,16,59,26c0,0,34,7,81,8c0,0,90,0,132,-31c0,0,43,-33,43,-93c0,0,-1,-71,-51,-109c0,0,-50,-39,-141,-39c0,0,-1,0,-2,0c0,0,-1,32,-4,56c0,0,-4,23,-12,39c0,0,-9,16,-23,24c0,0,-15,8,-36,8c0,0,-28,0,-47,-13c0,0,-20,-14,-33,-34c0,0,-14,-22,-22,-49c0,0,-9,-27,-13,-54c0,0,-6,-28,-6,-52c0,0,0,-25,0,-42V184c0,0,0,-34,9,-54c0,0,7,-22,22,-32c0,0,13,-10,34,-13c0,0,18,-4,41,-4h49V0Z" 
id="f0_6"
transform="scale(0.001,-0.001)" />

<path d="M469,81c0,0,43,0,75,22c0,0,30,21,49,63c0,0,19,41,27,103c0,0,7,61,8,144c0,0,-1,81,-8,144c0,0,-9,60,-28,102c0,0,-20,40,-50,62c0,0,-31,20,-74,20c0,0,-45,0,-75,-20c0,0,-30,-22,-49,-62c0,0,-19,-42,-27,-102c0,0,-8,-63,-8,-144c0,0,0,-83,9,-144c0,0,7,-62,27,-103c0,0,19,-42,50,-63c0,0,29,-22,74,-22Zm-1,-95c0,0,-1,0,-2,0c0,0,-92,0,-165,26c0,0,-73,25,-123,79c0,0,-52,52,-79,134c0,0,-28,80,-27,188c0,0,-1,215,101,320c0,0,101,105,298,105c0,0,91,0,165,-26c0,0,72,-26,123,-79c0,0,50,-53,79,-132c0,0,27,-81,27,-188c0,0,0,-217,-101,-322C764,91,662,-14,468,-14Z" 
id="f0_b"
transform="scale(0.001,-0.001)" />

<path d="M373,0L122,665c0,0,-9,21,-18,35c0,0,-11,15,-26,23c0,0,-15,7,-33,12c0,0,-20,3,-45,3v81H474V738H410c0,0,-24,0,-37,-12c0,0,-15,-14,-14,-37c0,0,-1,-19,5,-36c0,0,5,-19,9,-31L475,333c0,0,18,-49,33,-98c0,0,13,-49,21,-88c0,0,3,18,10,42c0,0,7,23,14,47c0,0,6,21,12,41c0,0,6,18,8,26L677,609c0,0,6,21,12,43c0,0,5,20,5,42c0,0,0,24,-17,35c0,0,-18,9,-43,9H590v81H926V738H895c0,0,-15,-1,-27,-4c0,0,-13,-4,-24,-15c0,0,-13,-13,-23,-33c0,0,-12,-23,-25,-59L574,0Z" 
id="f0_13"
transform="scale(0.001,-0.001)" />

<path d="M574,490c0,0,0,58,-6,105c0,0,-8,45,-22,78c0,0,-15,32,-37,49c0,0,-24,17,-56,17c0,0,-65,0,-103,-63c0,0,-38,-64,-38,-186ZM468,-14c0,0,-98,0,-171,27c0,0,-75,28,-125,82c0,0,-50,54,-75,133c0,0,-26,76,-25,177c0,0,-1,107,25,189c0,0,25,80,74,136c0,0,48,53,119,82c0,0,70,26,161,26c0,0,82,0,149,-23c0,0,65,-24,112,-70c0,0,46,-47,71,-115c0,0,25,-69,25,-159V392H308c0,0,0,-77,15,-132c0,0,14,-55,40,-91c0,0,26,-36,63,-53c0,0,37,-17,85,-17c0,0,1,0,2,0c8,0,41,1,71,10c0,0,34,9,61,26c0,0,28,16,48,40c0,0,21,22,34,48c0,0,41,-22,41,-75c0,0,0,-32,-18,-61c0,0,-18,-31,-55,-53C695,34,658,12,602,0c0,0,-57,-14,-134,-14Z" 
id="f0_5"
transform="scale(0.001,-0.001)" />

<path d="M148,0V81H274c0,0,1,0,2,0c5,0,19,1,31,6c0,0,14,4,24,15c0,0,10,11,14,31c0,0,5,18,5,48V946c0,0,-29,-36,-55,-65c0,0,-26,-29,-50,-50c0,0,-23,-22,-46,-32c0,0,-22,-12,-44,-12q-1,0,-2,0c0,0,-19,0,-34,8c0,0,-18,8,-29,23c0,0,-12,14,-18,35c0,0,-9,21,-8,47c0,0,23,5,49,15c0,0,25,7,54,22c0,0,28,13,61,34c0,0,32,18,71,47l108,79H577V181c0,0,0,-24,4,-43c0,0,3,-19,12,-31c0,0,8,-14,24,-19c0,0,14,-7,39,-7H779V0Z" 
id="f0_p"
transform="scale(0.001,-0.001)" />

<path d="M54,0V157L280,388c0,0,70,72,116,130c0,0,46,59,72,112c0,0,25,52,36,105c0,0,10,51,11,110c0,0,0,87,-32,128c0,0,-32,40,-88,40c0,0,-77,-1,-109,-66c0,0,-31,-67,-31,-198c0,0,-44,0,-79,8c0,0,-37,8,-62,26c0,0,-26,18,-40,47c0,0,-15,28,-14,70c0,0,0,41,21,79c0,0,21,36,63,65c0,0,41,28,105,46c0,0,62,16,146,16c0,0,85,0,152,-17c0,0,65,-19,109,-51c0,0,44,-32,67,-79c0,0,22,-47,22,-106c0,0,0,-36,-7,-70c0,0,-8,-33,-26,-69c0,0,-20,-37,-49,-75c0,0,-30,-41,-74,-88c0,0,-44,-49,-102,-107c0,0,-60,-58,-136,-131L198,168H555c4,0,48,1,80,27c0,0,32,27,46,79l13,47h86V0Z" 
id="f0_u"
transform="scale(0.001,-0.001)" />

<path d="M371,219V492H99V601H371V874H481V601H755V492H481V219Z" 
id="f0_17"
transform="scale(0.001,-0.001)" />

<path d="M376,-14c-1,0,-3,0,-5,0c0,0,-87,0,-148,14c0,0,-63,14,-102,40c0,0,-40,26,-59,59c0,0,-19,32,-19,69c0,0,0,29,10,51c0,0,10,23,28,38c0,0,18,15,42,23c0,0,23,7,49,7c0,0,0,-48,14,-85c0,0,14,-37,39,-61c0,0,24,-25,59,-37c0,0,35,-12,76,-12c0,0,37,0,72,10c0,0,33,10,60,36c0,0,25,25,41,69c0,0,15,43,15,109c0,0,0,44,-15,81c0,0,-15,36,-45,63c0,0,-31,26,-75,41c0,0,-44,14,-101,15H217v95H319c7,0,50,1,85,16c0,0,36,15,60,46c0,0,23,30,36,71c0,0,12,41,12,92c0,0,0,83,-32,130c0,0,-33,47,-95,47c0,0,-42,0,-66,-20c0,0,-27,-20,-41,-54c0,0,-15,-33,-19,-76c0,0,-6,-42,-5,-87c0,0,-96,0,-147,33c0,0,-52,32,-52,103c0,0,0,41,22,76c0,0,21,35,63,62c0,0,42,26,106,41c0,0,62,15,146,15c0,0,81,0,147,-16c0,0,65,-17,111,-49c0,0,46,-32,71,-78c0,0,24,-47,24,-106c0,0,0,-51,-18,-95c0,0,-18,-44,-49,-77c0,0,-31,-35,-74,-60c0,0,-42,-27,-92,-43c0,0,45,-8,94,-26c0,0,48,-20,88,-50c0,0,39,-32,65,-79c0,0,25,-47,25,-112c0,0,0,-93,-34,-157c0,0,-36,-64,-93,-101C657,57,599,17,525,1c0,0,-72,-15,-149,-15Z" 
id="f0_r"
transform="scale(0.001,-0.001)" />

<path d="M445,385V652c0,0,0,67,0,145c0,0,0,77,9,149c0,0,-9,-18,-24,-49c0,0,-17,-32,-35,-64c0,0,-20,-34,-36,-63c0,0,-17,-31,-26,-44L127,385ZM275,0V81h43c0,0,25,0,49,4c0,0,22,3,40,16c0,0,16,11,26,33c0,0,10,20,10,57v93H20v93l434,714H666V385H825V284H666V191c0,0,0,-37,11,-57c0,0,9,-22,26,-33c0,0,16,-13,40,-16c0,0,22,-4,48,-4h20V0Z" 
id="f0_z"
transform="scale(0.001,-0.001)" />

<path d="M38,336V497H436V336Z" 
id="f0_18"
transform="scale(0.001,-0.001)" />

<path d="M31,0V81h3c0,0,25,0,47,4c0,0,21,3,38,14c0,0,16,11,25,32c0,0,9,20,9,55V639c0,0,0,32,-8,51c0,0,-8,19,-22,31c0,0,-15,9,-35,14c0,0,-20,3,-45,3H38v81H359L379,710h7c0,0,24,43,50,69c0,0,25,25,54,39c0,0,29,13,62,17c0,0,32,3,68,3c0,0,59,0,106,-17c0,0,47,-17,80,-53c0,0,32,-36,49,-91c0,0,16,-56,17,-133V189c0,0,0,-35,7,-56c0,0,5,-22,18,-33c0,0,12,-12,33,-15c0,0,18,-4,45,-4h4V0H640V503c0,0,-1,48,-6,88c0,0,-7,38,-21,64c0,0,-15,25,-38,40c0,0,-24,14,-57,14c0,0,-38,-1,-64,-20c0,0,-26,-19,-40,-51c0,0,-16,-33,-22,-76c0,0,-7,-44,-7,-90V181c0,0,0,-33,8,-52c0,0,7,-20,22,-30c0,0,13,-11,35,-14c0,0,19,-4,45,-4h5V0Z" 
id="f0_d"
transform="scale(0.001,-0.001)" />

<path d="M674,452L593,703c0,0,-9,25,-16,55c0,0,-10,28,-18,58c0,0,-8,29,-16,60c0,0,-9,29,-14,56c0,0,-7,-24,-16,-51c0,0,-9,-28,-18,-57c0,0,-11,-29,-21,-58c0,0,-10,-29,-19,-56L365,452ZM6,0V81H25c0,0,20,0,37,5c0,0,16,4,31,17c0,0,14,12,28,34c0,0,12,20,26,55l331,899H688L1007,191c0,0,11,-33,24,-53c0,0,12,-22,27,-34c0,0,13,-12,30,-17c0,0,15,-6,32,-6c1,0,2,0,3,0h27V0H646V81h60c0,0,10,0,23,4c0,0,11,2,21,10c0,0,9,7,15,18c0,0,6,12,6,27c0,0,0,19,-4,36c0,0,-5,16,-9,30L704,359H333L289,228c0,0,-7,-20,-12,-44c0,0,-7,-26,-7,-44c0,0,0,-15,6,-26c0,0,5,-11,16,-18c0,0,9,-8,22,-11c0,0,12,-4,25,-4h65V0Z" 
id="f0_15"
transform="scale(0.001,-0.001)" />

<path d="M357,-14c-1,0,-3,0,-4,0c0,0,-83,0,-141,14c0,0,-60,12,-96,36c0,0,-37,23,-53,57c0,0,-17,32,-17,70c0,0,0,37,14,61c0,0,15,22,37,35c0,0,21,12,46,17c0,0,25,3,45,4c0,0,-1,-49,12,-86c0,0,12,-39,33,-64c0,0,21,-27,53,-41c0,0,28,-14,64,-14c1,0,2,0,3,0c0,0,39,0,68,8c0,0,28,7,47,23c0,0,18,14,27,34c0,0,9,17,9,39c0,0,0,25,-9,46c0,0,-10,18,-31,37c0,0,-22,16,-57,34c0,0,-38,16,-91,35c0,0,-62,21,-109,46c0,0,-48,24,-79,56c0,0,-33,30,-50,71c0,0,-17,38,-17,91c0,0,0,60,24,106c0,0,22,46,66,76c0,0,44,30,104,45c0,0,61,14,134,15c0,0,73,0,123,-12c0,0,50,-13,83,-33c0,0,32,-20,47,-45c0,0,14,-26,15,-52c0,0,0,-51,-36,-78c0,0,-37,-27,-120,-27c0,0,0,76,-33,119c0,0,-35,41,-101,41c0,0,-25,0,-47,-6c0,0,-24,-5,-40,-17c0,0,-17,-13,-26,-30c0,0,-11,-18,-11,-41c0,0,-1,-26,10,-44c0,0,9,-20,33,-37c0,0,23,-18,63,-36c0,0,40,-18,103,-39c0,0,50,-18,94,-40c0,0,43,-24,74,-53c0,0,30,-30,48,-67c0,0,16,-39,17,-86c0,0,-1,-65,-22,-114c0,0,-22,-50,-65,-84C598,56,555,21,494,4c0,0,-60,-18,-137,-18Z" 
id="f0_t"
transform="scale(0.001,-0.001)" />

<path d="M452,373V875L97,373ZM452,0V267H23v95l470,671h82V373H711V267H575V0Z" 
id="f1_o"
transform="scale(0.001,-0.001)" />


</defs>
</svg>