<?xml version="1.0" encoding="UTF-8" standalone="no"?>
<!DOCTYPE svg PUBLIC "-//W3C//DTD SVG 1.1//EN"
"http://www.w3.org/Graphics/SVG/1.1/DTD/svg11.dtd">
<svg viewBox="0 0 909 1286" version="1.1" xmlns="http://www.w3.org/2000/svg" xmlns:xlink="http://www.w3.org/1999/xlink">
<defs>
</defs>
<image preserveAspectRatio="none" x="47" y="113" width="236" height="289" xlink:href="img/1.png" />
<image preserveAspectRatio="none" x="47" y="422" width="249" height="32" xlink:href="img/2.png" />
<image preserveAspectRatio="none" x="47" y="474" width="237" height="32" xlink:href="img/3.png" />
<image preserveAspectRatio="none" x="47" y="526" width="237" height="32" xlink:href="img/4.png" />
<image preserveAspectRatio="none" x="47" y="578" width="234" height="32" xlink:href="img/5.png" />
<image preserveAspectRatio="none" x="47" y="629" width="228" height="33" xlink:href="img/6.png" />
<image preserveAspectRatio="none" x="47" y="683" width="63" height="29" xlink:href="img/7.png" />
<image preserveAspectRatio="none" x="47" y="732" width="214" height="32" xlink:href="img/8.png" />
<image preserveAspectRatio="none" x="47" y="784" width="188" height="32" xlink:href="img/9.png" />
<image preserveAspectRatio="none" x="47" y="834" width="106" height="69" xlink:href="img/10.png" />
<image preserveAspectRatio="none" x="47" y="921" width="109" height="69" xlink:href="img/11.png" />
<image preserveAspectRatio="none" x="47" y="1008" width="182" height="69" xlink:href="img/12.png" />
<image preserveAspectRatio="none" x="47" y="1095" width="495" height="69" xlink:href="img/13.png" />
<g fill="#000000" >
<use xlink:href="#f0_m" transform="matrix(12,0,0,12,835.7,1269.6)" />
<use xlink:href="#f0_q" transform="matrix(12,0,0,12,844.9,1269.6)" />
</g>
<defs>
<path d="M33,0V27c0,0,264,241,371,393c0,0,108,152,108,278c0,0,0,96,-59,158c0,0,-59,62,-141,62c0,0,-75,0,-134,-43c0,0,-59,-44,-88,-128H63c0,0,18,138,95,212c0,0,77,74,193,74c0,0,123,0,205,-80c0,0,83,-79,83,-186c0,0,0,-77,-36,-154c0,0,-55,-121,-179,-256C424,357,238,154,191,112H455c0,0,81,0,114,6c0,0,32,6,58,25c0,0,27,18,46,52h27L630,0Z" 
id="f0_m"
transform="scale(0.001,-0.001)" />

<path d="M405,24c0,0,65,0,116,62c0,0,51,61,51,174c0,0,0,128,-50,221c0,0,-51,93,-144,93c0,0,-29,0,-61,-12c0,0,-33,-12,-96,-51c0,0,-14,-101,-14,-163c0,0,0,-72,27,-155c0,0,26,-84,79,-134c0,0,38,-35,92,-35ZM384,-17c0,0,-104,0,-177,68C207,51,66,185,66,397c0,0,0,136,54,258c0,0,54,122,156,217c0,0,101,95,193,128c0,0,93,33,172,33h44v-28c0,0,-99,-10,-161,-39c0,0,-62,-29,-123,-90c0,0,-61,-60,-101,-135c0,0,-39,-74,-66,-176c0,0,107,73,215,73c0,0,104,0,180,-83c0,0,76,-84,76,-215c0,0,0,-126,-77,-231c0,0,-92,-126,-244,-126Z" 
id="f0_q"
transform="scale(0.001,-0.001)" />


</defs>
</svg>