<?xml version="1.0" encoding="UTF-8" standalone="no"?>
<!DOCTYPE svg PUBLIC "-//W3C//DTD SVG 1.1//EN"
"http://www.w3.org/Graphics/SVG/1.1/DTD/svg11.dtd">
<svg viewBox="0 0 909 1286" version="1.1" xmlns="http://www.w3.org/2000/svg" xmlns:xlink="http://www.w3.org/1999/xlink">
<defs>
</defs>
<image preserveAspectRatio="none" x="47" y="113" width="343" height="127" xlink:href="img/1.png" />
<image preserveAspectRatio="none" x="47" y="258" width="116" height="69" xlink:href="img/2.png" />
<image preserveAspectRatio="none" x="47" y="345" width="145" height="66" xlink:href="img/3.png" />
<image preserveAspectRatio="none" x="47" y="429" width="124" height="66" xlink:href="img/4.png" />
<g fill="#000000" >
<use xlink:href="#f0_p" transform="matrix(12,0,0,12,47.4,556.1)" />
<use xlink:href="#f0_y" transform="matrix(12,0,0,12,57.6,556.1)" />
<use xlink:href="#f0_n" transform="matrix(12,0,0,12,67.8,556.1)" />
<use xlink:href="#f0_v" transform="matrix(12,0,0,12,78.2,556.1)" />
<use xlink:href="#f0_d" transform="matrix(12,0,0,12,85.5,556.1)" />
<use xlink:href="#f0_3" transform="matrix(12,0,0,12,102.5,556.1)" />
<use xlink:href="#f0_o" transform="matrix(12,0,0,12,118.2,556.1)" />
<use xlink:href="#f0_8" transform="matrix(12,0,0,12,127.8,556.1)" />
<use xlink:href="#f0_3" transform="matrix(12,0,0,12,134.3,556.1)" />
<use xlink:href="#f0_s" transform="matrix(12,0,0,12,145.3,556.1)" />
<use xlink:href="#f0_s" transform="matrix(12,0,0,12,154.2,556.1)" />
<use xlink:href="#f0_b" transform="matrix(12,0,0,12,167.9,556.1)" />
<use xlink:href="#f0_e" transform="matrix(12,0,0,12,179.1,556.1)" />
<use xlink:href="#f0_t" transform="matrix(12,0,0,12,191.3,556.1)" />
<use xlink:href="#f0_12" transform="matrix(12,0,0,12,201.5,556.1)" />
<use xlink:href="#f0_s" transform="matrix(12,0,0,12,216.5,556.1)" />
<use xlink:href="#f0_4" transform="matrix(12,0,0,12,225.4,556.1)" />
<use xlink:href="#f0_m" transform="matrix(12,0,0,12,232.8,556.1)" />
<use xlink:href="#f0_a" transform="matrix(12,0,0,12,245.1,556.1)" />
<use xlink:href="#f0_5" transform="matrix(12,0,0,12,257,556.1)" />
<use xlink:href="#f0_d" transform="matrix(12,0,0,12,267.4,556.1)" />
<use xlink:href="#f0_4" transform="matrix(12,0,0,12,279.6,556.1)" />
<use xlink:href="#f0_s" transform="matrix(12,0,0,12,287,556.1)" />
<use xlink:href="#f0_11" transform="matrix(12,0,0,12,296,556.1)" />
<use xlink:href="#f0_p" transform="matrix(12,0,0,12,306.1,556.1)" />
<use xlink:href="#f0_t" transform="matrix(12,0,0,12,316.3,556.1)" />
<use xlink:href="#f0_u" transform="matrix(12,0,0,12,331.3,556.1)" />
<use xlink:href="#f0_3" transform="matrix(12,0,0,12,343.5,556.1)" />
<use xlink:href="#f0_1b" transform="matrix(12,0,0,12,354.5,556.1)" />
<use xlink:href="#f0_5" transform="matrix(12,0,0,12,365.6,556.1)" />
<use xlink:href="#f0_4" transform="matrix(12,0,0,12,380.8,556.1)" />
<use xlink:href="#f0_3" transform="matrix(12,0,0,12,388.2,556.1)" />
<use xlink:href="#f0_z" transform="matrix(12,0,0,12,399.2,556.1)" />
<use xlink:href="#f0_5" transform="matrix(12,0,0,12,410.9,556.1)" />
<use xlink:href="#f0_d" transform="matrix(12,0,0,12,421.3,556.1)" />
<use xlink:href="#f0_f" transform="matrix(12,0,0,12,438.3,556.1)" />
<use xlink:href="#f0_3" transform="matrix(12,0,0,12,456.4,556.1)" />
<use xlink:href="#f0_4" transform="matrix(12,0,0,12,467.3,556.1)" />
<use xlink:href="#f0_u" transform="matrix(12,0,0,12,474.7,556.1)" />
<use xlink:href="#f0_5" transform="matrix(12,0,0,12,487,556.1)" />
<use xlink:href="#f0_f" transform="matrix(12,0,0,12,497.4,556.1)" />
<use xlink:href="#f0_3" transform="matrix(12,0,0,12,515.5,556.1)" />
<use xlink:href="#f0_4" transform="matrix(12,0,0,12,526.5,556.1)" />
<use xlink:href="#f0_7" transform="matrix(12,0,0,12,533.9,556.1)" />
<use xlink:href="#f0_o" transform="matrix(12,0,0,12,540.3,556.1)" />
<use xlink:href="#f0_s" transform="matrix(12,0,0,12,550,556.1)" />
<use xlink:href="#f0_11" transform="matrix(12,0,0,12,558.9,556.1)" />
<use xlink:href="#f0_10" transform="matrix(12,0,0,12,569,556.1)" />
<use xlink:href="#f0_u" transform="matrix(12,0,0,12,584,556.1)" />
<use xlink:href="#f0_3" transform="matrix(12,0,0,12,596.2,556.1)" />
<use xlink:href="#f0_1b" transform="matrix(12,0,0,12,607.2,556.1)" />
<use xlink:href="#f0_5" transform="matrix(12,0,0,12,618.3,556.1)" />
<use xlink:href="#f0_4" transform="matrix(12,0,0,12,633.5,556.1)" />
<use xlink:href="#f0_3" transform="matrix(12,0,0,12,640.9,556.1)" />
<use xlink:href="#f0_z" transform="matrix(12,0,0,12,651.9,556.1)" />
<use xlink:href="#f0_5" transform="matrix(12,0,0,12,663.5,556.1)" />
<use xlink:href="#f0_d" transform="matrix(12,0,0,12,674,556.1)" />
<use xlink:href="#f0_f" transform="matrix(12,0,0,12,691,556.1)" />
<use xlink:href="#f0_3" transform="matrix(12,0,0,12,709,556.1)" />
<use xlink:href="#f0_4" transform="matrix(12,0,0,12,720,556.1)" />
<use xlink:href="#f0_u" transform="matrix(12,0,0,12,727.4,556.1)" />
<use xlink:href="#f0_5" transform="matrix(12,0,0,12,739.6,556.1)" />
<use xlink:href="#f0_f" transform="matrix(12,0,0,12,750.1,556.1)" />
<use xlink:href="#f0_3" transform="matrix(12,0,0,12,768.2,556.1)" />
<use xlink:href="#f0_4" transform="matrix(12,0,0,12,779.1,556.1)" />
<use xlink:href="#f0_7" transform="matrix(12,0,0,12,786.5,556.1)" />
<use xlink:href="#f0_o" transform="matrix(12,0,0,12,793,556.1)" />
<use xlink:href="#f0_s" transform="matrix(12,0,0,12,802.6,556.1)" />
<use xlink:href="#f0_18" transform="matrix(12,0,0,12,816.3,556.1)" />
<use xlink:href="#f0_m" transform="matrix(12,0,0,12,828.2,556.1)" />
<use xlink:href="#f0_4" transform="matrix(12,0,0,12,840.4,556.1)" />
<use xlink:href="#f0_d" transform="matrix(12,0,0,12,47.4,588.2)" />
<use xlink:href="#f0_b" transform="matrix(12,0,0,12,59.6,588.2)" />
<use xlink:href="#f0_4" transform="matrix(12,0,0,12,70.8,588.2)" />
<use xlink:href="#f0_18" transform="matrix(12,0,0,12,83,588.2)" />
<use xlink:href="#f0_7" transform="matrix(12,0,0,12,94.8,588.2)" />
<use xlink:href="#f0_b" transform="matrix(12,0,0,12,101.3,588.2)" />
<use xlink:href="#f0_8" transform="matrix(12,0,0,12,112.5,588.2)" />
<use xlink:href="#f0_b" transform="matrix(12,0,0,12,119,588.2)" />
<use xlink:href="#f0_l" transform="matrix(12,0,0,12,130.2,588.2)" />
<use xlink:href="#f0_g" transform="matrix(12,0,0,12,140.4,588.2)" />
<use xlink:href="#f0_n" transform="matrix(12,0,0,12,151,588.2)" />
<use xlink:href="#f0_15" transform="matrix(12,0,0,12,161.3,588.2)" />
<use xlink:href="#f0_7" transform="matrix(12,0,0,12,172.7,588.2)" />
<use xlink:href="#f0_d" transform="matrix(12,0,0,12,179.2,588.2)" />
<use xlink:href="#f0_a" transform="matrix(12,0,0,12,191.4,588.2)" />
<use xlink:href="#f0_4" transform="matrix(12,0,0,12,208,588.2)" />
<use xlink:href="#f0_u" transform="matrix(12,0,0,12,215.4,588.2)" />
<use xlink:href="#f0_5" transform="matrix(12,0,0,12,227.7,588.2)" />
<use xlink:href="#f0_d" transform="matrix(12,0,0,12,242.9,588.2)" />
<use xlink:href="#f0_b" transform="matrix(12,0,0,12,255.1,588.2)" />
<use xlink:href="#f0_n" transform="matrix(12,0,0,12,266.3,588.2)" />
<use xlink:href="#f0_b" transform="matrix(12,0,0,12,276.6,588.2)" />
<use xlink:href="#f0_e" transform="matrix(12,0,0,12,287.8,588.2)" />
<use xlink:href="#f0_s" transform="matrix(12,0,0,12,300,588.2)" />
<use xlink:href="#f0_4" transform="matrix(12,0,0,12,309,588.2)" />
<use xlink:href="#f0_m" transform="matrix(12,0,0,12,316.4,588.2)" />
<use xlink:href="#f0_a" transform="matrix(12,0,0,12,328.6,588.2)" />
<use xlink:href="#f0_5" transform="matrix(12,0,0,12,340.5,588.2)" />
<use xlink:href="#f0_d" transform="matrix(12,0,0,12,350.9,588.2)" />
<use xlink:href="#f0_4" transform="matrix(12,0,0,12,363.2,588.2)" />
<use xlink:href="#f0_s" transform="matrix(12,0,0,12,370.6,588.2)" />
<use xlink:href="#f0_c" transform="matrix(12,0,0,12,384.2,588.2)" />
<use xlink:href="#f0_u" transform="matrix(12,0,0,12,399.9,588.2)" />
<use xlink:href="#f0_b" transform="matrix(12,0,0,12,412.1,588.2)" />
<use xlink:href="#f0_u" transform="matrix(12,0,0,12,428.1,588.2)" />
<use xlink:href="#f0_3" transform="matrix(12,0,0,12,440.3,588.2)" />
<use xlink:href="#f0_1b" transform="matrix(12,0,0,12,451.3,588.2)" />
<use xlink:href="#f0_5" transform="matrix(12,0,0,12,462.4,588.2)" />
<use xlink:href="#f0_4" transform="matrix(12,0,0,12,477.6,588.2)" />
<use xlink:href="#f0_3" transform="matrix(12,0,0,12,485,588.2)" />
<use xlink:href="#f0_z" transform="matrix(12,0,0,12,496,588.2)" />
<use xlink:href="#f0_5" transform="matrix(12,0,0,12,507.7,588.2)" />
<use xlink:href="#f0_d" transform="matrix(12,0,0,12,518.1,588.2)" />
<use xlink:href="#f0_18" transform="matrix(12,0,0,12,535.1,588.2)" />
<use xlink:href="#f0_b" transform="matrix(12,0,0,12,547,588.2)" />
<use xlink:href="#f0_4" transform="matrix(12,0,0,12,558.2,588.2)" />
<use xlink:href="#f0_u" transform="matrix(12,0,0,12,565.6,588.2)" />
<use xlink:href="#f0_f" transform="matrix(12,0,0,12,582.6,588.2)" />
<use xlink:href="#f0_3" transform="matrix(12,0,0,12,600.6,588.2)" />
<use xlink:href="#f0_4" transform="matrix(12,0,0,12,611.6,588.2)" />
<use xlink:href="#f0_u" transform="matrix(12,0,0,12,619,588.2)" />
<use xlink:href="#f0_5" transform="matrix(12,0,0,12,631.2,588.2)" />
<use xlink:href="#f0_f" transform="matrix(12,0,0,12,641.7,588.2)" />
<use xlink:href="#f0_3" transform="matrix(12,0,0,12,659.8,588.2)" />
<use xlink:href="#f0_4" transform="matrix(12,0,0,12,670.7,588.2)" />
<use xlink:href="#f0_7" transform="matrix(12,0,0,12,678.1,588.2)" />
<use xlink:href="#f0_o" transform="matrix(12,0,0,12,684.6,588.2)" />
<use xlink:href="#f0_s" transform="matrix(12,0,0,12,694.2,588.2)" />
<use xlink:href="#f0_3" transform="matrix(12,0,0,12,707.9,588.2)" />
<use xlink:href="#f0_d" transform="matrix(12,0,0,12,718.9,588.2)" />
<use xlink:href="#f0_a" transform="matrix(12,0,0,12,731.1,588.2)" />
<use xlink:href="#f0_18" transform="matrix(12,0,0,12,747.8,588.2)" />
<use xlink:href="#f0_7" transform="matrix(12,0,0,12,759.6,588.2)" />
<use xlink:href="#f0_b" transform="matrix(12,0,0,12,766.1,588.2)" />
<use xlink:href="#f0_8" transform="matrix(12,0,0,12,777.3,588.2)" />
<use xlink:href="#f0_b" transform="matrix(12,0,0,12,783.8,588.2)" />
<use xlink:href="#f0_l" transform="matrix(12,0,0,12,795,588.2)" />
<use xlink:href="#f0_g" transform="matrix(12,0,0,12,805.2,588.2)" />
<use xlink:href="#f0_3" transform="matrix(12,0,0,12,820.6,588.2)" />
<use xlink:href="#f0_d" transform="matrix(12,0,0,12,831.6,588.2)" />
<use xlink:href="#f0_a" transform="matrix(12,0,0,12,843.8,588.2)" />
<use xlink:href="#f0_4" transform="matrix(12,0,0,12,47.4,620.3)" />
<use xlink:href="#f0_u" transform="matrix(12,0,0,12,54.8,620.3)" />
<use xlink:href="#f0_5" transform="matrix(12,0,0,12,67,620.3)" />
<use xlink:href="#f0_d" transform="matrix(12,0,0,12,82.2,620.3)" />
<use xlink:href="#f0_b" transform="matrix(12,0,0,12,94.4,620.3)" />
<use xlink:href="#f0_n" transform="matrix(12,0,0,12,105.6,620.3)" />
<use xlink:href="#f0_b" transform="matrix(12,0,0,12,115.9,620.3)" />
<use xlink:href="#f0_e" transform="matrix(12,0,0,12,127.2,620.3)" />
<use xlink:href="#f0_4" transform="matrix(12,0,0,12,139.4,620.3)" />
<use xlink:href="#f0_u" transform="matrix(12,0,0,12,146.8,620.3)" />
<use xlink:href="#f0_b" transform="matrix(12,0,0,12,159,620.3)" />
<use xlink:href="#f0_s" transform="matrix(12,0,0,12,170.2,620.3)" />
<use xlink:href="#f0_5" transform="matrix(12,0,0,12,179.1,620.3)" />
<use xlink:href="#f0_c" transform="matrix(12,0,0,12,194.3,620.3)" />
<use xlink:href="#f0_u" transform="matrix(12,0,0,12,210,620.3)" />
<use xlink:href="#f0_b" transform="matrix(12,0,0,12,222.2,620.3)" />
<use xlink:href="#f0_u" transform="matrix(12,0,0,12,238.2,620.3)" />
<use xlink:href="#f0_3" transform="matrix(12,0,0,12,250.4,620.3)" />
<use xlink:href="#f0_1b" transform="matrix(12,0,0,12,261.4,620.3)" />
<use xlink:href="#f0_5" transform="matrix(12,0,0,12,272.5,620.3)" />
<use xlink:href="#f0_4" transform="matrix(12,0,0,12,287.7,620.3)" />
<use xlink:href="#f0_3" transform="matrix(12,0,0,12,295.1,620.3)" />
<use xlink:href="#f0_z" transform="matrix(12,0,0,12,306.1,620.3)" />
<use xlink:href="#f0_5" transform="matrix(12,0,0,12,317.8,620.3)" />
<use xlink:href="#f0_d" transform="matrix(12,0,0,12,328.2,620.3)" />
<use xlink:href="#f0_18" transform="matrix(12,0,0,12,345.2,620.3)" />
<use xlink:href="#f0_7" transform="matrix(12,0,0,12,357.1,620.3)" />
<use xlink:href="#f0_b" transform="matrix(12,0,0,12,363.5,620.3)" />
<use xlink:href="#f0_8" transform="matrix(12,0,0,12,374.7,620.3)" />
<use xlink:href="#f0_b" transform="matrix(12,0,0,12,381.2,620.3)" />
<use xlink:href="#f0_l" transform="matrix(12,0,0,12,392.4,620.3)" />
<use xlink:href="#f0_g" transform="matrix(12,0,0,12,402.7,620.3)" />
<use xlink:href="#f0_18" transform="matrix(12,0,0,12,418,620.3)" />
<use xlink:href="#f0_m" transform="matrix(12,0,0,12,429.9,620.3)" />
<use xlink:href="#f0_4" transform="matrix(12,0,0,12,442.1,620.3)" />
<use xlink:href="#f0_d" transform="matrix(12,0,0,12,454.3,620.3)" />
<use xlink:href="#f0_b" transform="matrix(12,0,0,12,466.5,620.3)" />
<use xlink:href="#f0_4" transform="matrix(12,0,0,12,477.7,620.3)" />
<use xlink:href="#f0_f" transform="matrix(12,0,0,12,489.9,620.3)" />
<use xlink:href="#f0_3" transform="matrix(12,0,0,12,507.9,620.3)" />
<use xlink:href="#f0_4" transform="matrix(12,0,0,12,518.9,620.3)" />
<use xlink:href="#f0_u" transform="matrix(12,0,0,12,526.3,620.3)" />
<use xlink:href="#f0_5" transform="matrix(12,0,0,12,538.5,620.3)" />
<use xlink:href="#f0_f" transform="matrix(12,0,0,12,549,620.3)" />
<use xlink:href="#f0_3" transform="matrix(12,0,0,12,567.1,620.3)" />
<use xlink:href="#f0_4" transform="matrix(12,0,0,12,578,620.3)" />
<use xlink:href="#f0_7" transform="matrix(12,0,0,12,585.4,620.3)" />
<use xlink:href="#f0_o" transform="matrix(12,0,0,12,591.9,620.3)" />
<use xlink:href="#f0_s" transform="matrix(12,0,0,12,601.5,620.3)" />
<use xlink:href="#f0_5" transform="matrix(12,0,0,12,615.2,620.3)" />
<use xlink:href="#f0_3" transform="matrix(12,0,0,12,625.7,620.3)" />
<use xlink:href="#f0_o" transform="matrix(12,0,0,12,636.7,620.3)" />
<use xlink:href="#f0_u" transform="matrix(12,0,0,12,646.3,620.3)" />
<use xlink:href="#f0_s" transform="matrix(12,0,0,12,663.3,620.3)" />
<use xlink:href="#f0_4" transform="matrix(12,0,0,12,672.2,620.3)" />
<use xlink:href="#f0_m" transform="matrix(12,0,0,12,679.6,620.3)" />
<use xlink:href="#f0_a" transform="matrix(12,0,0,12,691.8,620.3)" />
<use xlink:href="#f0_5" transform="matrix(12,0,0,12,703.7,620.3)" />
<use xlink:href="#f0_d" transform="matrix(12,0,0,12,714.2,620.3)" />
<use xlink:href="#f0_4" transform="matrix(12,0,0,12,726.4,620.3)" />
<use xlink:href="#f0_u" transform="matrix(12,0,0,12,738.5,620.3)" />
<use xlink:href="#f0_3" transform="matrix(12,0,0,12,750.8,620.3)" />
<use xlink:href="#f0_s" transform="matrix(12,0,0,12,761.7,620.3)" />
<use xlink:href="#f0_4" transform="matrix(12,0,0,12,775.4,620.3)" />
<use xlink:href="#f0_3" transform="matrix(12,0,0,12,782.8,620.3)" />
<use xlink:href="#f0_z" transform="matrix(12,0,0,12,793.8,620.3)" />
<use xlink:href="#f0_5" transform="matrix(12,0,0,12,805.4,620.3)" />
<use xlink:href="#f0_d" transform="matrix(12,0,0,12,815.9,620.3)" />
<use xlink:href="#f0_5" transform="matrix(12,0,0,12,47.4,652.4)" />
<use xlink:href="#f0_7" transform="matrix(12,0,0,12,57.8,652.4)" />
<use xlink:href="#f0_4" transform="matrix(12,0,0,12,64.3,652.4)" />
<use xlink:href="#f0_u" transform="matrix(12,0,0,12,71.7,652.4)" />
<use xlink:href="#f0_5" transform="matrix(12,0,0,12,83.9,652.4)" />
<use xlink:href="#f0_6" transform="matrix(12,0,0,12,94.3,652.4)" />
<use xlink:href="#f0_f" transform="matrix(12,0,0,12,108.7,652.4)" />
<use xlink:href="#f0_3" transform="matrix(12,0,0,12,126.7,652.4)" />
<use xlink:href="#f0_4" transform="matrix(12,0,0,12,137.7,652.4)" />
<use xlink:href="#f0_u" transform="matrix(12,0,0,12,145.1,652.4)" />
<use xlink:href="#f0_5" transform="matrix(12,0,0,12,157.3,652.4)" />
<use xlink:href="#f0_f" transform="matrix(12,0,0,12,167.8,652.4)" />
<use xlink:href="#f0_3" transform="matrix(12,0,0,12,185.9,652.4)" />
<use xlink:href="#f0_4" transform="matrix(12,0,0,12,196.8,652.4)" />
<use xlink:href="#f0_7" transform="matrix(12,0,0,12,204.2,652.4)" />
<use xlink:href="#f0_o" transform="matrix(12,0,0,12,210.7,652.4)" />
<use xlink:href="#f0_s" transform="matrix(12,0,0,12,220.3,652.4)" />
<use xlink:href="#f0_b" transform="matrix(12,0,0,12,234,652.4)" />
<use xlink:href="#f0_6" transform="matrix(12,0,0,12,245.2,652.4)" />
<use xlink:href="#f0_18" transform="matrix(12,0,0,12,259.6,652.4)" />
<use xlink:href="#f0_7" transform="matrix(12,0,0,12,271.4,652.4)" />
<use xlink:href="#f0_b" transform="matrix(12,0,0,12,277.9,652.4)" />
<use xlink:href="#f0_8" transform="matrix(12,0,0,12,289.1,652.4)" />
<use xlink:href="#f0_b" transform="matrix(12,0,0,12,295.6,652.4)" />
<use xlink:href="#f0_l" transform="matrix(12,0,0,12,306.8,652.4)" />
<use xlink:href="#f0_g" transform="matrix(12,0,0,12,317,652.4)" />
<use xlink:href="#f0_b" transform="matrix(12,0,0,12,332.4,652.4)" />
<use xlink:href="#f0_6" transform="matrix(12,0,0,12,343.6,652.4)" />
<use xlink:href="#f0_18" transform="matrix(12,0,0,12,357.9,652.4)" />
<use xlink:href="#f0_b" transform="matrix(12,0,0,12,369.8,652.4)" />
<use xlink:href="#f0_4" transform="matrix(12,0,0,12,381,652.4)" />
<use xlink:href="#f0_u" transform="matrix(12,0,0,12,388.4,652.4)" />
<use xlink:href="#f0_n" transform="matrix(12,0,0,12,400.7,652.4)" />
<use xlink:href="#f0_1a" transform="matrix(12,0,0,12,47.4,702.8)" />
<use xlink:href="#f0_d" transform="matrix(12,0,0,12,61.2,702.8)" />
<use xlink:href="#f0_s" transform="matrix(12,0,0,12,73.4,702.8)" />
<use xlink:href="#f0_n" transform="matrix(12,0,0,12,82.3,702.8)" />
<use xlink:href="#f1_b" transform="matrix(12,0,0,12,92.6,702.8)" />
<use xlink:href="#f1_16" transform="matrix(12,0,0,12,109.2,702.8)" />
<use xlink:href="#f1_1n" transform="matrix(12,0,0,12,115.5,702.8)" />
<use xlink:href="#f1_17" transform="matrix(12,0,0,12,132.7,702.8)" />
<use xlink:href="#f1_14" transform="matrix(12,0,0,12,143.8,702.8)" />
<use xlink:href="#f1_1j" transform="matrix(12,0,0,12,158.8,702.8)" />
<use xlink:href="#f1_3" transform="matrix(12,0,0,12,169,702.8)" />
<use xlink:href="#f1_1e" transform="matrix(12,0,0,12,179.3,702.8)" />
<use xlink:href="#f1_b" transform="matrix(12,0,0,12,188.6,702.8)" />
<use xlink:href="#f1_16" transform="matrix(12,0,0,12,205.2,702.8)" />
<use xlink:href="#f1_1n" transform="matrix(12,0,0,12,211.5,702.8)" />
<use xlink:href="#f1_w" transform="matrix(12,0,0,12,233.4,702.8)" />
<use xlink:href="#f1_11" transform="matrix(12,0,0,12,247.3,702.8)" />
<use xlink:href="#f1_17" transform="matrix(12,0,0,12,259.3,702.8)" />
<use xlink:href="#f1_14" transform="matrix(12,0,0,12,270.4,702.8)" />
<use xlink:href="#f1_n" transform="matrix(12,0,0,12,285.4,702.8)" />
</g>
<image preserveAspectRatio="none" x="47" y="732" width="152" height="32" xlink:href="img/5.png" />
<image preserveAspectRatio="none" x="47" y="784" width="307" height="32" xlink:href="img/6.png" />
<image preserveAspectRatio="none" x="47" y="836" width="208" height="32" xlink:href="img/7.png" />
<image preserveAspectRatio="none" x="47" y="888" width="136" height="32" xlink:href="img/8.png" />
<image preserveAspectRatio="none" x="47" y="940" width="439" height="32" xlink:href="img/9.png" />
<image preserveAspectRatio="none" x="47" y="992" width="226" height="32" xlink:href="img/10.png" />
<image preserveAspectRatio="none" x="47" y="1043" width="139" height="33" xlink:href="img/11.png" />
<g fill="#000000" >
<use xlink:href="#f0_p" transform="matrix(12,0,0,12,47.4,1136.7)" />
<use xlink:href="#f0_12" transform="matrix(12,0,0,12,57.6,1136.7)" />
<use xlink:href="#f0_n" transform="matrix(12,0,0,12,67.8,1136.7)" />
<use xlink:href="#f0_1a" transform="matrix(12,0,0,12,78.2,1136.7)" />
<use xlink:href="#f0_3" transform="matrix(12,0,0,12,96.7,1136.7)" />
<use xlink:href="#f0_d" transform="matrix(12,0,0,12,107.7,1136.7)" />
<use xlink:href="#f0_a" transform="matrix(12,0,0,12,119.9,1136.7)" />
<use xlink:href="#f0_i" transform="matrix(12,0,0,12,136.5,1136.7)" />
<use xlink:href="#f0_3" transform="matrix(12,0,0,12,153.6,1136.7)" />
<use xlink:href="#f0_6" transform="matrix(12,0,0,12,164.6,1136.7)" />
<use xlink:href="#f0_5" transform="matrix(12,0,0,12,174.2,1136.7)" />
<use xlink:href="#f0_4" transform="matrix(12,0,0,12,189.4,1136.7)" />
<use xlink:href="#f0_c" transform="matrix(12,0,0,12,196.8,1136.7)" />
<use xlink:href="#f0_b" transform="matrix(12,0,0,12,212.5,1136.7)" />
<use xlink:href="#f0_s" transform="matrix(12,0,0,12,228.4,1136.7)" />
<use xlink:href="#f0_5" transform="matrix(12,0,0,12,237.4,1136.7)" />
<use xlink:href="#f0_4" transform="matrix(12,0,0,12,247.8,1136.7)" />
<use xlink:href="#f0_s" transform="matrix(12,0,0,12,255.2,1136.7)" />
<use xlink:href="#f0_s" transform="matrix(12,0,0,12,268.9,1136.7)" />
<use xlink:href="#f0_m" transform="matrix(12,0,0,12,277.8,1136.7)" />
<use xlink:href="#f0_o" transform="matrix(12,0,0,12,290,1136.7)" />
<use xlink:href="#f0_u" transform="matrix(12,0,0,12,299.7,1136.7)" />
<use xlink:href="#f0_4" transform="matrix(12,0,0,12,316.7,1136.7)" />
<use xlink:href="#f0_u" transform="matrix(12,0,0,12,324.1,1136.7)" />
<use xlink:href="#f0_3" transform="matrix(12,0,0,12,336.3,1136.7)" />
<use xlink:href="#f0_4" transform="matrix(12,0,0,12,347.3,1136.7)" />
<use xlink:href="#f0_d" transform="matrix(12,0,0,12,359.4,1136.7)" />
<use xlink:href="#f0_16" transform="matrix(12,0,0,12,376.4,1136.7)" />
<use xlink:href="#f0_1a" transform="matrix(12,0,0,12,383.7,1136.7)" />
<use xlink:href="#f0_1i" transform="matrix(12,0,0,12,402.3,1136.7)" />
<use xlink:href="#f0_i" transform="matrix(12,0,0,12,416.2,1136.7)" />
<use xlink:href="#f0_17" transform="matrix(12,0,0,12,428.5,1136.7)" />
<use xlink:href="#f0_1g" transform="matrix(12,0,0,12,440.6,1136.7)" />
<use xlink:href="#f0_p" transform="matrix(12,0,0,12,455.6,1136.7)" />
<use xlink:href="#f0_y" transform="matrix(12,0,0,12,465.8,1136.7)" />
<use xlink:href="#f0_1u" transform="matrix(12,0,0,12,480.8,1136.7)" />
</g>
<image preserveAspectRatio="none" x="497" y="1120" width="19" height="23" xlink:href="img/12.png" />
<g fill="#000000" >
<use xlink:href="#f0_11" transform="matrix(12,0,0,12,520.4,1136.7)" />
<use xlink:href="#f0_d" transform="matrix(12,0,0,12,530.5,1136.7)" />
<use xlink:href="#f0_16" transform="matrix(12,0,0,12,547.5,1136.7)" />
<use xlink:href="#f0_i" transform="matrix(12,0,0,12,554.8,1136.7)" />
<use xlink:href="#f0_1i" transform="matrix(12,0,0,12,571.9,1136.7)" />
<use xlink:href="#f0_1a" transform="matrix(12,0,0,12,585.8,1136.7)" />
<use xlink:href="#f0_17" transform="matrix(12,0,0,12,599.6,1136.7)" />
<use xlink:href="#f0_1g" transform="matrix(12,0,0,12,611.7,1136.7)" />
<use xlink:href="#f0_14" transform="matrix(12,0,0,12,626.7,1136.7)" />
<use xlink:href="#f0_1v" transform="matrix(12,0,0,12,636.9,1136.7)" />
<use xlink:href="#f0_3" transform="matrix(12,0,0,12,653.5,1136.7)" />
<use xlink:href="#f0_d" transform="matrix(12,0,0,12,664.5,1136.7)" />
<use xlink:href="#f0_a" transform="matrix(12,0,0,12,676.7,1136.7)" />
<use xlink:href="#f0_d" transform="matrix(12,0,0,12,693.3,1136.7)" />
<use xlink:href="#f0_16" transform="matrix(12,0,0,12,710.3,1136.7)" />
<use xlink:href="#f0_1a" transform="matrix(12,0,0,12,717.7,1136.7)" />
<use xlink:href="#f2_3" transform="matrix(12,0,0,12,736.2,1136.7)" />
<use xlink:href="#f0_i" transform="matrix(12,0,0,12,755.8,1136.7)" />
<use xlink:href="#f0_17" transform="matrix(12,0,0,12,768.1,1136.7)" />
<use xlink:href="#f0_1g" transform="matrix(12,0,0,12,780.2,1136.7)" />
</g>
<image preserveAspectRatio="none" x="796" y="1120" width="20" height="23" xlink:href="img/13.png" />
<g fill="#000000" >
<use xlink:href="#f0_n" transform="matrix(12,0,0,12,815.1,1136.7)" />
<use xlink:href="#f0_1w" transform="matrix(12,0,0,12,47.4,1168.8)" />
<use xlink:href="#f0_6" transform="matrix(12,0,0,12,61.4,1168.8)" />
<use xlink:href="#f0_3" transform="matrix(12,0,0,12,71,1168.8)" />
<use xlink:href="#f0_c" transform="matrix(12,0,0,12,82,1168.8)" />
<use xlink:href="#f0_3" transform="matrix(12,0,0,12,102.4,1168.8)" />
<use xlink:href="#f0_1x" transform="matrix(12,0,0,12,118.1,1168.8)" />
<use xlink:href="#f0_5" transform="matrix(12,0,0,12,130.9,1168.8)" />
<use xlink:href="#f0_d" transform="matrix(12,0,0,12,141.4,1168.8)" />
<use xlink:href="#f0_d" transform="matrix(12,0,0,12,153.6,1168.8)" />
<use xlink:href="#f0_a" transform="matrix(12,0,0,12,170.6,1168.8)" />
<use xlink:href="#f0_7" transform="matrix(12,0,0,12,182.5,1168.8)" />
<use xlink:href="#f0_3" transform="matrix(12,0,0,12,188.9,1168.8)" />
<use xlink:href="#f0_l" transform="matrix(12,0,0,12,199.9,1168.8)" />
<use xlink:href="#f0_6" transform="matrix(12,0,0,12,210.2,1168.8)" />
<use xlink:href="#f0_3" transform="matrix(12,0,0,12,219.7,1168.8)" />
<use xlink:href="#f0_f" transform="matrix(12,0,0,12,230.7,1168.8)" />
<use xlink:href="#f0_4" transform="matrix(12,0,0,12,253.5,1168.8)" />
<use xlink:href="#f0_b" transform="matrix(12,0,0,12,260.9,1168.8)" />
<use xlink:href="#f0_7" transform="matrix(12,0,0,12,276.9,1168.8)" />
<use xlink:href="#f0_8" transform="matrix(12,0,0,12,283.4,1168.8)" />
<use xlink:href="#f0_8" transform="matrix(12,0,0,12,289.8,1168.8)" />
<use xlink:href="#f0_m" transform="matrix(12,0,0,12,296.2,1168.8)" />
<use xlink:href="#f0_s" transform="matrix(12,0,0,12,308.5,1168.8)" />
<use xlink:href="#f0_4" transform="matrix(12,0,0,12,317.4,1168.8)" />
<use xlink:href="#f0_6" transform="matrix(12,0,0,12,324.8,1168.8)" />
<use xlink:href="#f0_3" transform="matrix(12,0,0,12,334.4,1168.8)" />
<use xlink:href="#f0_4" transform="matrix(12,0,0,12,345.3,1168.8)" />
<use xlink:href="#f0_5" transform="matrix(12,0,0,12,352.7,1168.8)" />
<use xlink:href="#f0_4" transform="matrix(12,0,0,12,368,1168.8)" />
<use xlink:href="#f0_u" transform="matrix(12,0,0,12,375.4,1168.8)" />
<use xlink:href="#f0_7" transform="matrix(12,0,0,12,387.6,1168.8)" />
<use xlink:href="#f0_s" transform="matrix(12,0,0,12,394,1168.8)" />
<use xlink:href="#f0_7" transform="matrix(12,0,0,12,407.7,1168.8)" />
<use xlink:href="#f0_d" transform="matrix(12,0,0,12,414.1,1168.8)" />
<use xlink:href="#f0_e" transform="matrix(12,0,0,12,426.4,1168.8)" />
<use xlink:href="#f0_b" transform="matrix(12,0,0,12,433.8,1168.8)" />
<use xlink:href="#f0_6" transform="matrix(12,0,0,12,445,1168.8)" />
<use xlink:href="#f0_f" transform="matrix(12,0,0,12,454.6,1168.8)" />
<use xlink:href="#f0_3" transform="matrix(12,0,0,12,472.7,1168.8)" />
<use xlink:href="#f0_4" transform="matrix(12,0,0,12,483.7,1168.8)" />
<use xlink:href="#f0_7" transform="matrix(12,0,0,12,491.1,1168.8)" />
<use xlink:href="#f0_b" transform="matrix(12,0,0,12,497.5,1168.8)" />
<use xlink:href="#f0_d" transform="matrix(12,0,0,12,508.7,1168.8)" />
<use xlink:href="#f0_n" transform="matrix(12,0,0,12,520.9,1168.8)" />
<use xlink:href="#f0_v" transform="matrix(12,0,0,12,531.3,1168.8)" />
<use xlink:href="#f0_e" transform="matrix(12,0,0,12,538.6,1168.8)" />
<use xlink:href="#f0_d" transform="matrix(12,0,0,12,550.8,1168.8)" />
<use xlink:href="#f0_16" transform="matrix(12,0,0,12,567.8,1168.8)" />
<use xlink:href="#f0_1a" transform="matrix(12,0,0,12,575.1,1168.8)" />
<use xlink:href="#f0_17" transform="matrix(12,0,0,12,588.9,1168.8)" />
<use xlink:href="#f0_1g" transform="matrix(12,0,0,12,601,1168.8)" />
<use xlink:href="#f0_d" transform="matrix(12,0,0,12,616,1168.8)" />
<use xlink:href="#f0_16" transform="matrix(12,0,0,12,632.9,1168.8)" />
<use xlink:href="#f0_i" transform="matrix(12,0,0,12,640.3,1168.8)" />
<use xlink:href="#f0_17" transform="matrix(12,0,0,12,652.6,1168.8)" />
<use xlink:href="#f0_11" transform="matrix(12,0,0,12,659.9,1168.8)" />
<use xlink:href="#f0_15" transform="matrix(12,0,0,12,670,1168.8)" />
<use xlink:href="#f0_7" transform="matrix(12,0,0,12,681.4,1168.8)" />
<use xlink:href="#f0_d" transform="matrix(12,0,0,12,687.9,1168.8)" />
<use xlink:href="#f0_a" transform="matrix(12,0,0,12,700.1,1168.8)" />
<use xlink:href="#f0_16" transform="matrix(12,0,0,12,716.7,1168.8)" />
<use xlink:href="#f0_7" transform="matrix(12,0,0,12,724,1168.8)" />
<use xlink:href="#f0_17" transform="matrix(12,0,0,12,730.5,1168.8)" />
<use xlink:href="#f0_4" transform="matrix(12,0,0,12,742.6,1168.8)" />
<use xlink:href="#f0_u" transform="matrix(12,0,0,12,750,1168.8)" />
<use xlink:href="#f0_5" transform="matrix(12,0,0,12,762.2,1168.8)" />
<use xlink:href="#f0_1b" transform="matrix(12,0,0,12,777.4,1168.8)" />
<use xlink:href="#f0_3" transform="matrix(12,0,0,12,788.5,1168.8)" />
<use xlink:href="#f0_8" transform="matrix(12,0,0,12,799.5,1168.8)" />
<use xlink:href="#f0_m" transform="matrix(12,0,0,12,805.9,1168.8)" />
<use xlink:href="#f0_5" transform="matrix(12,0,0,12,818.1,1168.8)" />
<use xlink:href="#f0_b" transform="matrix(12,0,0,12,833.4,1168.8)" />
<use xlink:href="#f0_e" transform="matrix(12,0,0,12,844.6,1168.8)" />
<use xlink:href="#f3_l" transform="matrix(12,0,0,12,835.7,1269.6)" />
<use xlink:href="#f3_p" transform="matrix(12,0,0,12,844.9,1269.6)" />
</g>
<defs>
<path d="M148,0V81H274c0,0,1,0,2,0c5,0,19,1,31,6c0,0,14,4,24,15c0,0,10,11,14,31c0,0,5,18,5,48V946c0,0,-29,-36,-55,-65c0,0,-26,-29,-50,-50c0,0,-23,-22,-46,-32c0,0,-22,-12,-44,-12q-1,0,-2,0c0,0,-19,0,-34,8c0,0,-18,8,-29,23c0,0,-12,14,-18,35c0,0,-9,21,-8,47c0,0,23,5,49,15c0,0,25,7,54,22c0,0,28,13,61,34c0,0,32,18,71,47l108,79H577V181c0,0,0,-24,4,-43c0,0,3,-19,12,-31c0,0,8,-14,24,-19c0,0,14,-7,39,-7H779V0Z" 
id="f0_p"
transform="scale(0.001,-0.001)" />

<path d="M445,385V652c0,0,0,67,0,145c0,0,0,77,9,149c0,0,-9,-18,-24,-49c0,0,-17,-32,-35,-64c0,0,-20,-34,-36,-63c0,0,-17,-31,-26,-44L127,385ZM275,0V81h43c0,0,25,0,49,4c0,0,22,3,40,16c0,0,16,11,26,33c0,0,10,20,10,57v93H20v93l434,714H666V385H825V284H666V191c0,0,0,-37,11,-57c0,0,9,-22,26,-33c0,0,16,-13,40,-16c0,0,22,-4,48,-4h20V0Z" 
id="f0_y"
transform="scale(0.001,-0.001)" />

<path d="M232,-11c0,0,-26,0,-49,7c0,0,-24,4,-40,19c0,0,-17,13,-27,37c0,0,-10,23,-9,58c0,0,-1,34,9,59c0,0,10,22,27,37c0,0,16,14,40,20c0,0,23,5,49,6c0,0,25,-1,48,-6c0,0,23,-6,40,-20c0,0,16,-15,28,-37c0,0,9,-25,9,-59c0,0,0,-35,-9,-58c0,0,-12,-24,-28,-37C320,15,303,0,280,-4c0,0,-23,-7,-48,-7Z" 
id="f0_n"
transform="scale(0.001,-0.001)" />

<path d="M43,0V81h64c0,0,16,0,31,4c0,0,14,3,25,13c0,0,9,10,16,30c0,0,5,19,6,53V910c0,0,-1,32,-6,52c0,0,-7,19,-16,30c0,0,-11,10,-25,14c0,0,-15,3,-31,3H43v82H570v-82H506c0,0,-17,0,-31,-3c0,0,-15,-4,-25,-14c0,0,-11,-11,-17,-30c0,0,-6,-20,-6,-52V181c0,0,0,-34,6,-53c0,0,6,-20,17,-30c0,0,10,-10,25,-13c0,0,14,-4,31,-4h64V0Z" 
id="f0_v"
transform="scale(0.001,-0.001)" />

<path d="M31,0V81h3c0,0,25,0,47,4c0,0,21,3,38,14c0,0,16,11,25,32c0,0,9,20,9,55V639c0,0,0,32,-8,51c0,0,-8,19,-22,31c0,0,-15,9,-35,14c0,0,-20,3,-45,3H38v81H359L379,710h7c0,0,24,43,50,69c0,0,25,25,54,39c0,0,29,13,62,17c0,0,32,3,68,3c0,0,59,0,106,-17c0,0,47,-17,80,-53c0,0,32,-36,49,-91c0,0,16,-56,17,-133V189c0,0,0,-35,7,-56c0,0,5,-22,18,-33c0,0,12,-12,33,-15c0,0,18,-4,45,-4h4V0H640V503c0,0,-1,48,-6,88c0,0,-7,38,-21,64c0,0,-15,25,-38,40c0,0,-24,14,-57,14c0,0,-38,-1,-64,-20c0,0,-26,-19,-40,-51c0,0,-16,-33,-22,-76c0,0,-7,-44,-7,-90V181c0,0,0,-33,8,-52c0,0,7,-20,22,-30c0,0,13,-11,35,-14c0,0,19,-4,45,-4h5V0Z" 
id="f0_d"
transform="scale(0.001,-0.001)" />

<path d="M392,96c0,0,32,0,60,14c0,0,25,13,46,38c0,0,18,26,29,62c0,0,9,35,9,79V403H468c0,0,-47,-1,-77,-13c0,0,-31,-13,-50,-34c0,0,-19,-22,-27,-53c0,0,-8,-33,-8,-74c0,0,-1,-67,21,-100c0,0,21,-33,65,-33ZM314,-14c-2,0,-3,0,-5,0c0,0,-51,0,-94,14c0,0,-44,15,-76,46c0,0,-33,32,-52,79c0,0,-19,47,-18,111c0,0,-1,125,85,185c0,0,85,61,257,61H536v86c0,0,0,38,-3,71c0,0,-3,32,-12,57c0,0,-11,23,-29,37c0,0,-19,11,-50,12c0,0,-30,0,-49,-12c0,0,-20,-13,-32,-34c0,0,-13,-22,-16,-52c0,0,-6,-31,-6,-67h-1c-11,0,-105,1,-153,24c0,0,-53,23,-52,79c0,0,-1,41,25,71c0,0,24,29,68,49c0,0,43,18,100,27c0,0,57,8,122,8c0,0,80,0,141,-13c0,0,59,-15,100,-45c0,0,38,-30,59,-80c0,0,20,-50,20,-121V189c0,0,0,-31,6,-52c0,0,4,-21,15,-33c0,0,9,-12,28,-17c0,0,15,-6,39,-6c1,0,3,0,4,0h6V0H582L550,105H536c0,0,-26,-30,-47,-53c0,0,-23,-24,-48,-38C441,14,415,0,384,-6c0,0,-30,-8,-70,-8Z" 
id="f0_3"
transform="scale(0.001,-0.001)" />

<path d="M451,-14c0,0,-85,0,-154,21c0,0,-71,21,-120,71c0,0,-51,50,-78,131c0,0,-28,80,-27,198c0,0,0,123,29,206c0,0,27,82,79,133c0,0,50,50,118,72c0,0,68,20,148,20c0,0,73,0,131,-11c0,0,56,-14,94,-35c0,0,38,-21,59,-50c0,0,18,-31,19,-64c0,0,-1,-25,-8,-48c0,0,-10,-24,-31,-41c0,0,-22,-18,-60,-30c0,0,-40,-11,-99,-11c0,0,0,39,-4,76c0,0,-6,35,-17,62c0,0,-11,26,-29,44c0,0,-20,15,-49,15c0,0,-34,0,-60,-15c0,0,-26,-18,-45,-56c0,0,-20,-39,-29,-103c0,0,-11,-66,-11,-163c0,0,0,-156,43,-232c0,0,42,-77,137,-77q1,0,2,0h1c8,0,42,1,73,10c0,0,35,9,63,26c0,0,27,16,50,40c0,0,21,22,34,48c0,0,19,-11,28,-30c0,0,9,-19,9,-40c0,0,-1,-29,-17,-59c0,0,-18,-31,-53,-54C677,40,639,15,584,1c0,0,-57,-15,-133,-15Z" 
id="f0_o"
transform="scale(0.001,-0.001)" />

<path d="M26,0V81H44c0,0,16,0,37,4c0,0,17,3,35,13c0,0,15,10,26,30c0,0,10,19,11,53V987c0,0,-1,30,-11,49c0,0,-11,18,-27,29c0,0,-17,8,-35,12c0,0,-20,3,-36,3H26v81H385V181c0,0,0,-34,11,-53c0,0,10,-20,27,-30c0,0,16,-10,35,-13c0,0,19,-4,36,-4h18V0Z" 
id="f0_8"
transform="scale(0.001,-0.001)" />

<path d="M357,-14c-1,0,-3,0,-4,0c0,0,-83,0,-141,14c0,0,-60,12,-96,36c0,0,-37,23,-53,57c0,0,-17,32,-17,70c0,0,0,37,14,61c0,0,15,22,37,35c0,0,21,12,46,17c0,0,25,3,45,4c0,0,-1,-49,12,-86c0,0,12,-39,33,-64c0,0,21,-27,53,-41c0,0,28,-14,64,-14c1,0,2,0,3,0c0,0,39,0,68,8c0,0,28,7,47,23c0,0,18,14,27,34c0,0,9,17,9,39c0,0,0,25,-9,46c0,0,-10,18,-31,37c0,0,-22,16,-57,34c0,0,-38,16,-91,35c0,0,-62,21,-109,46c0,0,-48,24,-79,56c0,0,-33,30,-50,71c0,0,-17,38,-17,91c0,0,0,60,24,106c0,0,22,46,66,76c0,0,44,30,104,45c0,0,61,14,134,15c0,0,73,0,123,-12c0,0,50,-13,83,-33c0,0,32,-20,47,-45c0,0,14,-26,15,-52c0,0,0,-51,-36,-78c0,0,-37,-27,-120,-27c0,0,0,76,-33,119c0,0,-35,41,-101,41c0,0,-25,0,-47,-6c0,0,-24,-5,-40,-17c0,0,-17,-13,-26,-30c0,0,-11,-18,-11,-41c0,0,-1,-26,10,-44c0,0,9,-20,33,-37c0,0,23,-18,63,-36c0,0,40,-18,103,-39c0,0,50,-18,94,-40c0,0,43,-24,74,-53c0,0,30,-30,48,-67c0,0,16,-39,17,-86c0,0,-1,-65,-22,-114c0,0,-22,-50,-65,-84C598,56,555,21,494,4c0,0,-60,-18,-137,-18Z" 
id="f0_s"
transform="scale(0.001,-0.001)" />

<path d="M469,81c0,0,43,0,75,22c0,0,30,21,49,63c0,0,19,41,27,103c0,0,7,61,8,144c0,0,-1,81,-8,144c0,0,-9,60,-28,102c0,0,-20,40,-50,62c0,0,-31,20,-74,20c0,0,-45,0,-75,-20c0,0,-30,-22,-49,-62c0,0,-19,-42,-27,-102c0,0,-8,-63,-8,-144c0,0,0,-83,9,-144c0,0,7,-62,27,-103c0,0,19,-42,50,-63c0,0,29,-22,74,-22Zm-1,-95c0,0,-1,0,-2,0c0,0,-92,0,-165,26c0,0,-73,25,-123,79c0,0,-52,52,-79,134c0,0,-28,80,-27,188c0,0,-1,215,101,320c0,0,101,105,298,105c0,0,91,0,165,-26c0,0,72,-26,123,-79c0,0,50,-53,79,-132c0,0,27,-81,27,-188c0,0,0,-217,-101,-322C764,91,662,-14,468,-14Z" 
id="f0_b"
transform="scale(0.001,-0.001)" />

<path d="M29,0V81H63c0,0,16,0,35,4c0,0,18,3,36,13c0,0,15,10,26,30c0,0,10,19,11,53V715H35V819H171v57c0,0,-1,70,18,127c0,0,18,54,57,94c0,0,37,38,97,58c0,0,59,20,140,20c0,0,74,-1,123,-8c0,0,49,-10,78,-24c0,0,29,-16,42,-36c0,0,12,-21,12,-44c0,0,-1,-52,-46,-75c0,0,-47,-24,-142,-24c0,0,-1,18,-4,40c0,0,-4,21,-13,40c0,0,-9,19,-23,32c0,0,-15,12,-36,12c0,0,-20,0,-32,-10c0,0,-15,-11,-22,-32c0,0,-10,-23,-13,-58c0,0,-3,-35,-3,-85V819H614V715H404V181c0,0,0,-34,11,-53c0,0,9,-20,27,-30c0,0,15,-10,35,-13c0,0,18,-4,35,-4h71V0Z" 
id="f0_e"
transform="scale(0.001,-0.001)" />

<path d="M54,0V157L280,388c0,0,70,72,116,130c0,0,46,59,72,112c0,0,25,52,36,105c0,0,10,51,11,110c0,0,0,87,-32,128c0,0,-32,40,-88,40c0,0,-77,-1,-109,-66c0,0,-31,-67,-31,-198c0,0,-44,0,-79,8c0,0,-37,8,-62,26c0,0,-26,18,-40,47c0,0,-15,28,-14,70c0,0,0,41,21,79c0,0,21,36,63,65c0,0,41,28,105,46c0,0,62,16,146,16c0,0,85,0,152,-17c0,0,65,-19,109,-51c0,0,44,-32,67,-79c0,0,22,-47,22,-106c0,0,0,-36,-7,-70c0,0,-8,-33,-26,-69c0,0,-20,-37,-49,-75c0,0,-30,-41,-74,-88c0,0,-44,-49,-102,-107c0,0,-60,-58,-136,-131L198,168H555c4,0,48,1,80,27c0,0,32,27,46,79l13,47h86V0Z" 
id="f0_t"
transform="scale(0.001,-0.001)" />

<path d="M374,-14c0,0,-86,0,-145,15c0,0,-60,14,-97,41c0,0,-37,25,-54,59c0,0,-17,32,-17,68c0,0,0,54,34,80c0,0,32,26,89,26c0,0,0,-33,8,-65c0,0,8,-34,29,-59c0,0,18,-26,51,-43c0,0,31,-16,76,-16c1,0,2,0,3,0c0,0,1,0,2,0c6,0,39,0,71,12c0,0,33,12,59,40c0,0,26,27,41,75c0,0,15,47,15,117c0,0,0,115,-54,171c0,0,-55,55,-154,55c0,0,-29,0,-52,-2c0,0,-24,-3,-44,-6c0,0,-20,-4,-38,-9c0,0,-19,-6,-35,-10L92,562l48,529H722V813H639l-12,52c0,0,-4,13,-9,24c0,0,-4,10,-12,18c0,0,-8,8,-20,12c0,0,-12,3,-30,4H238c0,0,0,-2,-1,-13c0,0,-2,-13,-3,-33c0,0,-1,-20,-3,-45c0,0,-3,-26,-5,-52L214,640c0,0,12,5,31,9c0,0,19,3,41,7c0,0,22,3,48,6c0,0,24,0,48,1c0,0,88,0,161,-20c0,0,72,-22,123,-61c0,0,50,-42,79,-102c0,0,28,-62,28,-144c0,0,0,-100,-36,-166c0,0,-37,-69,-94,-109C643,61,585,19,515,3c0,0,-71,-17,-141,-17Z" 
id="f0_12"
transform="scale(0.001,-0.001)" />

<path d="M371,-14c0,0,-52,0,-93,13c0,0,-42,11,-71,40c0,0,-29,27,-44,74c0,0,-16,46,-16,113V715H32v78c0,0,49,0,88,19c0,0,38,19,62,45c0,0,46,49,70,152H379V819H574V715H379V242c0,0,0,-70,24,-102c0,0,22,-32,75,-32c0,0,1,0,2,0c0,0,29,0,57,5c0,0,27,3,51,9V23c0,0,-13,-6,-32,-13C556,10,534,4,508,0c0,0,-28,-7,-62,-10c0,0,-35,-4,-75,-4Z" 
id="f0_4"
transform="scale(0.001,-0.001)" />

<path d="M394,-14c0,0,-120,0,-183,73c0,0,-64,74,-64,228V630c0,0,-1,32,-6,54c0,0,-7,20,-19,33c0,0,-13,12,-32,16c0,0,-20,5,-47,5H40v81H379V330c0,0,0,-50,6,-89c0,0,5,-40,19,-67c0,0,13,-29,35,-43c0,0,23,-16,56,-16c0,0,1,0,1,0c5,0,38,1,63,16c0,0,25,16,43,47c0,0,16,29,25,73c0,0,7,42,7,96V640c0,0,0,34,-9,53c0,0,-10,19,-24,30c0,0,-15,9,-35,13c0,0,-20,2,-42,2h-5v81H866V178c0,0,0,-34,8,-53c0,0,8,-19,21,-29c0,0,13,-10,32,-12c0,0,16,-3,35,-3c2,0,4,0,6,0h13V0H677L643,108h-7c0,0,-24,-40,-50,-63C586,45,558,19,528,7C528,7,498,-5,464,-9c0,0,-35,-5,-70,-5Z" 
id="f0_m"
transform="scale(0.001,-0.001)" />

<path d="M448,99c0,0,45,0,76,20c0,0,29,18,48,57c0,0,17,38,26,98c0,0,7,57,7,137c0,0,0,75,-7,134c0,0,-9,59,-26,99c0,0,-19,39,-48,60c0,0,-31,20,-76,20c0,0,-38,0,-65,-20c0,0,-29,-21,-44,-61c0,0,-17,-40,-25,-98c0,0,-8,-60,-8,-135c0,0,0,-156,33,-233c0,0,31,-78,109,-78ZM386,-14c-1,0,-3,0,-4,0h-1c-7,0,-77,1,-132,24c0,0,-59,24,-98,77c0,0,-40,52,-60,132c0,0,-22,79,-21,189c0,0,-1,110,21,192c0,0,20,80,60,133c0,0,38,53,97,79c0,0,56,25,131,25c0,0,43,0,78,-9c0,0,35,-10,63,-25c0,0,28,-17,49,-39c0,0,21,-22,37,-49h9c0,0,0,42,-6,79c0,0,0,15,0,33c0,0,0,16,-2,31c0,0,-2,14,-2,25c0,0,0,11,0,18v84c0,0,0,32,-10,51c0,0,-10,18,-27,29c0,0,-17,8,-39,12c0,0,-22,3,-48,3H469v81H837V188c0,0,0,-35,10,-56c0,0,10,-22,29,-32c0,0,16,-12,40,-15c0,0,22,-4,48,-4h6V0H674L631,119H617c0,0,-18,-31,-39,-56c0,0,-23,-25,-51,-41C527,22,498,4,463,-4c0,0,-34,-10,-77,-10Z" 
id="f0_a"
transform="scale(0.001,-0.001)" />

<path d="M574,490c0,0,0,58,-6,105c0,0,-8,45,-22,78c0,0,-15,32,-37,49c0,0,-24,17,-56,17c0,0,-65,0,-103,-63c0,0,-38,-64,-38,-186ZM468,-14c0,0,-98,0,-171,27c0,0,-75,28,-125,82c0,0,-50,54,-75,133c0,0,-26,76,-25,177c0,0,-1,107,25,189c0,0,25,80,74,136c0,0,48,53,119,82c0,0,70,26,161,26c0,0,82,0,149,-23c0,0,65,-24,112,-70c0,0,46,-47,71,-115c0,0,25,-69,25,-159V392H308c0,0,0,-77,15,-132c0,0,14,-55,40,-91c0,0,26,-36,63,-53c0,0,37,-17,85,-17c0,0,1,0,2,0c8,0,41,1,71,10c0,0,34,9,61,26c0,0,28,16,48,40c0,0,21,22,34,48c0,0,41,-22,41,-75c0,0,0,-32,-18,-61c0,0,-18,-31,-55,-53C695,34,658,12,602,0c0,0,-57,-14,-134,-14Z" 
id="f0_5"
transform="scale(0.001,-0.001)" />

<path d="M69,-234v79c0,0,32,11,59,24c0,0,24,11,41,26c0,0,17,14,26,31c0,0,7,16,8,38c0,0,-1,14,-8,24c0,0,-9,9,-20,16c0,0,-13,8,-27,18c0,0,-15,7,-27,21c0,0,-14,14,-21,34c0,0,-8,18,-8,50c0,0,0,51,31,78c0,0,31,27,78,27c0,0,65,0,103,-45c0,0,38,-45,38,-123c0,0,0,-48,-15,-93c0,0,-15,-46,-47,-84c0,0,-33,-40,-85,-70c0,0,-53,-31,-126,-51Z" 
id="f0_11"
transform="scale(0.001,-0.001)" />

<path d="M31,0V81h3c0,0,25,0,47,4c0,0,21,3,38,14c0,0,16,11,25,32c0,0,9,20,9,55V987c0,0,-1,30,-11,49c0,0,-11,18,-27,29c0,0,-17,8,-35,12c0,0,-20,3,-36,3H26v81H383V909c0,0,0,-30,0,-64c0,0,0,-35,-3,-63c0,0,-4,-35,-7,-67h13c0,0,24,43,50,68c0,0,25,24,54,37c0,0,29,12,62,16c0,0,32,2,68,2c0,0,59,0,106,-17c0,0,47,-17,80,-53c0,0,32,-36,49,-91c0,0,16,-56,17,-133V189c0,0,0,-35,7,-56c0,0,5,-22,18,-33c0,0,12,-12,33,-15c0,0,18,-4,45,-4h4V0H640V503c0,0,-1,48,-6,88c0,0,-7,38,-21,64c0,0,-15,25,-38,40c0,0,-24,14,-57,14c0,0,-38,-1,-64,-20c0,0,-26,-19,-40,-51c0,0,-16,-33,-22,-76c0,0,-7,-44,-7,-90V181c0,0,0,-33,8,-52c0,0,7,-20,22,-30c0,0,13,-11,35,-14c0,0,19,-4,45,-4h5V0Z" 
id="f0_u"
transform="scale(0.001,-0.001)" />

<path d="M373,0L122,665c0,0,-9,21,-18,35c0,0,-11,15,-26,23c0,0,-15,7,-33,12c0,0,-20,3,-45,3v81H474V738H410c0,0,-24,0,-37,-12c0,0,-15,-14,-14,-37c0,0,-1,-19,5,-36c0,0,5,-19,9,-31L475,333c0,0,18,-49,33,-98c0,0,13,-49,21,-88c0,0,3,18,10,42c0,0,7,23,14,47c0,0,6,21,12,41c0,0,6,18,8,26L677,609c0,0,6,21,12,43c0,0,5,20,5,42c0,0,0,24,-17,35c0,0,-18,9,-43,9H590v81H926V738H895c0,0,-15,-1,-27,-4c0,0,-13,-4,-24,-15c0,0,-13,-13,-23,-33c0,0,-12,-23,-25,-59L574,0Z" 
id="f0_1b"
transform="scale(0.001,-0.001)" />

<path d="M26,0V81H44c0,0,16,0,37,4c0,0,17,3,35,13c0,0,15,10,26,30c0,0,10,19,11,53V987c0,0,-1,30,-11,49c0,0,-11,18,-27,29c0,0,-17,8,-35,12c0,0,-20,3,-36,3H26v81H383V571c0,0,0,-21,0,-47c0,0,0,-29,0,-53c0,0,-5,-29,-5,-58L570,628c0,0,25,28,34,46c0,0,7,16,7,27c0,0,0,19,-20,31c0,0,-22,10,-59,10v77H917V742c0,0,-54,0,-104,-30c0,0,-51,-32,-112,-100L605,503L808,200c0,0,39,-60,81,-90c0,0,41,-29,78,-29h5V4H810c0,0,-57,0,-98,13c0,0,-41,14,-70,41c0,0,-31,27,-60,76L446,350L385,304V181c0,0,0,-34,11,-53c0,0,10,-20,27,-30c0,0,16,-10,35,-13c0,0,19,-4,36,-4h18V0Z" 
id="f0_z"
transform="scale(0.001,-0.001)" />

<path d="M31,0V81h3c0,0,25,0,47,4c0,0,21,3,38,14c0,0,16,11,25,32c0,0,9,20,9,55V643c0,0,0,32,-8,52c0,0,-8,18,-22,30c0,0,-15,10,-35,14c0,0,-20,3,-45,3H38v77H359L379,710h7c0,0,24,43,50,69c0,0,25,25,54,39c0,0,29,13,62,17c0,0,32,3,68,3c0,0,83,0,144,-29c0,0,59,-31,87,-99h14c0,0,22,43,50,69c0,0,27,25,59,39c0,0,29,13,64,17c0,0,34,3,70,3c0,0,59,0,106,-17c0,0,47,-17,80,-53c0,0,32,-36,49,-91c0,0,16,-56,17,-133V189c0,0,0,-35,7,-56c0,0,5,-22,18,-33c0,0,12,-12,32,-15c0,0,19,-4,45,-4h5V0H1127V503c0,0,0,98,-27,152c0,0,-28,54,-94,54c0,0,-36,-1,-62,-17c0,0,-26,-18,-41,-48c0,0,-17,-31,-23,-70c0,0,-9,-41,-8,-84V189c0,0,0,-35,7,-56c0,0,5,-22,18,-33c0,0,12,-12,33,-15c0,0,18,-4,45,-4h4V0H640V503c0,0,-1,48,-6,88c0,0,-7,38,-21,64c0,0,-15,25,-38,40c0,0,-24,14,-57,14c0,0,-38,-1,-64,-20c0,0,-26,-19,-40,-51c0,0,-16,-33,-22,-76c0,0,-7,-44,-7,-90V181c0,0,0,-33,8,-52c0,0,7,-20,22,-30c0,0,13,-11,35,-14c0,0,19,-4,45,-4h5V0Z" 
id="f0_f"
transform="scale(0.001,-0.001)" />

<path d="M26,0V81H44c0,0,16,0,37,4c0,0,17,3,35,13c0,0,15,10,26,30c0,0,10,19,11,53V645c0,0,-1,29,-11,49c0,0,-11,18,-27,28c0,0,-17,9,-35,13c0,0,-20,3,-36,3H26v81H385V181c0,0,0,-34,11,-53c0,0,10,-20,27,-30c0,0,16,-10,35,-13c0,0,19,-4,36,-4h18V0ZM261,956c0,0,-28,0,-51,7c0,0,-24,7,-41,20c0,0,-18,13,-27,35c0,0,-11,20,-11,49c0,0,0,28,11,50c0,0,9,21,27,34c0,0,17,12,41,19c0,0,23,6,51,6c0,0,25,0,50,-6c0,0,23,-7,42,-19c0,0,18,-13,29,-34c0,0,10,-22,10,-50c0,0,0,-29,-10,-49c0,0,-11,-22,-29,-35c0,0,-19,-13,-42,-20c0,0,-25,-7,-50,-7Z" 
id="f0_7"
transform="scale(0.001,-0.001)" />

<path d="M425,72c6,0,41,0,71,14c0,0,31,13,54,39c0,0,21,26,34,61c0,0,12,34,12,77c0,0,-1,36,-13,67c0,0,-12,30,-39,57c0,0,-29,26,-70,52c0,0,-42,24,-101,51c0,0,-26,-17,-48,-37c0,0,-22,-23,-38,-48c0,0,-17,-28,-25,-60c0,0,-11,-32,-10,-73c0,0,0,-44,13,-81c0,0,11,-38,35,-63c0,0,22,-27,54,-41c0,0,31,-15,70,-15c0,0,1,0,1,0Zm36,571c0,0,28,16,49,35c0,0,20,19,33,43c0,0,12,23,19,53c0,0,6,29,6,67c0,0,0,33,-9,65c0,0,-10,32,-27,56c0,0,-19,25,-44,41c0,0,-28,14,-62,15c0,0,-32,-1,-55,-13c0,0,-25,-14,-41,-36c0,0,-17,-24,-25,-54c0,0,-9,-32,-9,-68c0,0,0,-40,11,-70c0,0,10,-30,32,-53c0,0,21,-24,51,-43c0,0,30,-19,71,-38ZM422,-14c-2,0,-3,0,-5,0h-1c-10,0,-99,1,-165,22c0,0,-70,23,-115,63c0,0,-47,39,-68,93c0,0,-22,54,-22,114c0,0,-1,49,16,89c0,0,15,39,45,72c0,0,30,32,72,60c0,0,40,26,91,52c0,0,-92,53,-139,120c0,0,-50,68,-50,157c0,0,0,52,19,104c0,0,18,49,60,89c0,0,41,38,109,62c0,0,68,23,167,23c0,0,79,0,141,-20c0,0,60,-20,102,-56c0,0,40,-36,62,-84c0,0,20,-49,20,-108c0,0,0,-46,-14,-80c0,0,-15,-36,-42,-63c0,0,-27,-30,-65,-54c0,0,-38,-25,-86,-49c0,0,68,-34,117,-68c0,0,48,-35,79,-70c0,0,30,-38,44,-78c0,0,14,-42,14,-87c0,0,-1,-73,-26,-129c0,0,-27,-57,-77,-95C705,65,654,25,582,6c0,0,-71,-20,-160,-20Z" 
id="f0_10"
transform="scale(0.001,-0.001)" />

<path d="M540,99c1,0,2,0,2,0c3,0,76,1,109,82c0,0,34,81,34,233c0,0,0,155,-34,234c0,0,-33,76,-110,76c0,0,-46,0,-76,-18c0,0,-30,-20,-47,-58c0,0,-18,-40,-26,-97c0,0,-8,-60,-7,-138c0,0,-1,-76,7,-134c0,0,8,-60,26,-98c0,0,18,-41,48,-61c0,0,29,-21,74,-21ZM610,-14c-1,0,-2,0,-4,0h-1c-9,0,-47,1,-78,10c0,0,-37,8,-64,26c0,0,-30,18,-51,43c0,0,-23,24,-39,54H359L316,0H26V81H37c0,0,20,0,42,4c0,0,20,3,37,15c0,0,17,10,27,32c0,0,10,21,10,56V978c0,0,0,32,-10,53c0,0,-10,19,-26,31c0,0,-17,11,-38,14c0,0,-22,3,-47,4H26v81H383V900c0,0,0,-24,0,-56c0,0,0,-33,-3,-61c0,0,-4,-34,-7,-68h10c0,0,33,56,88,89c0,0,55,32,141,33c0,0,75,0,132,-25c0,0,57,-26,97,-76c0,0,39,-53,59,-132c0,0,20,-81,20,-191c0,0,0,-112,-20,-192c0,0,-22,-81,-61,-133c0,0,-39,-53,-97,-78c0,0,-59,-24,-132,-24Z" 
id="f0_18"
transform="scale(0.001,-0.001)" />

<path d="M364,-274c9,0,135,0,195,39c0,0,61,38,61,114c0,0,-1,47,-31,68c0,0,-31,18,-92,19H319c0,0,-24,-1,-47,-4c0,0,-24,-5,-43,-17c0,0,-21,-13,-33,-35c0,0,-12,-24,-12,-60c0,0,0,-65,46,-94c0,0,45,-30,133,-30h1Zm28,653c0,0,30,0,51,13c0,0,20,12,32,35c0,0,11,24,17,57c0,0,5,32,5,74c0,0,0,43,-5,78c0,0,-6,34,-18,59c0,0,-12,23,-32,38c0,0,-21,14,-51,14c0,0,-31,0,-50,-14c0,0,-20,-15,-32,-40c0,0,-13,-26,-18,-60c0,0,-6,-36,-5,-77c0,0,0,-41,6,-73c0,0,5,-32,18,-56c0,0,12,-23,32,-35c0,0,20,-13,50,-13ZM366,-366c-2,0,-4,0,-6,0c-9,0,-183,1,-268,54c0,0,-89,54,-89,159c0,0,0,81,53,126c0,0,52,42,154,50c0,0,-22,8,-41,20c0,0,-21,12,-36,29c0,0,-16,17,-26,38c0,0,-10,21,-9,49c0,0,0,25,10,47c0,0,10,21,28,42c0,0,17,18,43,37c0,0,24,16,54,34c0,0,-34,12,-61,34c0,0,-30,20,-50,51c0,0,-21,29,-32,67c0,0,-13,39,-12,85c0,0,0,133,78,209c0,0,77,73,241,73c0,0,54,0,101,-13c0,0,46,-15,81,-34c0,0,12,14,28,30c0,0,14,14,35,27c0,0,18,12,43,21c0,0,23,8,53,8c0,0,27,0,48,-6c0,0,20,-9,35,-20c0,0,12,-13,20,-27c0,0,7,-16,7,-34c0,0,0,-17,-5,-33c0,0,-6,-17,-17,-28c0,0,-13,-13,-34,-19c0,0,-20,-7,-49,-7c-1,0,-2,0,-4,0c0,0,0,15,-4,27c0,0,-6,12,-14,20c0,0,-9,8,-18,13c0,0,-11,3,-22,4c0,0,-13,0,-27,-5c0,0,-15,-6,-23,-12c0,0,16,-17,29,-38c0,0,14,-23,24,-48c0,0,10,-25,16,-52c0,0,5,-27,6,-56c0,0,0,-58,-18,-106c0,0,-20,-49,-57,-84c0,0,-38,-36,-96,-56c0,0,-59,-21,-138,-21H351c0,0,-13,0,-24,2c0,0,-13,1,-18,2c0,0,-11,-6,-20,-13c0,0,-10,-8,-17,-17c0,0,-9,-11,-13,-22c0,0,-6,-13,-5,-25c0,0,0,-27,20,-38c0,0,17,-12,48,-12c1,0,2,0,3,0H510c0,0,76,0,132,-15c0,0,54,-17,91,-47c0,0,36,-30,53,-73c0,0,17,-43,17,-97c0,0,0,-72,-26,-126c0,0,-27,-56,-82,-94c0,0,-55,-40,-138,-59c0,0,-81,-21,-191,-21Z" 
id="f0_l"
transform="scale(0.001,-0.001)" />

<path d="M41,-366v89c0,0,79,0,136,19c0,0,55,19,95,55c0,0,38,35,64,86c0,0,24,50,43,111L104,665c0,0,-9,21,-20,34c0,0,-12,12,-24,19c0,0,-14,7,-28,9c0,0,-16,1,-32,2v90H436V738c0,0,-45,0,-70,-11c0,0,-27,-13,-27,-46c0,0,0,-13,6,-30c0,0,5,-18,9,-29c0,0,14,-33,29,-69c0,0,13,-39,28,-76c0,0,13,-38,26,-73c0,0,12,-35,23,-62c0,0,10,-29,18,-52c0,0,7,-24,13,-42c0,0,4,-20,7,-35c0,0,3,-18,5,-32c0,0,1,15,6,35c0,0,3,18,9,36c0,0,5,17,11,31c0,0,5,14,7,20L637,602c0,0,2,7,6,18c0,0,2,10,5,20c0,0,2,10,3,20c0,0,1,10,1,17c0,0,0,34,-29,48c0,0,-30,12,-82,13v81H885V738c0,0,-24,0,-41,-5c0,0,-17,-6,-32,-18c0,0,-15,-14,-26,-35c0,0,-12,-21,-24,-53c0,0,-26,-76,-56,-156c0,0,-29,-79,-58,-158c0,0,-30,-80,-59,-158C589,155,559,75,532,0c0,0,-28,-73,-51,-129c0,0,-24,-56,-50,-97c0,0,-27,-42,-59,-68c0,0,-33,-27,-74,-42c0,0,-43,-17,-99,-23c0,0,-57,-7,-132,-7Z" 
id="f0_g"
transform="scale(0.001,-0.001)" />

<path d="M43,0V81h64c0,0,1,0,3,0c6,0,17,1,27,3c0,0,14,3,26,13c0,0,9,8,16,28c0,0,5,17,6,47V917c0,0,-1,30,-6,49c0,0,-7,17,-16,28c0,0,-12,9,-26,13c0,0,-15,3,-30,3H43v81H893V809H790l-7,74c0,0,-9,61,-37,88c0,0,-31,26,-77,26H426V580H789V490H426V181c0,0,0,-34,7,-53c0,0,5,-20,16,-30c0,0,10,-10,25,-13c0,0,15,-4,32,-4h95V0Z" 
id="f0_15"
transform="scale(0.001,-0.001)" />

<path d="M304,0L108,657c0,0,-8,23,-18,40c0,0,-10,15,-22,24c0,0,-13,9,-29,13c0,0,-17,3,-39,4H-3v81H443V738H423c0,0,-46,-1,-69,-13c0,0,-24,-13,-23,-51c0,0,0,-13,5,-31c0,0,3,-19,8,-35L401,410c0,0,7,-29,14,-57c0,0,6,-29,12,-57c0,0,6,-28,12,-52c0,0,3,-25,7,-44h5c0,0,6,37,18,79c0,0,11,40,31,97L656,811h99L904,360c0,0,19,-55,27,-93c0,0,7,-39,13,-67h5c0,0,3,19,7,36c0,0,3,17,9,36c0,0,4,19,10,41c0,0,5,21,15,50l67,223c0,0,5,19,11,42c0,0,2,22,3,35c0,0,0,39,-24,57c0,0,-26,18,-77,18H959v81h350V738h-19c0,0,-23,0,-39,-5c0,0,-17,-5,-29,-17c0,0,-13,-13,-24,-36c0,0,-11,-25,-23,-62L978,0H813L646,507L471,0Z" 
id="f0_c"
transform="scale(0.001,-0.001)" />

<path d="M31,0V81h4c0,0,25,0,48,4c0,0,21,3,37,16c0,0,16,11,25,33c0,0,7,20,8,57V634c0,0,0,33,-8,55c0,0,-8,20,-22,31c0,0,-15,11,-35,15c0,0,-20,3,-45,3H38v81H347L377,700h8c0,0,14,34,33,60c0,0,17,26,43,43c0,0,24,16,59,26c0,0,34,7,81,8c0,0,90,0,132,-31c0,0,43,-33,43,-93c0,0,-1,-71,-51,-109c0,0,-50,-39,-141,-39c0,0,-1,0,-2,0c0,0,-1,32,-4,56c0,0,-4,23,-12,39c0,0,-9,16,-23,24c0,0,-15,8,-36,8c0,0,-28,0,-47,-13c0,0,-20,-14,-33,-34c0,0,-14,-22,-22,-49c0,0,-9,-27,-13,-54c0,0,-6,-28,-6,-52c0,0,0,-25,0,-42V184c0,0,0,-34,9,-54c0,0,7,-22,22,-32c0,0,13,-10,34,-13c0,0,18,-4,41,-4h49V0Z" 
id="f0_6"
transform="scale(0.001,-0.001)" />

<path d="M674,452L593,703c0,0,-9,25,-16,55c0,0,-10,28,-18,58c0,0,-8,29,-16,60c0,0,-9,29,-14,56c0,0,-7,-24,-16,-51c0,0,-9,-28,-18,-57c0,0,-11,-29,-21,-58c0,0,-10,-29,-19,-56L365,452ZM6,0V81H25c0,0,20,0,37,5c0,0,16,4,31,17c0,0,14,12,28,34c0,0,12,20,26,55l331,899H688L1007,191c0,0,11,-33,24,-53c0,0,12,-22,27,-34c0,0,13,-12,30,-17c0,0,15,-6,32,-6c1,0,2,0,3,0h27V0H646V81h60c0,0,10,0,23,4c0,0,11,2,21,10c0,0,9,7,15,18c0,0,6,12,6,27c0,0,0,19,-4,36c0,0,-5,16,-9,30L704,359H333L289,228c0,0,-7,-20,-12,-44c0,0,-7,-26,-7,-44c0,0,0,-15,6,-26c0,0,5,-11,16,-18c0,0,9,-8,22,-11c0,0,12,-4,25,-4h65V0Z" 
id="f0_1a"
transform="scale(0.001,-0.001)" />

<path d="M43,0V64H55c0,0,26,0,49,4c0,0,23,3,40,16c0,0,16,11,27,32c0,0,10,21,10,58V650c0,0,0,33,-10,55c0,0,-11,20,-28,31c0,0,-17,11,-39,15c0,0,-24,3,-49,4H51v64H298L318,695h7c0,0,23,42,51,70c0,0,25,27,56,43c0,0,29,14,63,21c0,0,32,5,69,5c0,0,60,-1,108,-17c0,0,47,-18,81,-54c0,0,32,-37,50,-93c0,0,17,-58,18,-135V174c0,0,0,-37,9,-58c0,0,7,-21,23,-32c0,0,16,-13,38,-16c0,0,21,-4,47,-4h5V0H677V527c0,0,0,50,-9,89c0,0,-10,39,-29,66c0,0,-20,26,-52,41c0,0,-33,13,-78,13c0,0,-53,0,-88,-20c0,0,-36,-20,-57,-54c0,0,-22,-35,-31,-79c0,0,-10,-45,-9,-94V166c0,0,0,-33,10,-53c0,0,10,-22,27,-32c0,0,16,-10,40,-13c0,0,22,-4,48,-4h5V0Z" 
id="f1_b"
transform="scale(0.001,-0.001)" />

<path d="M480,-194c0,0,-106,41,-180,101c0,0,-75,59,-122,141c0,0,-48,82,-69,191c0,0,-22,107,-22,245c0,0,0,137,22,246c0,0,21,106,69,188c0,0,47,82,122,142c0,0,74,59,180,101v-69c0,0,-79,-48,-125,-114c0,0,-48,-67,-71,-146c0,0,-24,-80,-30,-168c0,0,-9,-90,-8,-180c0,0,-1,-92,8,-180c0,0,6,-88,30,-167c0,0,23,-80,71,-146c0,0,46,-68,125,-115v-70Z" 
id="f1_16"
transform="scale(0.001,-0.001)" />

<path d="M58,0V64H78c0,0,24,0,48,4c0,0,22,3,40,13c0,0,16,10,27,32c0,0,10,20,10,53V923c0,0,0,33,-10,54c0,0,-11,20,-27,32c0,0,-18,11,-40,14c0,0,-24,3,-48,3H58v65H407L723,217l313,874h339v-65h-20c0,0,-26,0,-48,-3c0,0,-24,-4,-40,-15c0,0,-17,-13,-27,-34c0,0,-11,-21,-10,-57V174c0,0,-1,-37,10,-58c0,0,10,-21,27,-32c0,0,16,-13,40,-16c0,0,22,-4,48,-4h20V0H968V64h6c0,0,24,0,44,4c0,0,20,3,34,13c0,0,14,10,22,29c0,0,8,19,8,50V976L733,0H650L296,974V174c0,0,-1,-37,8,-58c0,0,7,-21,22,-32c0,0,13,-13,35,-16c0,0,19,-4,46,-4h4V0Z" 
id="f1_1n"
transform="scale(0.001,-0.001)" />

<path d="M49,-194v70c0,0,79,47,125,115c0,0,45,66,71,146c0,0,23,79,31,167c0,0,7,88,7,180c0,0,0,90,-7,180c0,0,-8,88,-31,168c0,0,-26,79,-71,146c0,0,-46,66,-125,114v69c0,0,105,-42,180,-101c0,0,75,-60,122,-142c0,0,47,-82,69,-188c0,0,21,-109,22,-246c0,0,-1,-138,-22,-245c0,0,-22,-109,-69,-191c0,0,-47,-82,-122,-141c0,0,-75,-60,-180,-101Z" 
id="f1_17"
transform="scale(0.001,-0.001)" />

<path d="M99,350v90H755V350Zm0,300v91H755V650Z" 
id="f1_14"
transform="scale(0.001,-0.001)" />

<path d="M147,0V64H249c0,0,26,0,49,4c0,0,23,3,40,16c0,0,16,11,27,32c0,0,9,21,9,58V976c0,0,-29,-35,-55,-64c0,0,-27,-29,-50,-50c0,0,-24,-22,-46,-32c0,0,-22,-12,-44,-12c0,0,-1,0,-1,0c0,0,-1,0,-1,0c-3,0,-35,0,-55,23c0,0,-21,21,-21,59c0,0,23,5,47,15c0,0,23,7,50,22c0,0,25,13,57,34c0,0,30,18,69,47l107,79h98V174c0,0,-1,-37,10,-58c0,0,9,-21,26,-32c0,0,17,-13,41,-16c0,0,22,-4,48,-4h75V0Z" 
id="f1_1j"
transform="scale(0.001,-0.001)" />

<path d="M78,0V112L333,407c0,0,61,70,103,126c0,0,40,56,66,106c0,0,25,49,37,97c0,0,11,47,11,100c0,0,0,43,-9,79c0,0,-11,35,-29,61c0,0,-19,25,-48,40c0,0,-31,13,-70,13c0,0,-53,0,-84,-18c0,0,-33,-20,-52,-50c0,0,-19,-31,-25,-73c0,0,-7,-41,-7,-86c0,0,-28,0,-51,4c0,0,-24,4,-42,17c0,0,-18,11,-28,30c0,0,-10,19,-10,48c0,0,0,43,19,82c0,0,19,37,57,65c0,0,36,28,93,43c0,0,56,15,130,15c0,0,72,0,130,-18c0,0,56,-19,97,-51c0,0,41,-34,62,-81c0,0,21,-47,21,-105c0,0,-1,-54,-17,-104c0,0,-18,-52,-50,-104c0,0,-33,-54,-80,-111c0,0,-48,-58,-108,-124L191,122H545c7,0,36,1,56,10c0,0,21,10,36,25c0,0,14,15,22,37c0,0,7,20,13,42l6,28h61V0Z" 
id="f1_3"
transform="scale(0.001,-0.001)" />

<path d="M46,-234v64c0,0,74,23,110,58c0,0,34,35,35,79c0,0,-1,15,-8,26c0,0,-9,8,-21,17c0,0,-13,6,-27,15c0,0,-15,7,-27,18c0,0,-13,9,-21,26c0,0,-8,14,-8,38c0,0,0,43,29,67c0,0,28,23,71,23c0,0,23,-1,45,-8c0,0,20,-9,37,-26c0,0,16,-17,26,-41c0,0,9,-27,9,-58c0,0,0,-48,-13,-93c0,0,-14,-46,-44,-84c0,0,-30,-40,-77,-70c0,0,-49,-31,-116,-51Z" 
id="f1_1e"
transform="scale(0.001,-0.001)" />

<path d="M-6,365v90H771V365Z" 
id="f1_w"
transform="scale(0.001,-0.001)" />

<path d="M508,76c11,0,67,1,107,12c0,0,45,12,74,39c0,0,27,25,41,68c0,0,12,42,12,104c0,0,0,59,-11,104c0,0,-11,43,-38,73c0,0,-28,28,-72,43c0,0,-45,14,-112,14H357V76H508ZM465,609c12,0,70,1,110,12c0,0,45,12,72,38c0,0,26,24,39,64c0,0,11,39,11,95c0,0,-1,56,-13,94c0,0,-13,36,-41,60c0,0,-28,22,-73,33c0,0,-46,10,-110,10H357V609H463c0,0,1,0,2,0ZM58,0V64H78c0,0,25,0,49,4c0,0,22,3,39,16c0,0,17,11,27,32c0,0,10,21,10,58V923c0,0,0,33,-10,54c0,0,-11,20,-27,32c0,0,-18,11,-40,14c0,0,-24,3,-48,3H58v65H468c0,0,197,0,295,-66c0,0,97,-66,97,-207c0,0,0,-52,-14,-91c0,0,-15,-39,-40,-68c0,0,-26,-29,-60,-48c0,0,-35,-20,-75,-34v-6c0,0,51,-9,95,-30c0,0,43,-22,75,-56c0,0,30,-35,47,-82c0,0,17,-49,18,-108c0,0,0,-149,-97,-221C809,74,711,0,513,0Z" 
id="f1_11"
transform="scale(0.001,-0.001)" />

<path d="M424,55c0,0,50,0,91,16c0,0,41,14,70,42c0,0,27,27,44,64c0,0,16,36,16,81c0,0,0,39,-15,72c0,0,-15,33,-46,65c0,0,-33,29,-83,60c0,0,-51,28,-125,61c0,0,-73,-39,-115,-100c0,0,-42,-63,-42,-149c0,0,0,-48,13,-86c0,0,12,-40,39,-67c0,0,24,-29,64,-43c0,0,39,-16,89,-16Zm31,565c0,0,43,21,72,45c0,0,27,21,44,50c0,0,16,27,23,59c0,0,7,32,7,73c0,0,0,34,-9,68c0,0,-11,34,-30,61c0,0,-22,25,-54,42c0,0,-34,16,-82,16c0,0,-43,0,-75,-13c0,0,-34,-15,-56,-39c0,0,-23,-24,-34,-58c0,0,-13,-34,-12,-73c0,0,0,-42,14,-74c0,0,12,-33,38,-59c0,0,25,-27,65,-50c0,0,38,-25,89,-48ZM421,-14c-1,0,-3,0,-4,0c0,0,-87,0,-151,21c0,0,-65,23,-108,62c0,0,-45,39,-65,92c0,0,-23,52,-23,113c0,0,0,54,18,97c0,0,16,41,49,74c0,0,31,32,73,58c0,0,42,25,93,50c0,0,-44,24,-80,53c0,0,-37,28,-63,63c0,0,-26,34,-40,75c0,0,-15,40,-15,89c0,0,-1,52,19,102c0,0,18,49,58,87c0,0,39,37,103,61c0,0,62,23,151,23c0,0,71,0,127,-19c0,0,55,-21,95,-55c0,0,38,-35,58,-83c0,0,20,-49,20,-106c0,0,0,-51,-15,-88c0,0,-15,-38,-41,-68c0,0,-27,-31,-65,-54c0,0,-39,-25,-85,-48c0,0,57,-28,104,-58c0,0,46,-30,80,-66c0,0,33,-37,52,-78c0,0,18,-41,18,-91c0,0,-1,-73,-26,-129c0,0,-26,-59,-74,-97C684,66,636,26,568,6c0,0,-66,-20,-147,-20Z" 
id="f1_n"
transform="scale(0.001,-0.001)" />

<path d="M527,93c0,0,50,0,87,11c0,0,36,11,58,37c0,0,23,25,33,65c0,0,10,40,10,98c0,0,0,56,-9,98c0,0,-10,41,-31,68c0,0,-22,27,-57,40c0,0,-35,14,-88,14H426V93ZM484,617c0,0,54,0,90,11c0,0,34,11,56,35c0,0,21,23,30,61c0,0,9,36,9,89c0,0,0,52,-10,87c0,0,-10,35,-32,57c0,0,-23,21,-59,31c0,0,-35,9,-87,9H426V617ZM538,0c-1,0,-2,0,-3,0H43V81h62c0,0,17,0,32,4c0,0,14,3,25,13c0,0,10,10,17,30c0,0,5,19,6,53V912c0,0,-1,30,-6,50c0,0,-7,19,-17,29c0,0,-11,10,-25,15c0,0,-15,3,-32,4H43v81H489c0,0,217,0,327,-68c0,0,110,-67,110,-210c0,0,0,-51,-14,-88c0,0,-15,-38,-39,-65c0,0,-26,-28,-61,-47c0,0,-35,-19,-79,-33v-7c0,0,53,-14,97,-37c0,0,43,-24,76,-57c0,0,31,-35,49,-79c0,0,16,-45,17,-101c0,0,0,-151,-110,-224C862,75,754,0,538,0Z" 
id="f0_i"
transform="scale(0.001,-0.001)" />

<path d="M562,-212c0,0,-127,52,-217,121c0,0,-91,68,-147,155c0,0,-58,87,-84,193c0,0,-27,104,-27,229c0,0,0,123,27,228c0,0,26,104,84,191c0,0,56,86,147,155c0,0,90,68,217,119v-96c0,0,-70,-47,-115,-112c0,0,-45,-66,-70,-143c0,0,-26,-78,-35,-164c0,0,-10,-88,-9,-178c0,0,-1,-91,9,-179c0,0,9,-88,35,-165c0,0,25,-79,70,-143c0,0,45,-67,115,-113v-98Z" 
id="f0_16"
transform="scale(0.001,-0.001)" />

<path d="M-6,356V465H771V356Z" 
id="f0_1i"
transform="scale(0.001,-0.001)" />

<path d="M49,-212v98c0,0,70,46,116,113c0,0,44,64,70,143c0,0,24,77,34,165c0,0,9,88,9,179c0,0,0,90,-9,178c0,0,-10,86,-34,164c0,0,-26,77,-70,143c0,0,-46,65,-116,112v96c0,0,127,-51,218,-119c0,0,90,-69,148,-155c0,0,56,-87,83,-191c0,0,25,-105,26,-228c0,0,-1,-125,-26,-229c0,0,-27,-106,-83,-193c0,0,-58,-87,-148,-155c0,0,-91,-69,-218,-121Z" 
id="f0_17"
transform="scale(0.001,-0.001)" />

<path d="M96,344V451H758V344Zm0,296V747H758V640Z" 
id="f0_1g"
transform="scale(0.001,-0.001)" />

<path d="M371,219V492H99V601H371V874H481V601H755V492H481V219Z" 
id="f0_1u"
transform="scale(0.001,-0.001)" />

<path d="M376,-14c-1,0,-3,0,-5,0c0,0,-87,0,-148,14c0,0,-63,14,-102,40c0,0,-40,26,-59,59c0,0,-19,32,-19,69c0,0,0,29,10,51c0,0,10,23,28,38c0,0,18,15,42,23c0,0,23,7,49,7c0,0,0,-48,14,-85c0,0,14,-37,39,-61c0,0,24,-25,59,-37c0,0,35,-12,76,-12c0,0,37,0,72,10c0,0,33,10,60,36c0,0,25,25,41,69c0,0,15,43,15,109c0,0,0,44,-15,81c0,0,-15,36,-45,63c0,0,-31,26,-75,41c0,0,-44,14,-101,15H217v95H319c7,0,50,1,85,16c0,0,36,15,60,46c0,0,23,30,36,71c0,0,12,41,12,92c0,0,0,83,-32,130c0,0,-33,47,-95,47c0,0,-42,0,-66,-20c0,0,-27,-20,-41,-54c0,0,-15,-33,-19,-76c0,0,-6,-42,-5,-87c0,0,-96,0,-147,33c0,0,-52,32,-52,103c0,0,0,41,22,76c0,0,21,35,63,62c0,0,42,26,106,41c0,0,62,15,146,15c0,0,81,0,147,-16c0,0,65,-17,111,-49c0,0,46,-32,71,-78c0,0,24,-47,24,-106c0,0,0,-51,-18,-95c0,0,-18,-44,-49,-77c0,0,-31,-35,-74,-60c0,0,-42,-27,-92,-43c0,0,45,-8,94,-26c0,0,48,-20,88,-50c0,0,39,-32,65,-79c0,0,25,-47,25,-112c0,0,0,-93,-34,-157c0,0,-36,-64,-93,-101C657,57,599,17,525,1c0,0,-72,-15,-149,-15Z" 
id="f0_14"
transform="scale(0.001,-0.001)" />

<path d="M17,0V81H31c0,0,1,0,3,0c7,0,28,1,45,6c0,0,20,4,40,15c0,0,17,11,36,30c0,0,18,19,42,47L389,411L197,657c0,0,-33,40,-64,61c0,0,-33,20,-67,20H46v81H526V738h-5c0,0,-26,0,-43,-3c0,0,-17,-5,-27,-10c0,0,-10,-7,-13,-14c0,0,-4,-8,-4,-17c0,0,0,-17,8,-32c0,0,8,-15,27,-38L554,519l73,87c0,0,18,23,28,44c0,0,10,21,10,42c0,0,0,28,-21,37c0,0,-22,9,-58,9h-4v81H935V738H921c0,0,-23,-1,-39,-4c0,0,-19,-5,-35,-15c0,0,-18,-11,-37,-30c0,0,-19,-19,-43,-49L609,448L834,162c0,0,34,-44,65,-62c0,0,28,-19,56,-19c0,0,1,0,1,0h20V0H490V81h9c5,0,91,1,91,50c0,0,0,9,-2,18c0,0,-3,8,-8,21c0,0,-6,11,-18,28c0,0,-12,16,-30,38L445,342L338,210c0,0,-15,-20,-23,-38c0,0,-9,-21,-9,-39c0,0,0,-26,21,-38c0,0,21,-14,74,-14h4V0Z" 
id="f0_1v"
transform="scale(0.001,-0.001)" />

<path d="M231,0V414c0,0,0,251,82,355c0,0,92,115,307,116c0,0,207,-1,307,-116c0,0,83,-95,83,-355V0H803V414c0,0,0,150,-35,201c0,0,-42,59,-148,59c0,0,-102,0,-147,-59c0,0,-35,-47,-35,-201V0Z" 
id="f2_3"
transform="scale(0.001,-0.001)" />

<path d="M512,95c0,0,78,0,138,33c0,0,59,31,100,93c0,0,39,61,59,148c0,0,21,86,21,196c0,0,-1,218,-80,326c0,0,-82,106,-237,106H426V95ZM43,0V81h64c0,0,16,0,31,4c0,0,14,3,25,13c0,0,9,10,16,30c0,0,5,19,6,53V917c0,0,-1,30,-6,49c0,0,-7,17,-16,28c0,0,-12,9,-26,13c0,0,-15,3,-30,3H43v81H547c0,0,126,-1,227,-33c0,0,100,-34,170,-99c0,0,70,-67,107,-165c0,0,37,-99,37,-229c0,0,0,-125,-35,-229c0,0,-35,-104,-102,-179C951,157,883,82,782,42C782,42,680,0,547,0Z" 
id="f0_1w"
transform="scale(0.001,-0.001)" />

<path d="M455,0L130,936c0,0,-8,21,-19,37c0,0,-13,14,-24,22c0,0,-14,8,-27,12c0,0,-14,3,-25,3H0v81H504v-81H434c0,0,-12,0,-21,-2c0,0,-12,-4,-19,-9c0,0,-9,-6,-14,-16c0,0,-6,-10,-6,-24c0,0,0,-15,5,-33c0,0,4,-20,9,-32L544,423c0,0,5,-17,13,-40c0,0,5,-24,11,-49c0,0,6,-26,12,-50c0,0,4,-26,6,-46c0,0,3,12,9,35c0,0,4,21,12,48c0,0,8,25,16,51c0,0,7,25,14,47L794,883c0,0,3,8,7,19c0,0,2,10,6,20c0,0,2,10,5,20c0,0,0,10,1,16c0,0,0,25,-16,39c0,0,-17,13,-45,13H672v81h395v-81H993c0,0,-11,0,-19,-4c0,0,-9,-5,-16,-17c0,0,-8,-13,-17,-34c0,0,-9,-23,-21,-57L608,0Z" 
id="f0_1x"
transform="scale(0.001,-0.001)" />

<path d="M197,0V27c0,0,71,2,92,13c0,0,21,10,29,29c0,0,9,18,9,109V725c0,0,0,110,-8,141c0,0,-5,24,-19,35c0,0,-14,11,-33,11c0,0,-28,0,-77,-23l-11,23l246,121h25V178c0,0,0,-85,7,-106c0,0,7,-21,29,-32c0,0,23,-11,91,-13V0Z" 
id="f3_l"
transform="scale(0.001,-0.001)" />

<path d="M247,-17c0,0,-91,0,-132,30c0,0,-42,31,-42,68c0,0,0,21,17,37c0,0,18,16,44,17c0,0,19,0,34,-6c0,0,14,-7,49,-31c0,0,56,-39,113,-39c0,0,88,0,154,66c0,0,66,66,66,161c0,0,0,92,-59,171c0,0,-59,80,-163,123c0,0,-81,34,-221,39l194,393H663L605,885H301L234,750c0,0,198,-29,313,-147c0,0,100,-102,100,-239c0,0,0,-80,-33,-148c0,0,-32,-68,-81,-116c0,0,-50,-47,-110,-77c0,0,-86,-40,-176,-40Z" 
id="f3_p"
transform="scale(0.001,-0.001)" />


</defs>
</svg>