<?xml version="1.0" encoding="UTF-8" standalone="no"?>
<!DOCTYPE svg PUBLIC "-//W3C//DTD SVG 1.1//EN"
"http://www.w3.org/Graphics/SVG/1.1/DTD/svg11.dtd">
<svg viewBox="0 0 909 1286" version="1.1" xmlns="http://www.w3.org/2000/svg" xmlns:xlink="http://www.w3.org/1999/xlink">
<defs>
<clipPath id="c0_102"><path d="M35.1,1194.7V113.1H873.9V1194.7Z" /></clipPath>
</defs>
<image preserveAspectRatio="none" x="47" y="113" width="257" height="128" xlink:href="img/1.png" />
<image preserveAspectRatio="none" x="47" y="260" width="55" height="62" xlink:href="img/2.png" />
<g clip-path="url(#c0_102)">
<g fill="#000000" >
<use xlink:href="#f0_1n" transform="matrix(12,0,0,12,47.4,397.2)" />
<use xlink:href="#f0_n" transform="matrix(12,0,0,12,57.6,397.2)" />
<use xlink:href="#f0_1g" transform="matrix(12,0,0,12,63.2,397.2)" />
<use xlink:href="#f0_6" transform="matrix(12,0,0,12,74.9,397.2)" />
<use xlink:href="#f0_b" transform="matrix(12,0,0,12,84.4,397.2)" />
<use xlink:href="#f0_1h" transform="matrix(12,0,0,12,95.7,397.2)" />
<use xlink:href="#f0_5" transform="matrix(12,0,0,12,106.8,397.2)" />
<use xlink:href="#f0_4" transform="matrix(12,0,0,12,122,397.2)" />
<use xlink:href="#f0_u" transform="matrix(12,0,0,12,129.4,397.2)" />
<use xlink:href="#f0_3" transform="matrix(12,0,0,12,141.6,397.2)" />
<use xlink:href="#f0_4" transform="matrix(12,0,0,12,152.6,397.2)" />
</g>
</g>
<image preserveAspectRatio="none" x="165" y="361" width="206" height="62" xlink:href="img/3.png" />
<g clip-path="url(#c0_102)">
<g fill="#000000" >
<use xlink:href="#f0_19" transform="matrix(12,0,0,12,47.4,464.4)" />
<use xlink:href="#f0_d" transform="matrix(12,0,0,12,61.2,464.4)" />
<use xlink:href="#f0_s" transform="matrix(12,0,0,12,73.4,464.4)" />
<use xlink:href="#f0_n" transform="matrix(12,0,0,12,82.3,464.4)" />
<use xlink:href="#f1_2" transform="matrix(12,0,0,12,87.9,464.4)" />
<use xlink:href="#f1_3" transform="matrix(12,0,0,12,99.3,464.4)" />
<use xlink:href="#f1_5" transform="matrix(12,0,0,12,109.3,464.4)" />
<use xlink:href="#f1_3" transform="matrix(12,0,0,12,123.8,464.4)" />
<use xlink:href="#f1_6" transform="matrix(12,0,0,12,133.8,464.4)" />
<use xlink:href="#f1_7" transform="matrix(12,0,0,12,143.7,464.4)" />
</g>
</g>
<image preserveAspectRatio="none" x="47" y="492" width="121" height="122" xlink:href="img/4.png" />
<image preserveAspectRatio="none" x="47" y="633" width="306" height="201" xlink:href="img/5.png" />
<image preserveAspectRatio="none" x="47" y="853" width="320" height="206" xlink:href="img/6.png" />
<g clip-path="url(#c0_102)">
<g fill="#000000" >
<use xlink:href="#f0_r" transform="matrix(12,0,0,12,47.4,1136.7)" />
<use xlink:href="#f0_n" transform="matrix(12,0,0,12,57.6,1136.7)" />
<use xlink:href="#f0_1g" transform="matrix(12,0,0,12,63.2,1136.7)" />
<use xlink:href="#f0_6" transform="matrix(12,0,0,12,74.9,1136.7)" />
<use xlink:href="#f0_b" transform="matrix(12,0,0,12,84.4,1136.7)" />
<use xlink:href="#f0_1h" transform="matrix(12,0,0,12,95.7,1136.7)" />
<use xlink:href="#f0_5" transform="matrix(12,0,0,12,106.8,1136.7)" />
<use xlink:href="#f0_4" transform="matrix(12,0,0,12,122,1136.7)" />
<use xlink:href="#f0_u" transform="matrix(12,0,0,12,129.4,1136.7)" />
<use xlink:href="#f0_3" transform="matrix(12,0,0,12,141.6,1136.7)" />
<use xlink:href="#f0_4" transform="matrix(12,0,0,12,152.6,1136.7)" />
</g>
</g>
<image preserveAspectRatio="none" x="165" y="1097" width="429" height="69" xlink:href="img/7.png" />
<g fill="#000000" >
<use xlink:href="#f2_m" transform="matrix(12,0,0,12,835.7,1269.6)" />
<use xlink:href="#f2_s" transform="matrix(12,0,0,12,844.9,1269.6)" />
</g>
<defs>
<path d="M425,72c6,0,41,0,71,14c0,0,31,13,54,39c0,0,21,26,34,61c0,0,12,34,12,77c0,0,-1,36,-13,67c0,0,-12,30,-39,57c0,0,-29,26,-70,52c0,0,-42,24,-101,51c0,0,-26,-17,-48,-37c0,0,-22,-23,-38,-48c0,0,-17,-28,-25,-60c0,0,-11,-32,-10,-73c0,0,0,-44,13,-81c0,0,11,-38,35,-63c0,0,22,-27,54,-41c0,0,31,-15,70,-15c0,0,1,0,1,0Zm36,571c0,0,28,16,49,35c0,0,20,19,33,43c0,0,12,23,19,53c0,0,6,29,6,67c0,0,0,33,-9,65c0,0,-10,32,-27,56c0,0,-19,25,-44,41c0,0,-28,14,-62,15c0,0,-32,-1,-55,-13c0,0,-25,-14,-41,-36c0,0,-17,-24,-25,-54c0,0,-9,-32,-9,-68c0,0,0,-40,11,-70c0,0,10,-30,32,-53c0,0,21,-24,51,-43c0,0,30,-19,71,-38ZM422,-14c-2,0,-3,0,-5,0h-1c-10,0,-99,1,-165,22c0,0,-70,23,-115,63c0,0,-47,39,-68,93c0,0,-22,54,-22,114c0,0,-1,49,16,89c0,0,15,39,45,72c0,0,30,32,72,60c0,0,40,26,91,52c0,0,-92,53,-139,120c0,0,-50,68,-50,157c0,0,0,52,19,104c0,0,18,49,60,89c0,0,41,38,109,62c0,0,68,23,167,23c0,0,79,0,141,-20c0,0,60,-20,102,-56c0,0,40,-36,62,-84c0,0,20,-49,20,-108c0,0,0,-46,-14,-80c0,0,-15,-36,-42,-63c0,0,-27,-30,-65,-54c0,0,-38,-25,-86,-49c0,0,68,-34,117,-68c0,0,48,-35,79,-70c0,0,30,-38,44,-78c0,0,14,-42,14,-87c0,0,-1,-73,-26,-129c0,0,-27,-57,-77,-95C705,65,654,25,582,6c0,0,-71,-20,-160,-20Z" 
id="f0_1n"
transform="scale(0.001,-0.001)" />

<path d="M232,-11c0,0,-26,0,-49,7c0,0,-24,4,-40,19c0,0,-17,13,-27,37c0,0,-10,23,-9,58c0,0,-1,34,9,59c0,0,10,22,27,37c0,0,16,14,40,20c0,0,23,5,49,6c0,0,25,-1,48,-6c0,0,23,-6,40,-20c0,0,16,-15,28,-37c0,0,9,-25,9,-59c0,0,0,-35,-9,-58c0,0,-12,-24,-28,-37C320,15,303,0,280,-4c0,0,-23,-7,-48,-7Z" 
id="f0_n"
transform="scale(0.001,-0.001)" />

<path d="M465,506c8,0,58,0,94,14c0,0,39,14,65,45c0,0,24,30,37,79c0,0,11,48,11,117c0,0,0,60,-10,107c0,0,-11,44,-32,74c0,0,-23,29,-57,44c0,0,-36,14,-87,14H426V506h37c0,0,1,0,2,0ZM43,0V81h64c0,0,16,0,31,4c0,0,14,3,25,13c0,0,9,10,16,30c0,0,5,19,6,53V917c0,0,-1,30,-6,49c0,0,-7,17,-16,28c0,0,-12,9,-26,13c0,0,-15,3,-30,3H43v81H512c0,0,106,0,184,-23c0,0,78,-23,131,-64c0,0,50,-43,76,-102c0,0,26,-61,26,-135c0,0,-1,-69,-24,-132c0,0,-24,-64,-78,-112c0,0,-53,-49,-139,-77c0,0,-87,-29,-210,-29H426V172c0,0,0,-30,7,-47c0,0,6,-20,18,-28c0,0,11,-10,26,-13c0,0,11,-3,26,-3c1,0,3,0,4,0h94V0Z" 
id="f0_1g"
transform="scale(0.001,-0.001)" />

<path d="M31,0V81h4c0,0,25,0,48,4c0,0,21,3,37,16c0,0,16,11,25,33c0,0,7,20,8,57V634c0,0,0,33,-8,55c0,0,-8,20,-22,31c0,0,-15,11,-35,15c0,0,-20,3,-45,3H38v81H347L377,700h8c0,0,14,34,33,60c0,0,17,26,43,43c0,0,24,16,59,26c0,0,34,7,81,8c0,0,90,0,132,-31c0,0,43,-33,43,-93c0,0,-1,-71,-51,-109c0,0,-50,-39,-141,-39c0,0,-1,0,-2,0c0,0,-1,32,-4,56c0,0,-4,23,-12,39c0,0,-9,16,-23,24c0,0,-15,8,-36,8c0,0,-28,0,-47,-13c0,0,-20,-14,-33,-34c0,0,-14,-22,-22,-49c0,0,-9,-27,-13,-54c0,0,-6,-28,-6,-52c0,0,0,-25,0,-42V184c0,0,0,-34,9,-54c0,0,7,-22,22,-32c0,0,13,-10,34,-13c0,0,18,-4,41,-4h49V0Z" 
id="f0_6"
transform="scale(0.001,-0.001)" />

<path d="M469,81c0,0,43,0,75,22c0,0,30,21,49,63c0,0,19,41,27,103c0,0,7,61,8,144c0,0,-1,81,-8,144c0,0,-9,60,-28,102c0,0,-20,40,-50,62c0,0,-31,20,-74,20c0,0,-45,0,-75,-20c0,0,-30,-22,-49,-62c0,0,-19,-42,-27,-102c0,0,-8,-63,-8,-144c0,0,0,-83,9,-144c0,0,7,-62,27,-103c0,0,19,-42,50,-63c0,0,29,-22,74,-22Zm-1,-95c0,0,-1,0,-2,0c0,0,-92,0,-165,26c0,0,-73,25,-123,79c0,0,-52,52,-79,134c0,0,-28,80,-27,188c0,0,-1,215,101,320c0,0,101,105,298,105c0,0,91,0,165,-26c0,0,72,-26,123,-79c0,0,50,-53,79,-132c0,0,27,-81,27,-188c0,0,0,-217,-101,-322C764,91,662,-14,468,-14Z" 
id="f0_b"
transform="scale(0.001,-0.001)" />

<path d="M373,0L122,665c0,0,-9,21,-18,35c0,0,-11,15,-26,23c0,0,-15,7,-33,12c0,0,-20,3,-45,3v81H474V738H410c0,0,-24,0,-37,-12c0,0,-15,-14,-14,-37c0,0,-1,-19,5,-36c0,0,5,-19,9,-31L475,333c0,0,18,-49,33,-98c0,0,13,-49,21,-88c0,0,3,18,10,42c0,0,7,23,14,47c0,0,6,21,12,41c0,0,6,18,8,26L677,609c0,0,6,21,12,43c0,0,5,20,5,42c0,0,0,24,-17,35c0,0,-18,9,-43,9H590v81H926V738H895c0,0,-15,-1,-27,-4c0,0,-13,-4,-24,-15c0,0,-13,-13,-23,-33c0,0,-12,-23,-25,-59L574,0Z" 
id="f0_1h"
transform="scale(0.001,-0.001)" />

<path d="M574,490c0,0,0,58,-6,105c0,0,-8,45,-22,78c0,0,-15,32,-37,49c0,0,-24,17,-56,17c0,0,-65,0,-103,-63c0,0,-38,-64,-38,-186ZM468,-14c0,0,-98,0,-171,27c0,0,-75,28,-125,82c0,0,-50,54,-75,133c0,0,-26,76,-25,177c0,0,-1,107,25,189c0,0,25,80,74,136c0,0,48,53,119,82c0,0,70,26,161,26c0,0,82,0,149,-23c0,0,65,-24,112,-70c0,0,46,-47,71,-115c0,0,25,-69,25,-159V392H308c0,0,0,-77,15,-132c0,0,14,-55,40,-91c0,0,26,-36,63,-53c0,0,37,-17,85,-17c0,0,1,0,2,0c8,0,41,1,71,10c0,0,34,9,61,26c0,0,28,16,48,40c0,0,21,22,34,48c0,0,41,-22,41,-75c0,0,0,-32,-18,-61c0,0,-18,-31,-55,-53C695,34,658,12,602,0c0,0,-57,-14,-134,-14Z" 
id="f0_5"
transform="scale(0.001,-0.001)" />

<path d="M371,-14c0,0,-52,0,-93,13c0,0,-42,11,-71,40c0,0,-29,27,-44,74c0,0,-16,46,-16,113V715H32v78c0,0,49,0,88,19c0,0,38,19,62,45c0,0,46,49,70,152H379V819H574V715H379V242c0,0,0,-70,24,-102c0,0,22,-32,75,-32c0,0,1,0,2,0c0,0,29,0,57,5c0,0,27,3,51,9V23c0,0,-13,-6,-32,-13C556,10,534,4,508,0c0,0,-28,-7,-62,-10c0,0,-35,-4,-75,-4Z" 
id="f0_4"
transform="scale(0.001,-0.001)" />

<path d="M31,0V81h3c0,0,25,0,47,4c0,0,21,3,38,14c0,0,16,11,25,32c0,0,9,20,9,55V987c0,0,-1,30,-11,49c0,0,-11,18,-27,29c0,0,-17,8,-35,12c0,0,-20,3,-36,3H26v81H383V909c0,0,0,-30,0,-64c0,0,0,-35,-3,-63c0,0,-4,-35,-7,-67h13c0,0,24,43,50,68c0,0,25,24,54,37c0,0,29,12,62,16c0,0,32,2,68,2c0,0,59,0,106,-17c0,0,47,-17,80,-53c0,0,32,-36,49,-91c0,0,16,-56,17,-133V189c0,0,0,-35,7,-56c0,0,5,-22,18,-33c0,0,12,-12,33,-15c0,0,18,-4,45,-4h4V0H640V503c0,0,-1,48,-6,88c0,0,-7,38,-21,64c0,0,-15,25,-38,40c0,0,-24,14,-57,14c0,0,-38,-1,-64,-20c0,0,-26,-19,-40,-51c0,0,-16,-33,-22,-76c0,0,-7,-44,-7,-90V181c0,0,0,-33,8,-52c0,0,7,-20,22,-30c0,0,13,-11,35,-14c0,0,19,-4,45,-4h5V0Z" 
id="f0_u"
transform="scale(0.001,-0.001)" />

<path d="M392,96c0,0,32,0,60,14c0,0,25,13,46,38c0,0,18,26,29,62c0,0,9,35,9,79V403H468c0,0,-47,-1,-77,-13c0,0,-31,-13,-50,-34c0,0,-19,-22,-27,-53c0,0,-8,-33,-8,-74c0,0,-1,-67,21,-100c0,0,21,-33,65,-33ZM314,-14c-2,0,-3,0,-5,0c0,0,-51,0,-94,14c0,0,-44,15,-76,46c0,0,-33,32,-52,79c0,0,-19,47,-18,111c0,0,-1,125,85,185c0,0,85,61,257,61H536v86c0,0,0,38,-3,71c0,0,-3,32,-12,57c0,0,-11,23,-29,37c0,0,-19,11,-50,12c0,0,-30,0,-49,-12c0,0,-20,-13,-32,-34c0,0,-13,-22,-16,-52c0,0,-6,-31,-6,-67h-1c-11,0,-105,1,-153,24c0,0,-53,23,-52,79c0,0,-1,41,25,71c0,0,24,29,68,49c0,0,43,18,100,27c0,0,57,8,122,8c0,0,80,0,141,-13c0,0,59,-15,100,-45c0,0,38,-30,59,-80c0,0,20,-50,20,-121V189c0,0,0,-31,6,-52c0,0,4,-21,15,-33c0,0,9,-12,28,-17c0,0,15,-6,39,-6c1,0,3,0,4,0h6V0H582L550,105H536c0,0,-26,-30,-47,-53c0,0,-23,-24,-48,-38C441,14,415,0,384,-6c0,0,-30,-8,-70,-8Z" 
id="f0_3"
transform="scale(0.001,-0.001)" />

<path d="M674,452L593,703c0,0,-9,25,-16,55c0,0,-10,28,-18,58c0,0,-8,29,-16,60c0,0,-9,29,-14,56c0,0,-7,-24,-16,-51c0,0,-9,-28,-18,-57c0,0,-11,-29,-21,-58c0,0,-10,-29,-19,-56L365,452ZM6,0V81H25c0,0,20,0,37,5c0,0,16,4,31,17c0,0,14,12,28,34c0,0,12,20,26,55l331,899H688L1007,191c0,0,11,-33,24,-53c0,0,12,-22,27,-34c0,0,13,-12,30,-17c0,0,15,-6,32,-6c1,0,2,0,3,0h27V0H646V81h60c0,0,10,0,23,4c0,0,11,2,21,10c0,0,9,7,15,18c0,0,6,12,6,27c0,0,0,19,-4,36c0,0,-5,16,-9,30L704,359H333L289,228c0,0,-7,-20,-12,-44c0,0,-7,-26,-7,-44c0,0,0,-15,6,-26c0,0,5,-11,16,-18c0,0,9,-8,22,-11c0,0,12,-4,25,-4h65V0Z" 
id="f0_19"
transform="scale(0.001,-0.001)" />

<path d="M31,0V81h3c0,0,25,0,47,4c0,0,21,3,38,14c0,0,16,11,25,32c0,0,9,20,9,55V639c0,0,0,32,-8,51c0,0,-8,19,-22,31c0,0,-15,9,-35,14c0,0,-20,3,-45,3H38v81H359L379,710h7c0,0,24,43,50,69c0,0,25,25,54,39c0,0,29,13,62,17c0,0,32,3,68,3c0,0,59,0,106,-17c0,0,47,-17,80,-53c0,0,32,-36,49,-91c0,0,16,-56,17,-133V189c0,0,0,-35,7,-56c0,0,5,-22,18,-33c0,0,12,-12,33,-15c0,0,18,-4,45,-4h4V0H640V503c0,0,-1,48,-6,88c0,0,-7,38,-21,64c0,0,-15,25,-38,40c0,0,-24,14,-57,14c0,0,-38,-1,-64,-20c0,0,-26,-19,-40,-51c0,0,-16,-33,-22,-76c0,0,-7,-44,-7,-90V181c0,0,0,-33,8,-52c0,0,7,-20,22,-30c0,0,13,-11,35,-14c0,0,19,-4,45,-4h5V0Z" 
id="f0_d"
transform="scale(0.001,-0.001)" />

<path d="M357,-14c-1,0,-3,0,-4,0c0,0,-83,0,-141,14c0,0,-60,12,-96,36c0,0,-37,23,-53,57c0,0,-17,32,-17,70c0,0,0,37,14,61c0,0,15,22,37,35c0,0,21,12,46,17c0,0,25,3,45,4c0,0,-1,-49,12,-86c0,0,12,-39,33,-64c0,0,21,-27,53,-41c0,0,28,-14,64,-14c1,0,2,0,3,0c0,0,39,0,68,8c0,0,28,7,47,23c0,0,18,14,27,34c0,0,9,17,9,39c0,0,0,25,-9,46c0,0,-10,18,-31,37c0,0,-22,16,-57,34c0,0,-38,16,-91,35c0,0,-62,21,-109,46c0,0,-48,24,-79,56c0,0,-33,30,-50,71c0,0,-17,38,-17,91c0,0,0,60,24,106c0,0,22,46,66,76c0,0,44,30,104,45c0,0,61,14,134,15c0,0,73,0,123,-12c0,0,50,-13,83,-33c0,0,32,-20,47,-45c0,0,14,-26,15,-52c0,0,0,-51,-36,-78c0,0,-37,-27,-120,-27c0,0,0,76,-33,119c0,0,-35,41,-101,41c0,0,-25,0,-47,-6c0,0,-24,-5,-40,-17c0,0,-17,-13,-26,-30c0,0,-11,-18,-11,-41c0,0,-1,-26,10,-44c0,0,9,-20,33,-37c0,0,23,-18,63,-36c0,0,40,-18,103,-39c0,0,50,-18,94,-40c0,0,43,-24,74,-53c0,0,30,-30,48,-67c0,0,16,-39,17,-86c0,0,-1,-65,-22,-114c0,0,-22,-50,-65,-84C598,56,555,21,494,4c0,0,-60,-18,-137,-18Z" 
id="f0_s"
transform="scale(0.001,-0.001)" />

<path d="M58,0V64H78c0,0,25,0,49,4c0,0,22,3,39,16c0,0,17,11,27,32c0,0,10,21,10,58V917c0,0,0,36,-10,57c0,0,-10,21,-27,34c0,0,-17,11,-39,15c0,0,-24,3,-49,3H58v65H503v-65H483c0,0,-26,0,-48,-3c0,0,-24,-3,-40,-14c0,0,-18,-12,-27,-32c0,0,-11,-21,-11,-54V76H659c0,0,34,0,59,13c0,0,23,12,39,32c0,0,16,19,25,44c0,0,7,24,11,49l15,114h75V0Z" 
id="f1_2"
transform="scale(0.001,-0.001)" />

<path d="M222,-9c-1,0,-2,0,-3,0c0,0,-1,0,-3,0c-6,0,-22,0,-35,5c0,0,-18,4,-30,16c0,0,-14,12,-21,32c0,0,-8,20,-8,49c0,0,0,30,8,50c0,0,7,19,21,32c0,0,12,11,30,17c0,0,17,5,38,5c0,0,18,0,37,-5c0,0,16,-6,30,-17c0,0,12,-13,21,-32c0,0,8,-20,8,-50c0,0,0,-29,-8,-49c0,0,-9,-20,-21,-32C286,12,272,0,256,-4c0,0,-17,-5,-34,-5Z" 
id="f1_3"
transform="scale(0.001,-0.001)" />

<path d="M58,0V64H78c0,0,25,0,49,4c0,0,22,3,39,16c0,0,17,11,27,32c0,0,10,21,10,58V923c0,0,0,33,-10,54c0,0,-11,20,-27,32c0,0,-18,11,-40,14c0,0,-24,3,-48,3H58v65H503v-65H483c0,0,-26,0,-49,-3c0,0,-24,-4,-39,-15c0,0,-18,-13,-27,-34c0,0,-11,-21,-11,-57V608H854V917c0,0,0,36,-10,57c0,0,-10,21,-26,34c0,0,-18,11,-40,15c0,0,-24,3,-49,3H709v65h444v-65h-19c0,0,-26,0,-49,-3c0,0,-23,-4,-40,-15c0,0,-17,-13,-27,-34c0,0,-10,-21,-9,-57V166c0,0,0,-33,10,-53c0,0,10,-22,27,-32c0,0,16,-10,40,-13c0,0,22,-4,48,-4h19V0H709V64h20c0,0,25,0,49,4c0,0,22,3,40,16c0,0,16,11,26,32c0,0,10,21,10,58V532H357V174c0,0,0,-37,11,-58c0,0,9,-21,27,-32c0,0,15,-13,39,-16c0,0,23,-4,49,-4h20V0Z" 
id="f1_5"
transform="scale(0.001,-0.001)" />

<path d="M382,-14c-2,0,-3,0,-5,0c0,0,-75,0,-131,15c0,0,-57,15,-95,44c0,0,-40,27,-58,68c0,0,-20,38,-20,87c0,0,0,45,29,75c0,0,29,27,82,28c0,0,0,-49,13,-92c0,0,12,-44,36,-77c0,0,24,-34,64,-54c0,0,38,-20,92,-20c6,0,104,0,161,50c0,0,58,49,58,142c0,0,0,41,-12,74c0,0,-13,31,-39,60c0,0,-29,26,-73,52c0,0,-46,24,-113,52c0,0,-71,29,-123,63c0,0,-54,32,-88,74c0,0,-36,39,-53,90c0,0,-17,50,-17,113c0,0,0,65,26,117c0,0,24,51,69,87c0,0,44,34,106,54c0,0,60,18,133,18c0,0,68,0,122,-14c0,0,52,-15,90,-38c0,0,36,-25,56,-54c0,0,18,-32,18,-65c0,0,0,-50,-32,-74c0,0,-33,-26,-86,-26c0,0,-1,1,-2,1c0,0,-1,35,-8,70c0,0,-9,34,-29,62c0,0,-21,27,-53,44c0,0,-34,17,-81,17c0,0,-45,0,-79,-11c0,0,-36,-13,-59,-36c0,0,-24,-23,-36,-55c0,0,-13,-33,-13,-71c0,0,-1,-47,12,-80c0,0,12,-35,40,-63c0,0,27,-28,73,-53c0,0,46,-26,112,-52c0,0,67,-28,120,-58c0,0,52,-32,89,-68c0,0,37,-39,56,-84c0,0,19,-47,19,-106c0,0,0,-73,-26,-129c0,0,-27,-59,-76,-97C651,66,602,26,533,6c0,0,-67,-20,-151,-20Z" 
id="f1_6"
transform="scale(0.001,-0.001)" />

<path d="M99,350v90H755V350Zm0,300v91H755V650Z" 
id="f1_7"
transform="scale(0.001,-0.001)" />

<path d="M417,530q1,0,2,0c0,0,54,0,93,29c0,0,39,27,63,74c0,0,0,97,-12,167c0,0,-12,70,-33,116c0,0,-22,45,-52,66c0,0,-30,21,-65,22c0,0,-67,-1,-102,-64c0,0,-36,-65,-36,-195c0,0,0,-106,36,-160c0,0,35,-55,106,-55ZM350,-14c-1,0,-2,0,-3,0c0,0,-69,0,-117,14c0,0,-49,14,-78,39c0,0,-30,23,-42,55c0,0,-14,30,-14,63c0,0,0,33,18,57c0,0,17,22,57,31c0,0,11,-35,27,-64c0,0,15,-31,38,-52c0,0,21,-23,52,-35c0,0,30,-13,68,-13c0,0,104,0,160,111c0,0,56,111,56,332c0,0,-18,-23,-39,-41c0,0,-23,-20,-50,-33c0,0,-28,-15,-60,-22c0,0,-34,-8,-72,-8c0,0,-1,0,-1,0c-8,0,-69,1,-119,21c0,0,-55,20,-94,60c0,0,-40,39,-62,100c0,0,-21,58,-21,135c0,0,0,82,24,151c0,0,23,68,69,117c0,0,45,48,110,75c0,0,65,27,147,27c0,0,82,0,153,-30c0,0,70,-30,121,-92c0,0,50,-63,79,-160c0,0,28,-97,29,-231c0,0,0,-127,-25,-236c0,0,-25,-112,-77,-194C684,163,631,81,548,33c0,0,-83,-47,-198,-47Z" 
id="f0_r"
transform="scale(0.001,-0.001)" />

<path d="M33,0V27c0,0,264,241,371,393c0,0,108,152,108,278c0,0,0,96,-59,158c0,0,-59,62,-141,62c0,0,-75,0,-134,-43c0,0,-59,-44,-88,-128H63c0,0,18,138,95,212c0,0,77,74,193,74c0,0,123,0,205,-80c0,0,83,-79,83,-186c0,0,0,-77,-36,-154c0,0,-55,-121,-179,-256C424,357,238,154,191,112H455c0,0,81,0,114,6c0,0,32,6,58,25c0,0,27,18,46,52h27L630,0Z" 
id="f2_m"
transform="scale(0.001,-0.001)" />

<path d="M394,23c0,0,80,0,129,45c0,0,48,45,48,110c0,0,0,54,-28,97c0,0,-53,79,-214,206c0,0,-62,-52,-92,-114c0,0,-30,-61,-30,-133c0,0,0,-96,53,-154c0,0,52,-57,134,-57Zm17,566c0,0,90,81,114,128c0,0,24,46,24,105c0,0,0,79,-44,123c0,0,-44,45,-121,45c0,0,-76,0,-124,-45c0,0,-48,-44,-48,-103c0,0,0,-38,20,-77c0,0,20,-39,56,-74L411,589ZM382,-17c0,0,-144,0,-225,90c0,0,-64,72,-64,158c0,0,0,67,45,133c0,0,45,66,156,146c0,0,-121,98,-156,158c0,0,-34,59,-34,124c0,0,0,98,76,169c0,0,76,72,202,72c0,0,123,0,198,-67c0,0,74,-66,74,-151c0,0,0,-57,-40,-116c0,0,-40,-59,-168,-139c0,0,132,-101,174,-159c0,0,57,-76,57,-161c0,0,0,-106,-82,-182c0,0,-81,-75,-213,-75Z" 
id="f2_s"
transform="scale(0.001,-0.001)" />


</defs>
</svg>